Sinistre-Regular.ufo
<glyph name="exclam" format="2">
  <advance width="271"/>
  <unicode hex="0021"/>
  <outline>
    <contour>
      <point x="107" y="513" type="curve" smooth="yes"/>
      <point x="124" y="145" type="line"/>
      <point x="144" y="145" type="line"/>
      <point x="160" y="408" type="line" smooth="yes"/>
      <point x="173" y="622"/>
      <point x="179" y="646"/>
      <point x="198" y="703" type="curve"/>
      <point x="162" y="686"/>
      <point x="131" y="671"/>
      <point x="91" y="666" type="curve"/>
      <point x="96" y="648"/>
      <point x="103" y="602"/>
    </contour>
    <component base="period" xOffset="60" yOffset="-10"/>
  </outline>
</glyph>
<glyph name="quotedbl" format="2">
  <advance width="304"/>
  <unicode hex="0022"/>
  <note>
quotedbl
</note>
  <outline>
    <contour>
      <point x="88" y="478" type="line"/>
      <point x="102" y="478" type="line"/>
      <point x="130" y="723" type="line"/>
      <point x="60" y="723" type="line"/>
    </contour>
    <contour>
      <point x="202" y="478" type="line"/>
      <point x="216" y="478" type="line"/>
      <point x="244" y="723" type="line"/>
      <point x="174" y="723" type="line"/>
    </contour>
  </outline>
</glyph>
<glyph name="ampersand" format="2">
  <advance width="1021"/>
  <unicode hex="0026"/>
  <outline>
    <contour>
      <point x="60" y="373" type="curve" smooth="yes"/>
      <point x="60" y="89"/>
      <point x="307" y="-56"/>
      <point x="542" y="-56" type="curve" smooth="yes"/>
      <point x="757" y="-56"/>
      <point x="961" y="64"/>
      <point x="961" y="310" type="curve" smooth="yes"/>
      <point x="961" y="453"/>
      <point x="885" y="618"/>
      <point x="713" y="771" type="curve"/>
      <point x="708" y="762" type="line"/>
      <point x="834" y="641"/>
      <point x="899" y="480"/>
      <point x="899" y="335" type="curve" smooth="yes"/>
      <point x="899" y="88"/>
      <point x="730" y="-30"/>
      <point x="551" y="-30" type="curve" smooth="yes"/>
      <point x="334" y="-30"/>
      <point x="102" y="141"/>
      <point x="128" y="463" type="curve"/>
      <point x="606" y="463" type="line"/>
      <point x="606" y="128" type="line" smooth="yes"/>
      <point x="606" y="84"/>
      <point x="604" y="68"/>
      <point x="596" y="44" type="curve"/>
      <point x="678" y="44" type="line"/>
      <point x="672" y="64"/>
      <point x="670" y="80"/>
      <point x="670" y="120" type="curve" smooth="yes"/>
      <point x="670" y="463" type="line"/>
      <point x="744" y="463" type="line"/>
      <point x="754" y="496" type="line"/>
      <point x="743" y="491"/>
      <point x="726" y="490"/>
      <point x="694" y="490" type="curve" smooth="yes"/>
      <point x="670" y="490" type="line"/>
      <point x="670" y="499" type="line" smooth="yes"/>
      <point x="670" y="559"/>
      <point x="672" y="665"/>
      <point x="681" y="695" type="curve"/>
      <point x="676" y="698" type="line"/>
      <point x="583" y="550" type="line"/>
      <point x="583" y="546" type="line"/>
      <point x="593" y="530"/>
      <point x="604" y="516"/>
      <point x="604" y="496" type="curve" smooth="yes"/>
      <point x="604" y="490" type="line"/>
      <point x="404" y="490" type="line"/>
      <point x="506" y="515"/>
      <point x="548" y="561"/>
      <point x="546" y="615" type="curve" smooth="yes"/>
      <point x="543" y="689"/>
      <point x="469" y="733"/>
      <point x="376" y="733" type="curve" smooth="yes"/>
      <point x="236" y="733"/>
      <point x="60" y="631"/>
    </contour>
    <contour>
      <point x="308" y="490" type="curve" smooth="yes"/>
      <point x="131" y="490" type="line"/>
      <point x="155" y="631"/>
      <point x="252" y="707"/>
      <point x="345" y="711" type="curve" smooth="yes"/>
      <point x="435" y="715"/>
      <point x="484" y="674"/>
      <point x="485" y="613" type="curve" smooth="yes"/>
      <point x="486" y="553"/>
      <point x="424" y="490"/>
    </contour>
  </outline>
</glyph>
<glyph name="parenleft" format="2">
  <advance width="219"/>
  <unicode hex="0028"/>
  <outline>
    <contour>
      <point x="112" y="-61" type="curve"/>
      <point x="169" y="-19" type="line"/>
      <point x="55" y="246"/>
      <point x="6" y="502"/>
      <point x="189" y="840" type="curve"/>
      <point x="172" y="851" type="line"/>
      <point x="-24" y="538"/>
      <point x="-15" y="189"/>
    </contour>
  </outline>
</glyph>
<glyph name="parenright" format="2">
  <advance width="209"/>
  <unicode hex="0029"/>
  <outline>
    <contour>
      <point x="20" y="-50" type="curve"/>
      <point x="37" y="-61" type="line"/>
      <point x="233" y="252"/>
      <point x="224" y="601"/>
      <point x="97" y="851" type="curve"/>
      <point x="41" y="804" type="line"/>
      <point x="154" y="544"/>
      <point x="203" y="288"/>
    </contour>
  </outline>
</glyph>
<glyph name="comma" format="2">
  <advance width="221"/>
  <unicode hex="002C"/>
  <outline>
    <contour>
      <point x="40" y="-113" type="curve"/>
      <point x="44" y="-123" type="line"/>
      <point x="107" y="-91"/>
      <point x="141" y="-31"/>
      <point x="141" y="19" type="curve" smooth="yes"/>
      <point x="141" y="55"/>
      <point x="124" y="86"/>
      <point x="87" y="101" type="curve"/>
      <point x="80" y="79"/>
      <point x="68" y="59"/>
      <point x="43" y="42" type="curve"/>
      <point x="80" y="27"/>
      <point x="97" y="0"/>
      <point x="97" y="-28" type="curve" smooth="yes"/>
      <point x="97" y="-59"/>
      <point x="77" y="-91"/>
    </contour>
  </outline>
</glyph>
<glyph name="period" format="2">
  <advance width="232"/>
  <unicode hex="002E"/>
  <outline>
    <contour>
      <point x="96" y="-11" type="curve"/>
      <point x="110" y="19"/>
      <point x="136" y="38"/>
      <point x="152" y="47" type="curve"/>
      <point x="129" y="61"/>
      <point x="107" y="82"/>
      <point x="96" y="105" type="curve"/>
      <point x="86" y="84"/>
      <point x="66" y="59"/>
      <point x="40" y="47" type="curve"/>
      <point x="63" y="39"/>
      <point x="88" y="12"/>
    </contour>
  </outline>
</glyph>
<glyph name="zero" format="2">
  <advance width="590"/>
  <unicode hex="0030"/>
  <outline>
    <contour>
      <point x="293" y="-16" type="curve" smooth="yes"/>
      <point x="451" y="-16"/>
      <point x="540" y="160"/>
      <point x="540" y="351" type="curve" smooth="yes"/>
      <point x="540" y="544"/>
      <point x="454" y="722"/>
      <point x="293" y="722" type="curve" smooth="yes"/>
      <point x="137" y="722"/>
      <point x="50" y="546"/>
      <point x="50" y="346" type="curve" smooth="yes"/>
      <point x="52" y="161"/>
      <point x="134" y="-16"/>
    </contour>
    <contour>
      <point x="295" y="3" type="curve" smooth="yes"/>
      <point x="190" y="3"/>
      <point x="126" y="193"/>
      <point x="121" y="346" type="curve" smooth="yes"/>
      <point x="121" y="534"/>
      <point x="181" y="700"/>
      <point x="295" y="700" type="curve" smooth="yes"/>
      <point x="405" y="700"/>
      <point x="469" y="510"/>
      <point x="469" y="351" type="curve" smooth="yes"/>
      <point x="469" y="195"/>
      <point x="406" y="3"/>
    </contour>
  </outline>
</glyph>
<glyph name="two" format="2">
  <advance width="519"/>
  <unicode hex="0032"/>
  <outline>
    <contour>
      <point x="430" y="-24" type="curve"/>
      <point x="449" y="10"/>
      <point x="468" y="87"/>
      <point x="493" y="171" type="curve"/>
      <point x="484" y="174" type="line"/>
      <point x="447" y="76"/>
      <point x="405" y="60"/>
      <point x="338" y="60" type="curve" smooth="yes"/>
      <point x="143" y="60" type="line"/>
      <point x="322" y="211"/>
      <point x="481" y="371"/>
      <point x="481" y="535" type="curve" smooth="yes"/>
      <point x="481" y="661"/>
      <point x="392" y="724"/>
      <point x="293" y="724" type="curve" smooth="yes"/>
      <point x="195" y="724"/>
      <point x="88" y="661"/>
      <point x="53" y="514" type="curve"/>
      <point x="79" y="514"/>
      <point x="113" y="461"/>
      <point x="124" y="396" type="curve"/>
      <point x="132" y="396" type="line"/>
      <point x="115" y="598"/>
      <point x="208" y="707"/>
      <point x="289" y="707" type="curve" smooth="yes"/>
      <point x="349" y="707"/>
      <point x="402" y="649"/>
      <point x="402" y="518" type="curve" smooth="yes"/>
      <point x="402" y="351"/>
      <point x="243" y="185"/>
      <point x="45" y="11" type="curve"/>
      <point x="45" y="0" type="line"/>
      <point x="304" y="0" type="line" smooth="yes"/>
      <point x="397" y="0"/>
      <point x="410" y="-3"/>
    </contour>
  </outline>
</glyph>
<glyph name="three" format="2">
  <advance width="519"/>
  <unicode hex="0033"/>
  <outline>
    <contour>
      <point x="350" y="658" type="line"/>
      <point x="122" y="394" type="line"/>
      <point x="129" y="388" type="line"/>
      <point x="163" y="422"/>
      <point x="205" y="438"/>
      <point x="246" y="438" type="curve" smooth="yes"/>
      <point x="364" y="438"/>
      <point x="424" y="326"/>
      <point x="424" y="218" type="curve" smooth="yes"/>
      <point x="424" y="117"/>
      <point x="371" y="18"/>
      <point x="264" y="18" type="curve" smooth="yes"/>
      <point x="173" y="18"/>
      <point x="74" y="100"/>
      <point x="70" y="257" type="curve"/>
      <point x="62" y="257" type="line"/>
      <point x="62" y="136"/>
      <point x="62" y="102"/>
      <point x="40" y="68" type="curve"/>
      <point x="113" y="21"/>
      <point x="195" y="-4"/>
      <point x="265" y="-4" type="curve" smooth="yes"/>
      <point x="412" y="-4"/>
      <point x="489" y="123"/>
      <point x="489" y="246" type="curve" smooth="yes"/>
      <point x="489" y="357"/>
      <point x="425" y="465"/>
      <point x="291" y="467" type="curve" smooth="yes"/>
      <point x="258" y="468"/>
      <point x="224" y="461"/>
      <point x="191" y="447" type="curve"/>
      <point x="188" y="450" type="line"/>
      <point x="450" y="720" type="line"/>
      <point x="446" y="728" type="line"/>
      <point x="425" y="721"/>
      <point x="335" y="722"/>
      <point x="263" y="722" type="curve" smooth="yes"/>
      <point x="156" y="722"/>
      <point x="110" y="724"/>
      <point x="86" y="733" type="curve"/>
      <point x="60" y="579" type="line"/>
      <point x="68" y="578" type="line"/>
      <point x="90" y="649"/>
      <point x="109" y="658"/>
      <point x="222" y="658" type="curve" smooth="yes"/>
    </contour>
  </outline>
</glyph>
<glyph name="four" format="2">
  <advance width="498"/>
  <unicode hex="0034"/>
  <outline>
    <contour>
      <point x="288" y="-130" type="curve"/>
      <point x="296" y="-135" type="line"/>
      <point x="347" y="-51"/>
      <point x="380" y="-10"/>
      <point x="406" y="0" type="curve"/>
      <point x="406" y="258" type="line"/>
      <point x="450" y="258"/>
      <point x="471" y="253"/>
      <point x="478" y="250" type="curve"/>
      <point x="468" y="284" type="line"/>
      <point x="406" y="284" type="line"/>
      <point x="406" y="722" type="line"/>
      <point x="269" y="722" type="line"/>
      <point x="269" y="716" type="line"/>
      <point x="289" y="716" type="line" smooth="yes"/>
      <point x="325" y="716"/>
      <point x="341" y="697"/>
      <point x="341" y="652" type="curve" smooth="yes"/>
      <point x="341" y="284" type="line"/>
      <point x="75" y="284" type="line"/>
      <point x="189" y="425"/>
      <point x="234" y="507"/>
      <point x="234" y="587" type="curve" smooth="yes"/>
      <point x="234" y="667"/>
      <point x="193" y="717"/>
      <point x="110" y="734" type="curve" smooth="yes"/>
      <point x="87" y="739"/>
      <point x="61" y="742"/>
      <point x="31" y="742" type="curve"/>
      <point x="30" y="735" type="line"/>
      <point x="114" y="734"/>
      <point x="160" y="677"/>
      <point x="160" y="575" type="curve" smooth="yes"/>
      <point x="160" y="473"/>
      <point x="114" y="360"/>
      <point x="31" y="258" type="curve"/>
      <point x="341" y="258" type="line"/>
      <point x="341" y="15" type="line" smooth="yes"/>
      <point x="341" y="-28"/>
      <point x="331" y="-56"/>
    </contour>
  </outline>
</glyph>
<glyph name="five" format="2">
  <advance width="510"/>
  <unicode hex="0035"/>
  <outline>
    <contour>
      <point x="100" y="13"/>
      <point x="175" y="-7"/>
      <point x="251" y="-7" type="curve" smooth="yes"/>
      <point x="403" y="-7"/>
      <point x="480" y="114"/>
      <point x="480" y="235" type="curve" smooth="yes"/>
      <point x="480" y="359"/>
      <point x="400" y="484"/>
      <point x="238" y="484" type="curve" smooth="yes"/>
      <point x="196" y="484"/>
      <point x="152" y="476"/>
      <point x="110" y="458" type="curve"/>
      <point x="106" y="461" type="line"/>
      <point x="142" y="662" type="line"/>
      <point x="259" y="662" type="line" smooth="yes"/>
      <point x="346" y="662"/>
      <point x="390" y="656"/>
      <point x="415" y="588" type="curve"/>
      <point x="423" y="591" type="line"/>
      <point x="410" y="645"/>
      <point x="386" y="712"/>
      <point x="374" y="735" type="curve"/>
      <point x="358" y="725"/>
      <point x="348" y="722"/>
      <point x="245" y="722" type="curve" smooth="yes"/>
      <point x="190" y="722"/>
      <point x="136" y="719"/>
      <point x="104" y="727" type="curve"/>
      <point x="100" y="723" type="line"/>
      <point x="104" y="685"/>
      <point x="118" y="633"/>
      <point x="75" y="430" type="curve"/>
      <point x="84" y="424" type="line"/>
      <point x="131" y="448"/>
      <point x="176" y="459"/>
      <point x="215" y="459" type="curve" smooth="yes"/>
      <point x="345" y="459"/>
      <point x="410" y="337"/>
      <point x="410" y="221" type="curve" smooth="yes"/>
      <point x="410" y="116"/>
      <point x="357" y="16"/>
      <point x="255" y="16" type="curve" smooth="yes"/>
      <point x="163" y="16"/>
      <point x="56" y="86"/>
      <point x="56" y="246" type="curve"/>
      <point x="48" y="246" type="line"/>
      <point x="48" y="133"/>
      <point x="50" y="100"/>
      <point x="30" y="69" type="curve"/>
    </contour>
  </outline>
</glyph>
<glyph name="six" format="2">
  <advance width="576"/>
  <unicode hex="0036"/>
  <outline>
    <contour>
      <point x="295" y="-12" type="curve" smooth="yes"/>
      <point x="440" y="-12"/>
      <point x="526" y="117"/>
      <point x="526" y="236" type="curve" smooth="yes"/>
      <point x="526" y="345"/>
      <point x="454" y="446"/>
      <point x="288" y="436" type="curve"/>
      <point x="165" y="344" type="line"/>
      <point x="170" y="337" type="line"/>
      <point x="206" y="363"/>
      <point x="243" y="376"/>
      <point x="283" y="376" type="curve" smooth="yes"/>
      <point x="405" y="376"/>
      <point x="464" y="278"/>
      <point x="464" y="184" type="curve" smooth="yes"/>
      <point x="464" y="96"/>
      <point x="413" y="11"/>
      <point x="314" y="11" type="curve" smooth="yes"/>
      <point x="207" y="11"/>
      <point x="127" y="139"/>
      <point x="127" y="312" type="curve" smooth="yes"/>
      <point x="127" y="479"/>
      <point x="207" y="634"/>
      <point x="378" y="745" type="curve"/>
      <point x="375" y="752" type="line"/>
      <point x="166" y="653"/>
      <point x="50" y="467"/>
      <point x="50" y="277" type="curve" smooth="yes"/>
      <point x="50" y="108"/>
      <point x="152" y="-12"/>
    </contour>
  </outline>
</glyph>
<glyph name="seven" format="2">
  <advance width="501"/>
  <unicode hex="0037"/>
  <outline>
    <contour>
      <point x="108" y="-1" type="curve"/>
      <point x="122" y="-1" type="line"/>
      <point x="165" y="264"/>
      <point x="276" y="421"/>
      <point x="388" y="587" type="curve" smooth="yes"/>
      <point x="422" y="637"/>
      <point x="459" y="680"/>
      <point x="491" y="718" type="curve"/>
      <point x="486" y="728" type="line"/>
      <point x="454" y="723"/>
      <point x="323" y="722"/>
      <point x="251" y="722" type="curve" smooth="yes"/>
      <point x="132" y="722"/>
      <point x="85" y="724"/>
      <point x="56" y="733" type="curve"/>
      <point x="30" y="580" type="line"/>
      <point x="38" y="578" type="line"/>
      <point x="63" y="649"/>
      <point x="77" y="658"/>
      <point x="173" y="658" type="curve" smooth="yes"/>
      <point x="353" y="658" type="line"/>
      <point x="262" y="509"/>
      <point x="147" y="337"/>
    </contour>
  </outline>
</glyph>
<glyph name="eight" format="2">
  <advance width="597"/>
  <unicode hex="0038"/>
  <outline>
    <contour>
      <point x="297" y="-17" type="curve" smooth="yes"/>
      <point x="422" y="-17"/>
      <point x="547" y="54"/>
      <point x="547" y="196" type="curve" smooth="yes"/>
      <point x="547" y="335"/>
      <point x="424" y="405"/>
      <point x="300" y="405" type="curve" smooth="yes"/>
      <point x="175" y="405"/>
      <point x="50" y="334"/>
      <point x="50" y="192" type="curve" smooth="yes"/>
      <point x="50" y="53"/>
      <point x="173" y="-17"/>
    </contour>
    <contour>
      <point x="299" y="3" type="curve" smooth="yes"/>
      <point x="212" y="3"/>
      <point x="126" y="68"/>
      <point x="126" y="199" type="curve" smooth="yes"/>
      <point x="126" y="323"/>
      <point x="211" y="385"/>
      <point x="297" y="385" type="curve" smooth="yes"/>
      <point x="383" y="385"/>
      <point x="470" y="322"/>
      <point x="470" y="196" type="curve" smooth="yes"/>
      <point x="470" y="67"/>
      <point x="384" y="3"/>
    </contour>
    <contour>
      <point x="297" y="385" type="curve" smooth="yes"/>
      <point x="400" y="385"/>
      <point x="503" y="443"/>
      <point x="503" y="559" type="curve" smooth="yes"/>
      <point x="503" y="673"/>
      <point x="402" y="731"/>
      <point x="300" y="731" type="curve" smooth="yes"/>
      <point x="197" y="731"/>
      <point x="94" y="672"/>
      <point x="94" y="556" type="curve" smooth="yes"/>
      <point x="94" y="443"/>
      <point x="195" y="385"/>
    </contour>
    <contour>
      <point x="299" y="405" type="curve" smooth="yes"/>
      <point x="228" y="405"/>
      <point x="161" y="455"/>
      <point x="161" y="563" type="curve" smooth="yes"/>
      <point x="161" y="664"/>
      <point x="227" y="711"/>
      <point x="297" y="711" type="curve" smooth="yes"/>
      <point x="368" y="711"/>
      <point x="436" y="663"/>
      <point x="436" y="559" type="curve" smooth="yes"/>
      <point x="436" y="454"/>
      <point x="369" y="405"/>
    </contour>
  </outline>
</glyph>
<glyph name="nine" format="2">
  <advance width="532"/>
  <unicode hex="0039"/>
  <outline>
    <contour>
      <point x="80" y="-10" type="curve"/>
      <point x="83" y="-17" type="line"/>
      <point x="367" y="114"/>
      <point x="482" y="316"/>
      <point x="482" y="476" type="curve" smooth="yes"/>
      <point x="482" y="615"/>
      <point x="394" y="723"/>
      <point x="255" y="723" type="curve" smooth="yes"/>
      <point x="139" y="723"/>
      <point x="20" y="639"/>
      <point x="20" y="489" type="curve" smooth="yes"/>
      <point x="20" y="385"/>
      <point x="94" y="291"/>
      <point x="214" y="291" type="curve"/>
      <point x="343" y="391" type="line"/>
      <point x="338" y="398" type="line"/>
      <point x="303" y="370"/>
      <point x="270" y="355"/>
      <point x="231" y="355" type="curve" smooth="yes"/>
      <point x="155" y="355"/>
      <point x="80" y="411"/>
      <point x="80" y="532" type="curve" smooth="yes"/>
      <point x="80" y="642"/>
      <point x="153" y="700"/>
      <point x="231" y="700" type="curve" smooth="yes"/>
      <point x="329" y="700"/>
      <point x="409" y="596"/>
      <point x="409" y="457" type="curve" smooth="yes"/>
      <point x="409" y="313"/>
      <point x="323" y="131"/>
    </contour>
  </outline>
</glyph>
<glyph name="less" format="2">
  <advance width="540"/>
  <unicode hex="003C"/>
  <note>
less
</note>
  <outline>
    <contour>
      <point x="485" y="-9" type="curve"/>
      <point x="488" y="0" type="line"/>
      <point x="431" y="13"/>
      <point x="396" y="55"/>
      <point x="363" y="96" type="curve" smooth="yes"/>
      <point x="286" y="192"/>
      <point x="195" y="337"/>
      <point x="129" y="382" type="curve"/>
      <point x="315" y="615" type="line" smooth="yes"/>
      <point x="373" y="688"/>
      <point x="399" y="713"/>
      <point x="469" y="717" type="curve"/>
      <point x="469" y="722" type="line"/>
      <point x="260" y="722" type="line"/>
      <point x="260" y="717" type="line"/>
      <point x="318" y="696"/>
      <point x="301" y="650"/>
      <point x="259" y="598" type="curve" smooth="yes"/>
      <point x="116" y="424" type="line" smooth="yes"/>
      <point x="96" y="399"/>
      <point x="73" y="374"/>
      <point x="54" y="361" type="curve"/>
      <point x="54" y="354" type="line"/>
      <point x="109" y="316"/>
      <point x="208" y="168"/>
      <point x="284" y="75" type="curve" smooth="yes"/>
      <point x="333" y="15"/>
      <point x="364" y="0"/>
    </contour>
  </outline>
</glyph>
<glyph name="equal" format="2">
  <advance width="690"/>
  <unicode hex="003D"/>
  <outline>
    <contour>
      <point x="102" y="300" type="line"/>
      <point x="550" y="316" type="line"/>
      <point x="550" y="416" type="line"/>
      <point x="102" y="324" type="line"/>
    </contour>
    <contour>
      <point x="102" y="118" type="line"/>
      <point x="550" y="133" type="line"/>
      <point x="550" y="234" type="line"/>
      <point x="102" y="141" type="line"/>
    </contour>
  </outline>
</glyph>
<glyph name="greater" format="2">
  <advance width="540"/>
  <unicode hex="003E"/>
  <note>
greater
</note>
  <outline>
    <contour>
      <point x="52" y="0" type="curve"/>
      <point x="55" y="-9" type="line"/>
      <point x="176" y="0"/>
      <point x="207" y="15"/>
      <point x="256" y="75" type="curve" smooth="yes"/>
      <point x="332" y="168"/>
      <point x="431" y="316"/>
      <point x="486" y="354" type="curve"/>
      <point x="486" y="361" type="line"/>
      <point x="467" y="374"/>
      <point x="444" y="399"/>
      <point x="424" y="424" type="curve" smooth="yes"/>
      <point x="281" y="598" type="line" smooth="yes"/>
      <point x="239" y="650"/>
      <point x="222" y="696"/>
      <point x="280" y="717" type="curve"/>
      <point x="280" y="722" type="line"/>
      <point x="71" y="722" type="line"/>
      <point x="71" y="717" type="line"/>
      <point x="141" y="713"/>
      <point x="167" y="688"/>
      <point x="225" y="615" type="curve" smooth="yes"/>
      <point x="411" y="382" type="line"/>
      <point x="345" y="337"/>
      <point x="254" y="192"/>
      <point x="177" y="96" type="curve" smooth="yes"/>
      <point x="144" y="55"/>
      <point x="109" y="13"/>
    </contour>
  </outline>
</glyph>
<glyph name="question" format="2">
  <advance width="405"/>
  <unicode hex="003F"/>
  <outline>
    <contour>
      <point x="30" y="683" type="curve"/>
      <point x="42" y="475" type="line"/>
      <point x="49" y="475" type="line"/>
      <point x="53" y="636"/>
      <point x="133" y="714"/>
      <point x="205" y="714" type="curve" smooth="yes"/>
      <point x="268" y="714"/>
      <point x="318" y="661"/>
      <point x="318" y="555" type="curve" smooth="yes"/>
      <point x="318" y="452"/>
      <point x="261" y="325"/>
      <point x="118" y="284" type="curve"/>
      <point x="118" y="248"/>
      <point x="119" y="157"/>
      <point x="118" y="133" type="curve"/>
      <point x="154" y="135" type="line"/>
      <point x="150" y="182"/>
      <point x="148" y="243"/>
      <point x="148" y="279" type="curve"/>
      <point x="311" y="340"/>
      <point x="387" y="473"/>
      <point x="385" y="571" type="curve" smooth="yes"/>
      <point x="383" y="679"/>
      <point x="305" y="732"/>
      <point x="206" y="732" type="curve" smooth="yes"/>
      <point x="147" y="732"/>
      <point x="82" y="714"/>
    </contour>
    <contour>
      <point x="185" y="-2" type="curve"/>
      <point x="165" y="43"/>
      <point x="165" y="72"/>
      <point x="184" y="96" type="curve"/>
      <point x="141" y="77"/>
      <point x="110" y="78"/>
      <point x="86" y="98" type="curve"/>
      <point x="107" y="57"/>
      <point x="108" y="27"/>
      <point x="87" y="0" type="curve"/>
      <point x="130" y="19"/>
      <point x="160" y="19"/>
    </contour>
  </outline>
</glyph>
<glyph name="at" format="2">
  <advance width="851"/>
  <unicode hex="0040"/>
  <note>
at
</note>
  <outline>
    <contour>
      <point x="345" y="-210" type="curve" smooth="yes"/>
      <point x="492" y="-210"/>
      <point x="657" y="-128"/>
      <point x="794" y="27" type="curve"/>
      <point x="784" y="37" type="line"/>
      <point x="669" y="-90"/>
      <point x="513" y="-143"/>
      <point x="384" y="-143" type="curve" smooth="yes"/>
      <point x="215" y="-143"/>
      <point x="85" y="-43"/>
      <point x="85" y="178" type="curve" smooth="yes"/>
      <point x="85" y="390"/>
      <point x="321" y="621"/>
      <point x="526" y="621" type="curve" smooth="yes"/>
      <point x="715" y="621"/>
      <point x="780" y="468"/>
      <point x="774" y="338" type="curve" smooth="yes"/>
      <point x="767" y="184"/>
      <point x="672" y="79"/>
      <point x="580" y="71" type="curve" smooth="yes"/>
      <point x="535" y="67"/>
      <point x="516" y="106"/>
      <point x="520" y="173" type="curve" smooth="yes"/>
      <point x="526" y="279"/>
      <point x="560" y="411"/>
      <point x="599" y="454" type="curve"/>
      <point x="603" y="474"/>
      <point x="588" y="497"/>
      <point x="577" y="505" type="curve"/>
      <point x="403" y="494"/>
      <point x="215" y="348"/>
      <point x="215" y="170" type="curve" smooth="yes"/>
      <point x="215" y="121"/>
      <point x="234" y="51"/>
      <point x="310" y="-4" type="curve"/>
      <point x="353" y="28"/>
      <point x="418" y="100"/>
      <point x="453" y="144" type="curve"/>
      <point x="458" y="143" type="line"/>
      <point x="453" y="90"/>
      <point x="465" y="35"/>
      <point x="504" y="-7" type="curve"/>
      <point x="580" y="12"/>
      <point x="791" y="100"/>
      <point x="811" y="364" type="curve" smooth="yes"/>
      <point x="824" y="539"/>
      <point x="730" y="679"/>
      <point x="568" y="689" type="curve" smooth="yes"/>
      <point x="418" y="698"/>
      <point x="42" y="445"/>
      <point x="35" y="136" type="curve" smooth="yes"/>
      <point x="30" y="-99"/>
      <point x="174" y="-210"/>
    </contour>
    <contour>
      <point x="349" y="69" type="curve"/>
      <point x="285" y="126"/>
      <point x="262" y="181"/>
      <point x="262" y="230" type="curve" smooth="yes"/>
      <point x="262" y="330"/>
      <point x="372" y="415"/>
      <point x="498" y="437" type="curve"/>
      <point x="502" y="434" type="line"/>
      <point x="479" y="298"/>
      <point x="466" y="150"/>
    </contour>
  </outline>
</glyph>
<glyph name="A" format="2">
  <advance width="662"/>
  <unicode hex="0041"/>
  <anchor x="338" y="0" name="bottom"/>
  <anchor x="624" y="10" name="ogonek"/>
  <anchor x="338" y="722" name="top"/>
  <outline>
    <contour>
      <point x="553" y="0" type="curve"/>
      <point x="652" y="0" type="line"/>
      <point x="340" y="673" type="line" smooth="yes"/>
      <point x="333" y="688"/>
      <point x="325" y="706"/>
      <point x="322" y="722" type="curve"/>
      <point x="119" y="722" type="line"/>
      <point x="119" y="716" type="line"/>
      <point x="161" y="716" type="line" smooth="yes"/>
      <point x="236" y="716"/>
      <point x="258" y="695"/>
      <point x="277" y="654" type="curve" smooth="yes"/>
      <point x="318" y="565" type="line"/>
      <point x="114" y="460"/>
      <point x="3" y="227"/>
      <point x="52" y="-12" type="curve"/>
      <point x="56" y="-13" type="line"/>
      <point x="176" y="109"/>
      <point x="296" y="234"/>
      <point x="416" y="354" type="curve"/>
      <point x="540" y="84" type="line" smooth="yes"/>
      <point x="554" y="54"/>
      <point x="563" y="22"/>
    </contour>
    <contour>
      <point x="119" y="108" type="curve"/>
      <point x="81" y="298"/>
      <point x="175" y="469"/>
      <point x="327" y="547" type="curve"/>
      <point x="400" y="388" type="line"/>
      <point x="328" y="290"/>
      <point x="230" y="196"/>
    </contour>
  </outline>
</glyph>
<glyph name="B" format="2">
  <advance width="597"/>
  <unicode hex="0042"/>
  <anchor x="300" y="0" name="bottom"/>
  <anchor x="300" y="722" name="top"/>
  <outline>
    <contour>
      <point x="82" y="0" type="curve"/>
      <point x="118" y="-1"/>
      <point x="157" y="-1"/>
      <point x="196" y="2" type="curve" smooth="yes"/>
      <point x="379" y="16"/>
      <point x="567" y="80"/>
      <point x="567" y="253" type="curve" smooth="yes"/>
      <point x="567" y="384"/>
      <point x="455" y="469"/>
      <point x="282" y="493" type="curve"/>
      <point x="359" y="522"/>
      <point x="438" y="581"/>
      <point x="438" y="652" type="curve" smooth="yes"/>
      <point x="438" y="705"/>
      <point x="389" y="731"/>
      <point x="327" y="731" type="curve" smooth="yes"/>
      <point x="274" y="731"/>
      <point x="211" y="712"/>
      <point x="162" y="676" type="curve"/>
      <point x="162" y="722" type="line"/>
      <point x="20" y="722" type="line"/>
      <point x="20" y="716" type="line"/>
      <point x="40" y="716" type="line" smooth="yes"/>
      <point x="76" y="716"/>
      <point x="92" y="697"/>
      <point x="92" y="652" type="curve" smooth="yes"/>
      <point x="92" y="84" type="line" smooth="yes"/>
      <point x="92" y="40"/>
      <point x="90" y="24"/>
    </contour>
    <contour>
      <point x="162" y="24" type="curve"/>
      <point x="162" y="654" type="line"/>
      <point x="200" y="682"/>
      <point x="243" y="696"/>
      <point x="280" y="696" type="curve" smooth="yes"/>
      <point x="327" y="696"/>
      <point x="363" y="673"/>
      <point x="363" y="625" type="curve" smooth="yes"/>
      <point x="363" y="568"/>
      <point x="310" y="507"/>
      <point x="193" y="484" type="curve"/>
      <point x="193" y="478" type="line"/>
      <point x="354" y="478"/>
      <point x="486" y="407"/>
      <point x="486" y="253" type="curve" smooth="yes"/>
      <point x="486" y="92"/>
      <point x="345" y="29"/>
    </contour>
  </outline>
</glyph>
<glyph name="C" format="2">
  <advance width="731"/>
  <unicode hex="0043"/>
  <anchor x="369" y="0" name="bottom"/>
  <anchor x="369" y="722" name="top"/>
  <outline>
    <contour>
      <point x="437" y="-19" type="curve" smooth="yes"/>
      <point x="517" y="-15"/>
      <point x="592" y="1"/>
      <point x="663" y="48" type="curve"/>
      <point x="701" y="184" type="line"/>
      <point x="695" y="188" type="line"/>
      <point x="632" y="58"/>
      <point x="537" y="8"/>
      <point x="436" y="2" type="curve" smooth="yes"/>
      <point x="271" y="-8"/>
      <point x="136" y="124"/>
      <point x="126" y="359" type="curve" smooth="yes"/>
      <point x="117" y="580"/>
      <point x="257" y="715"/>
      <point x="437" y="715" type="curve" smooth="yes"/>
      <point x="560" y="715"/>
      <point x="637" y="651"/>
      <point x="668" y="550" type="curve"/>
      <point x="677" y="551" type="line"/>
      <point x="665" y="690" type="line"/>
      <point x="596" y="720"/>
      <point x="537" y="735"/>
      <point x="464" y="735" type="curve" smooth="yes"/>
      <point x="228" y="735"/>
      <point x="39" y="593"/>
      <point x="50" y="333" type="curve" smooth="yes"/>
      <point x="60" y="100"/>
      <point x="227" y="-29"/>
    </contour>
  </outline>
</glyph>
<glyph name="D" format="2">
  <advance width="723"/>
  <unicode hex="0044"/>
  <anchor x="327" y="0" name="bottom"/>
  <anchor x="327" y="361" name="center"/>
  <anchor x="327" y="722" name="top"/>
  <outline>
    <contour>
      <point x="87" y="0" type="curve"/>
      <point x="186" y="0" type="line" smooth="yes"/>
      <point x="523" y="0"/>
      <point x="669" y="165"/>
      <point x="668" y="383" type="curve" smooth="yes"/>
      <point x="667" y="589"/>
      <point x="533" y="730"/>
      <point x="266" y="725" type="curve" smooth="yes"/>
      <point x="210" y="724"/>
      <point x="180" y="722"/>
      <point x="107" y="722" type="curve" smooth="yes"/>
      <point x="25" y="722" type="line"/>
      <point x="25" y="716" type="line"/>
      <point x="45" y="716" type="line" smooth="yes"/>
      <point x="81" y="716"/>
      <point x="97" y="697"/>
      <point x="97" y="652" type="curve" smooth="yes"/>
      <point x="97" y="84" type="line" smooth="yes"/>
      <point x="97" y="40"/>
      <point x="95" y="24"/>
    </contour>
    <contour>
      <point x="167" y="24" type="curve"/>
      <point x="167" y="697" type="line"/>
      <point x="196" y="701"/>
      <point x="221" y="704"/>
      <point x="246" y="704" type="curve" smooth="yes"/>
      <point x="458" y="704"/>
      <point x="588" y="577"/>
      <point x="589" y="385" type="curve" smooth="yes"/>
      <point x="590" y="143"/>
      <point x="441" y="24"/>
    </contour>
  </outline>
</glyph>
<glyph name="E" format="2">
  <advance width="551"/>
  <unicode hex="0045"/>
  <anchor x="273" y="0" name="bottom"/>
  <anchor x="509" y="10" name="ogonek"/>
  <anchor x="273" y="722" name="top"/>
  <anchor x="-2" y="722" name="topleft"/>
  <outline>
    <contour>
      <point x="82" y="0" type="curve"/>
      <point x="473" y="0" type="line"/>
      <point x="521" y="162" type="line"/>
      <point x="514" y="165" type="line"/>
      <point x="456" y="45"/>
      <point x="361" y="24"/>
      <point x="162" y="24" type="curve"/>
      <point x="162" y="416" type="line"/>
      <point x="330" y="416" type="line" smooth="yes"/>
      <point x="415" y="416"/>
      <point x="445" y="405"/>
      <point x="457" y="366" type="curve"/>
      <point x="462" y="367" type="line"/>
      <point x="462" y="486" type="line"/>
      <point x="457" y="487" type="line"/>
      <point x="445" y="452"/>
      <point x="415" y="436"/>
      <point x="330" y="436" type="curve" smooth="yes"/>
      <point x="162" y="436" type="line"/>
      <point x="162" y="698" type="line"/>
      <point x="265" y="698" type="line" smooth="yes"/>
      <point x="373" y="698"/>
      <point x="405" y="690"/>
      <point x="464" y="587" type="curve"/>
      <point x="470" y="590" type="line"/>
      <point x="432" y="722" type="line"/>
      <point x="20" y="722" type="line"/>
      <point x="20" y="716" type="line"/>
      <point x="40" y="716" type="line" smooth="yes"/>
      <point x="76" y="716"/>
      <point x="92" y="697"/>
      <point x="92" y="652" type="curve" smooth="yes"/>
      <point x="92" y="84" type="line" smooth="yes"/>
      <point x="92" y="40"/>
      <point x="90" y="24"/>
    </contour>
  </outline>
</glyph>
<glyph name="F" format="2">
  <advance width="506"/>
  <unicode hex="0046"/>
  <anchor x="252" y="0" name="bottom"/>
  <anchor x="252" y="722" name="top"/>
  <outline>
    <contour>
      <point x="44" y="-130" type="curve"/>
      <point x="52" y="-134" type="line"/>
      <point x="80" y="-87"/>
      <point x="119" y="0"/>
      <point x="162" y="0" type="curve"/>
      <point x="162" y="416" type="line"/>
      <point x="330" y="416" type="line" smooth="yes"/>
      <point x="415" y="416"/>
      <point x="445" y="405"/>
      <point x="457" y="366" type="curve"/>
      <point x="462" y="367" type="line"/>
      <point x="462" y="486" type="line"/>
      <point x="457" y="487" type="line"/>
      <point x="445" y="452"/>
      <point x="415" y="436"/>
      <point x="330" y="436" type="curve" smooth="yes"/>
      <point x="162" y="436" type="line"/>
      <point x="162" y="698" type="line"/>
      <point x="265" y="698" type="line" smooth="yes"/>
      <point x="373" y="698"/>
      <point x="410" y="682"/>
      <point x="464" y="587" type="curve"/>
      <point x="471" y="590" type="line"/>
      <point x="432" y="722" type="line"/>
      <point x="20" y="722" type="line"/>
      <point x="20" y="716" type="line"/>
      <point x="40" y="716" type="line" smooth="yes"/>
      <point x="76" y="716"/>
      <point x="92" y="697"/>
      <point x="92" y="652" type="curve" smooth="yes"/>
      <point x="92" y="40" type="line" smooth="yes"/>
      <point x="92" y="-21"/>
      <point x="84" y="-61"/>
    </contour>
  </outline>
</glyph>
<glyph name="G" format="2">
  <advance width="750"/>
  <unicode hex="0047"/>
  <guideline x="685" y="354" angle="310.4401"/>
  <anchor x="383" y="0" name="bottom"/>
  <anchor x="383" y="722" name="top"/>
  <outline>
    <contour>
      <point x="405" y="-14" type="curve" smooth="yes"/>
      <point x="543" y="-14"/>
      <point x="621" y="31"/>
      <point x="700" y="101" type="curve"/>
      <point x="697" y="119"/>
      <point x="696" y="137"/>
      <point x="696" y="156" type="curve" smooth="yes"/>
      <point x="696" y="444" type="line"/>
      <point x="528" y="444" type="line"/>
      <point x="528" y="438" type="line"/>
      <point x="620" y="438"/>
      <point x="627" y="427"/>
      <point x="627" y="329" type="curve" smooth="yes"/>
      <point x="627" y="108" type="line"/>
      <point x="607" y="80"/>
      <point x="556" y="11"/>
      <point x="421" y="11" type="curve" smooth="yes"/>
      <point x="259" y="12"/>
      <point x="135" y="128"/>
      <point x="132" y="333" type="curve" smooth="yes"/>
      <point x="129" y="540"/>
      <point x="239" y="715"/>
      <point x="425" y="715" type="curve" smooth="yes"/>
      <point x="527" y="715"/>
      <point x="624" y="658"/>
      <point x="657" y="550" type="curve"/>
      <point x="666" y="551" type="line"/>
      <point x="654" y="690" type="line"/>
      <point x="587" y="719"/>
      <point x="513" y="735"/>
      <point x="439" y="735" type="curve" smooth="yes"/>
      <point x="208" y="735"/>
      <point x="48" y="585"/>
      <point x="50" y="348" type="curve" smooth="yes"/>
      <point x="52" y="131"/>
      <point x="202" y="-14"/>
    </contour>
  </outline>
</glyph>
<glyph name="H" format="2">
  <advance width="678"/>
  <unicode hex="0048"/>
  <anchor x="339" y="0" name="bottom"/>
  <anchor x="348" y="722" name="top"/>
  <outline>
    <contour>
      <point x="540" y="0" type="curve"/>
      <point x="628" y="0" type="line"/>
      <point x="622" y="20"/>
      <point x="620" y="36"/>
      <point x="620" y="76" type="curve" smooth="yes"/>
      <point x="620" y="608" type="line" smooth="yes"/>
      <point x="620" y="668"/>
      <point x="621" y="692"/>
      <point x="623" y="722" type="curve"/>
      <point x="478" y="722" type="line"/>
      <point x="478" y="716" type="line"/>
      <point x="498" y="716" type="line" smooth="yes"/>
      <point x="534" y="716"/>
      <point x="550" y="697"/>
      <point x="550" y="652" type="curve" smooth="yes"/>
      <point x="550" y="84" type="line" smooth="yes"/>
      <point x="550" y="40"/>
      <point x="548" y="24"/>
    </contour>
    <contour>
      <point x="82" y="0" type="curve"/>
      <point x="170" y="0" type="line"/>
      <point x="164" y="20"/>
      <point x="162" y="36"/>
      <point x="162" y="76" type="curve" smooth="yes"/>
      <point x="162" y="608" type="line" smooth="yes"/>
      <point x="162" y="668"/>
      <point x="163" y="692"/>
      <point x="165" y="722" type="curve"/>
      <point x="20" y="722" type="line"/>
      <point x="20" y="716" type="line"/>
      <point x="40" y="716" type="line" smooth="yes"/>
      <point x="76" y="716"/>
      <point x="92" y="697"/>
      <point x="92" y="652" type="curve" smooth="yes"/>
      <point x="92" y="84" type="line" smooth="yes"/>
      <point x="92" y="40"/>
      <point x="90" y="24"/>
    </contour>
    <contour>
      <point x="142" y="416" type="line"/>
      <point x="570" y="416" type="line"/>
      <point x="570" y="440" type="line"/>
      <point x="142" y="440" type="line"/>
    </contour>
  </outline>
</glyph>
<glyph name="J" format="2">
  <advance width="233"/>
  <unicode hex="004A"/>
  <anchor x="129" y="0" name="bottom"/>
  <anchor x="129" y="722" name="top"/>
  <outline>
    <contour>
      <point x="-55" y="-161" type="curve"/>
      <point x="-51" y="-169" type="line"/>
      <point x="60" y="-119"/>
      <point x="173" y="-63"/>
      <point x="173" y="146" type="curve" smooth="yes"/>
      <point x="173" y="722" type="line"/>
      <point x="31" y="722" type="line"/>
      <point x="31" y="716" type="line"/>
      <point x="51" y="716" type="line" smooth="yes"/>
      <point x="87" y="716"/>
      <point x="103" y="697"/>
      <point x="103" y="652" type="curve" smooth="yes"/>
      <point x="103" y="146" type="line" smooth="yes"/>
      <point x="103" y="-22"/>
      <point x="83" y="-98"/>
    </contour>
  </outline>
</glyph>
<glyph name="K" format="2">
  <advance width="618"/>
  <unicode hex="004B"/>
  <anchor x="308" y="0" name="bottom"/>
  <anchor x="308" y="722" name="top"/>
  <outline>
    <contour>
      <point x="685" y="-129" type="curve"/>
      <point x="688" y="-120" type="line"/>
      <point x="571" y="-77"/>
      <point x="557" y="96"/>
      <point x="504" y="229" type="curve" smooth="yes"/>
      <point x="465" y="326"/>
      <point x="411" y="411"/>
      <point x="221" y="397" type="curve"/>
      <point x="430" y="645" type="line" smooth="yes"/>
      <point x="477" y="700"/>
      <point x="500" y="714"/>
      <point x="572" y="717" type="curve"/>
      <point x="572" y="722" type="line"/>
      <point x="430" y="722" type="line"/>
      <point x="411" y="687"/>
      <point x="294" y="553"/>
      <point x="172" y="409" type="curve"/>
      <point x="172" y="722" type="line"/>
      <point x="30" y="722" type="line"/>
      <point x="30" y="716" type="line"/>
      <point x="50" y="716" type="line" smooth="yes"/>
      <point x="86" y="716"/>
      <point x="102" y="697"/>
      <point x="102" y="652" type="curve" smooth="yes"/>
      <point x="102" y="84" type="line" smooth="yes"/>
      <point x="102" y="40"/>
      <point x="100" y="24"/>
      <point x="92" y="0" type="curve"/>
      <point x="182" y="0" type="line"/>
      <point x="174" y="24"/>
      <point x="172" y="40"/>
      <point x="172" y="84" type="curve" smooth="yes"/>
      <point x="172" y="376" type="line"/>
      <point x="194" y="379"/>
      <point x="220" y="381"/>
      <point x="236" y="381" type="curve" smooth="yes"/>
      <point x="357" y="381"/>
      <point x="411" y="283"/>
      <point x="463" y="138" type="curve" smooth="yes"/>
      <point x="507" y="15"/>
      <point x="536" y="-71"/>
    </contour>
  </outline>
</glyph>
<glyph name="L" format="2">
  <advance width="544"/>
  <unicode hex="004C"/>
  <anchor x="278" y="0" name="bottom"/>
  <anchor x="278" y="361" name="center"/>
  <anchor x="278" y="722" name="top"/>
  <anchor x="352" y="500" name="topright"/>
  <outline>
    <contour>
      <point x="93" y="0" type="curve"/>
      <point x="488" y="0" type="line"/>
      <point x="519" y="185" type="line"/>
      <point x="511" y="187" type="line"/>
      <point x="463" y="47"/>
      <point x="413" y="26"/>
      <point x="172" y="24" type="curve"/>
      <point x="172" y="722" type="line"/>
      <point x="30" y="722" type="line"/>
      <point x="30" y="715" type="line"/>
      <point x="50" y="715" type="line" smooth="yes"/>
      <point x="86" y="715"/>
      <point x="102" y="695"/>
      <point x="102" y="645" type="curve" smooth="yes"/>
      <point x="102" y="109" type="line" smooth="yes"/>
      <point x="102" y="52"/>
      <point x="100" y="31"/>
    </contour>
  </outline>
</glyph>
<glyph name="M" format="2">
  <advance width="897"/>
  <unicode hex="004D"/>
  <anchor x="450" y="0" name="bottom"/>
  <anchor x="450" y="722" name="top"/>
  <outline>
    <contour>
      <point x="40" y="0" type="curve"/>
      <point x="123" y="0" type="line"/>
      <point x="102" y="32"/>
      <point x="96" y="54"/>
      <point x="104" y="110" type="curve" smooth="yes"/>
      <point x="173" y="624" type="line"/>
      <point x="429" y="-10" type="line"/>
      <point x="433" y="-10" type="line"/>
      <point x="670" y="590" type="line"/>
      <point x="753" y="108" type="line" smooth="yes"/>
      <point x="762" y="54"/>
      <point x="757" y="36"/>
      <point x="743" y="0" type="curve"/>
      <point x="867" y="0" type="line"/>
      <point x="850" y="26"/>
      <point x="832" y="55"/>
      <point x="823" y="110" type="curve" smooth="yes"/>
      <point x="737" y="645" type="line" smooth="yes"/>
      <point x="729" y="694"/>
      <point x="755" y="715"/>
      <point x="802" y="715" type="curve" smooth="yes"/>
      <point x="828" y="715" type="line"/>
      <point x="828" y="722" type="line"/>
      <point x="698" y="722" type="line"/>
      <point x="454" y="121" type="line"/>
      <point x="210" y="722" type="line"/>
      <point x="56" y="722" type="line"/>
      <point x="56" y="715" type="line"/>
      <point x="82" y="715" type="line" smooth="yes"/>
      <point x="129" y="715"/>
      <point x="137" y="692"/>
      <point x="158" y="647" type="curve" smooth="yes"/>
      <point x="149" y="666" type="line"/>
      <point x="78" y="110" type="line" smooth="yes"/>
      <point x="71" y="54"/>
      <point x="57" y="26"/>
    </contour>
  </outline>
</glyph>
<glyph name="N" format="2">
  <advance width="765"/>
  <unicode hex="004E"/>
  <anchor x="395" y="0" name="bottom"/>
  <anchor x="395" y="722" name="top"/>
  <outline>
    <contour>
      <point x="126" y="0" type="curve"/>
      <point x="259" y="0" type="line"/>
      <point x="259" y="7" type="line"/>
      <point x="198" y="18"/>
      <point x="189" y="64"/>
      <point x="182" y="113" type="curve" smooth="yes"/>
      <point x="169" y="198"/>
      <point x="166" y="358"/>
      <point x="162" y="629" type="curve"/>
      <point x="692" y="-5" type="line"/>
      <point x="709" y="0" type="line"/>
      <point x="709" y="588" type="line" smooth="yes"/>
      <point x="709" y="658"/>
      <point x="710" y="684"/>
      <point x="715" y="722" type="curve"/>
      <point x="585" y="722" type="line"/>
      <point x="585" y="715" type="line"/>
      <point x="616" y="715"/>
      <point x="638" y="713"/>
      <point x="653" y="676" type="curve" smooth="yes"/>
      <point x="677" y="618"/>
      <point x="685" y="474"/>
      <point x="685" y="114" type="curve"/>
      <point x="177" y="722" type="line"/>
      <point x="10" y="722" type="line"/>
      <point x="10" y="715" type="line"/>
      <point x="80" y="715"/>
      <point x="98" y="705"/>
      <point x="136" y="660" type="curve"/>
      <point x="136" y="84" type="line" smooth="yes"/>
      <point x="136" y="40"/>
      <point x="134" y="24"/>
    </contour>
  </outline>
</glyph>
<glyph name="O" format="2">
  <advance width="855"/>
  <unicode hex="004F"/>
  <anchor x="428" y="0" name="bottom"/>
  <anchor x="428" y="361" name="center"/>
  <anchor x="791" y="10" name="ogonek"/>
  <anchor x="428" y="722" name="top"/>
  <anchor x="-7" y="722" name="topleft"/>
  <anchor x="862" y="722" name="topright"/>
  <outline>
    <contour>
      <point x="429" y="-17" type="curve" smooth="yes"/>
      <point x="679" y="-17"/>
      <point x="805" y="171"/>
      <point x="805" y="360" type="curve" smooth="yes"/>
      <point x="805" y="549"/>
      <point x="679" y="738"/>
      <point x="428" y="738" type="curve" smooth="yes"/>
      <point x="241" y="738"/>
      <point x="50" y="605"/>
      <point x="50" y="360" type="curve" smooth="yes"/>
      <point x="50" y="109"/>
      <point x="231" y="-17"/>
    </contour>
    <contour>
      <point x="437" y="6" type="curve" smooth="yes"/>
      <point x="227" y="6"/>
      <point x="127" y="190"/>
      <point x="127" y="370" type="curve" smooth="yes"/>
      <point x="127" y="541"/>
      <point x="216" y="712"/>
      <point x="422" y="712" type="curve" smooth="yes"/>
      <point x="622" y="712"/>
      <point x="726" y="526"/>
      <point x="726" y="345" type="curve" smooth="yes"/>
      <point x="726" y="173"/>
      <point x="632" y="6"/>
    </contour>
  </outline>
</glyph>
<glyph name="P" format="2">
  <advance width="595"/>
  <unicode hex="0050"/>
  <anchor x="289" y="0" name="bottom"/>
  <anchor x="289" y="722" name="top"/>
  <outline>
    <contour>
      <point x="92" y="0" type="curve"/>
      <point x="192" y="0" type="line"/>
      <point x="176" y="22"/>
      <point x="172" y="36"/>
      <point x="172" y="76" type="curve" smooth="yes"/>
      <point x="172" y="311" type="line"/>
      <point x="206" y="303"/>
      <point x="240" y="299"/>
      <point x="272" y="299" type="curve" smooth="yes"/>
      <point x="420" y="299"/>
      <point x="558" y="389"/>
      <point x="558" y="548" type="curve" smooth="yes"/>
      <point x="558" y="642"/>
      <point x="481" y="728"/>
      <point x="352" y="728" type="curve" smooth="yes"/>
      <point x="300" y="728"/>
      <point x="237" y="712"/>
      <point x="172" y="671" type="curve"/>
      <point x="172" y="722" type="line"/>
      <point x="30" y="722" type="line"/>
      <point x="30" y="716" type="line"/>
      <point x="50" y="716" type="line" smooth="yes"/>
      <point x="86" y="716"/>
      <point x="102" y="697"/>
      <point x="102" y="652" type="curve" smooth="yes"/>
      <point x="102" y="84" type="line" smooth="yes"/>
      <point x="102" y="40"/>
      <point x="100" y="24"/>
    </contour>
    <contour>
      <point x="172" y="334" type="curve"/>
      <point x="172" y="653" type="line"/>
      <point x="224" y="682"/>
      <point x="270" y="694"/>
      <point x="309" y="694" type="curve" smooth="yes"/>
      <point x="421" y="694"/>
      <point x="477" y="612"/>
      <point x="477" y="528" type="curve" smooth="yes"/>
      <point x="477" y="401"/>
      <point x="374" y="324"/>
      <point x="253" y="324" type="curve" smooth="yes"/>
      <point x="227" y="324"/>
      <point x="200" y="328"/>
    </contour>
  </outline>
</glyph>
<glyph name="Q" format="2">
  <advance width="854"/>
  <unicode hex="0051"/>
  <anchor x="436" y="0" name="bottom"/>
  <anchor x="436" y="722" name="top"/>
  <outline>
    <contour>
      <point x="1056" y="-252" type="curve" smooth="yes"/>
      <point x="1206" y="-252"/>
      <point x="1329" y="-209"/>
      <point x="1444" y="-119" type="curve"/>
      <point x="1437" y="-111" type="line"/>
      <point x="1327" y="-192"/>
      <point x="1226" y="-225"/>
      <point x="1117" y="-225" type="curve" smooth="yes"/>
      <point x="918" y="-225"/>
      <point x="660" y="-128"/>
      <point x="421" y="-17" type="curve"/>
      <point x="635" y="-27"/>
      <point x="821" y="108"/>
      <point x="821" y="360" type="curve" smooth="yes"/>
      <point x="821" y="612"/>
      <point x="634" y="738"/>
      <point x="436" y="738" type="curve" smooth="yes"/>
      <point x="208" y="738"/>
      <point x="54" y="573"/>
      <point x="54" y="352" type="curve" smooth="yes"/>
      <point x="54" y="110"/>
      <point x="237" y="3"/>
      <point x="387" y="-65" type="curve" smooth="yes"/>
      <point x="637" y="-179"/>
      <point x="860" y="-252"/>
    </contour>
    <contour>
      <point x="445" y="6" type="curve" smooth="yes"/>
      <point x="249" y="6"/>
      <point x="123" y="200"/>
      <point x="123" y="376" type="curve" smooth="yes"/>
      <point x="123" y="546"/>
      <point x="221" y="710"/>
      <point x="431" y="710" type="curve" smooth="yes"/>
      <point x="636" y="710"/>
      <point x="748" y="526"/>
      <point x="748" y="346" type="curve" smooth="yes"/>
      <point x="748" y="175"/>
      <point x="646" y="6"/>
    </contour>
  </outline>
</glyph>
<glyph name="R" format="2">
  <advance width="642"/>
  <unicode hex="0052"/>
  <anchor x="304" y="0" name="bottom"/>
  <anchor x="304" y="722" name="top"/>
  <outline>
    <contour>
      <point x="722" y="-147" type="curve"/>
      <point x="724" y="-140" type="line"/>
      <point x="608" y="-97"/>
      <point x="565" y="43"/>
      <point x="498" y="158" type="curve" smooth="yes"/>
      <point x="451" y="238"/>
      <point x="393" y="306"/>
      <point x="284" y="324" type="curve"/>
      <point x="284" y="322" type="line"/>
      <point x="460" y="331"/>
      <point x="544" y="442"/>
      <point x="543" y="546" type="curve" smooth="yes"/>
      <point x="542" y="661"/>
      <point x="458" y="725"/>
      <point x="351" y="725" type="curve" smooth="yes"/>
      <point x="295" y="725"/>
      <point x="233" y="708"/>
      <point x="172" y="671" type="curve"/>
      <point x="172" y="722" type="line"/>
      <point x="30" y="722" type="line"/>
      <point x="30" y="716" type="line"/>
      <point x="50" y="716" type="line" smooth="yes"/>
      <point x="86" y="716"/>
      <point x="102" y="697"/>
      <point x="102" y="652" type="curve" smooth="yes"/>
      <point x="102" y="84" type="line" smooth="yes"/>
      <point x="102" y="40"/>
      <point x="100" y="24"/>
      <point x="92" y="0" type="curve"/>
      <point x="182" y="0" type="line"/>
      <point x="174" y="24"/>
      <point x="172" y="40"/>
      <point x="172" y="84" type="curve" smooth="yes"/>
      <point x="172" y="331" type="line"/>
      <point x="257" y="310"/>
      <point x="334" y="302"/>
      <point x="438" y="128" type="curve" smooth="yes"/>
      <point x="523" y="-14"/>
      <point x="533" y="-90"/>
    </contour>
    <contour>
      <point x="466" y="528" type="curve" smooth="yes"/>
      <point x="466" y="402"/>
      <point x="367" y="343"/>
      <point x="260" y="343" type="curve" smooth="yes"/>
      <point x="231" y="343"/>
      <point x="199" y="348"/>
      <point x="172" y="356" type="curve"/>
      <point x="172" y="653" type="line"/>
      <point x="224" y="682"/>
      <point x="270" y="694"/>
      <point x="309" y="694" type="curve" smooth="yes"/>
      <point x="410" y="694"/>
      <point x="466" y="612"/>
    </contour>
  </outline>
</glyph>
<glyph name="S" format="2">
  <advance width="575"/>
  <unicode hex="0053"/>
  <anchor x="286" y="0" name="bottom"/>
  <anchor x="286" y="722" name="top"/>
  <outline>
    <contour>
      <point x="40" y="96" type="line"/>
      <point x="85" y="30"/>
      <point x="189" y="-16"/>
      <point x="287" y="-16" type="curve" smooth="yes"/>
      <point x="413" y="-16"/>
      <point x="537" y="52"/>
      <point x="535" y="190" type="curve" smooth="yes"/>
      <point x="533" y="301"/>
      <point x="428" y="356"/>
      <point x="322" y="403" type="curve" smooth="yes"/>
      <point x="210" y="453"/>
      <point x="102" y="488"/>
      <point x="102" y="597" type="curve" smooth="yes"/>
      <point x="102" y="658"/>
      <point x="153" y="704"/>
      <point x="240" y="705" type="curve" smooth="yes"/>
      <point x="320" y="706"/>
      <point x="379" y="676"/>
      <point x="423" y="611" type="curve" smooth="yes"/>
      <point x="447" y="574"/>
      <point x="466" y="527"/>
      <point x="481" y="467" type="curve"/>
      <point x="489" y="469" type="line"/>
      <point x="451" y="682" type="line"/>
      <point x="393" y="713"/>
      <point x="327" y="729"/>
      <point x="256" y="729" type="curve" smooth="yes"/>
      <point x="155" y="729"/>
      <point x="62" y="677"/>
      <point x="62" y="570" type="curve" smooth="yes"/>
      <point x="62" y="429"/>
      <point x="170" y="390"/>
      <point x="278" y="343" type="curve" smooth="yes"/>
      <point x="380" y="299"/>
      <point x="479" y="252"/>
      <point x="475" y="140" type="curve" smooth="yes"/>
      <point x="472" y="52"/>
      <point x="399" y="9"/>
      <point x="313" y="9" type="curve" smooth="yes"/>
      <point x="217" y="9"/>
      <point x="148" y="53"/>
      <point x="108" y="121" type="curve" smooth="yes"/>
      <point x="80" y="168"/>
      <point x="63" y="227"/>
      <point x="63" y="290" type="curve"/>
      <point x="54" y="291" type="line"/>
    </contour>
  </outline>
</glyph>
<glyph name="T" format="2">
  <advance width="645"/>
  <unicode hex="0054"/>
  <anchor x="323" y="0" name="bottom"/>
  <anchor x="323" y="361" name="center"/>
  <anchor x="323" y="722" name="top"/>
  <outline>
    <contour>
      <point x="278" y="0" type="curve"/>
      <point x="368" y="0" type="line"/>
      <point x="360" y="24"/>
      <point x="358" y="40"/>
      <point x="358" y="84" type="curve" smooth="yes"/>
      <point x="358" y="698" type="line"/>
      <point x="530" y="698"/>
      <point x="576" y="678"/>
      <point x="605" y="568" type="curve"/>
      <point x="613" y="570" type="line"/>
      <point x="598" y="722" type="line"/>
      <point x="48" y="722" type="line"/>
      <point x="32" y="570" type="line"/>
      <point x="40" y="568" type="line"/>
      <point x="73" y="678"/>
      <point x="113" y="698"/>
      <point x="288" y="698" type="curve"/>
      <point x="288" y="84" type="line" smooth="yes"/>
      <point x="288" y="40"/>
      <point x="286" y="24"/>
    </contour>
  </outline>
</glyph>
<glyph name="V" format="2">
  <advance width="694"/>
  <unicode hex="0056"/>
  <anchor x="335" y="0" name="bottom"/>
  <anchor x="335" y="722" name="top"/>
  <outline>
    <contour>
      <point x="91" y="640" type="curve" smooth="yes"/>
      <point x="366" y="-12" type="line"/>
      <point x="371" y="-12" type="line"/>
      <point x="621" y="653" type="line" smooth="yes"/>
      <point x="637" y="695"/>
      <point x="640" y="715"/>
      <point x="668" y="715" type="curve" smooth="yes"/>
      <point x="684" y="715" type="line"/>
      <point x="684" y="722" type="line"/>
      <point x="580" y="722" type="line"/>
      <point x="593" y="692"/>
      <point x="591" y="659"/>
      <point x="570" y="602" type="curve" smooth="yes"/>
      <point x="455" y="295" type="line" smooth="yes"/>
      <point x="402" y="153"/>
      <point x="390" y="128"/>
      <point x="386" y="114" type="curve"/>
      <point x="379" y="136"/>
      <point x="368" y="166"/>
      <point x="358" y="190" type="curve" smooth="yes"/>
      <point x="171" y="635" type="line" smooth="yes"/>
      <point x="154" y="676"/>
      <point x="147" y="699"/>
      <point x="146" y="722" type="curve"/>
      <point x="10" y="722" type="line"/>
      <point x="10" y="715" type="line"/>
      <point x="30" y="715" type="line" smooth="yes"/>
      <point x="66" y="715"/>
      <point x="70" y="689"/>
    </contour>
  </outline>
</glyph>
<glyph name="W" format="2">
  <advance width="1022"/>
  <unicode hex="0057"/>
  <anchor x="533" y="0" name="bottom"/>
  <anchor x="529" y="722" name="top"/>
  <outline>
    <contour>
      <point x="98" y="639" type="curve" smooth="yes"/>
      <point x="294" y="-10" type="line"/>
      <point x="299" y="-10" type="line"/>
      <point x="507" y="590" type="line"/>
      <point x="731" y="-12" type="line"/>
      <point x="736" y="-12" type="line"/>
      <point x="942" y="653" type="line" smooth="yes"/>
      <point x="955" y="696"/>
      <point x="961" y="716"/>
      <point x="994" y="716" type="curve" smooth="yes"/>
      <point x="1012" y="716" type="line"/>
      <point x="1012" y="722" type="line"/>
      <point x="914" y="722" type="line"/>
      <point x="921" y="700"/>
      <point x="922" y="670"/>
      <point x="900" y="602" type="curve" smooth="yes"/>
      <point x="751" y="133" type="line"/>
      <point x="532" y="722" type="line"/>
      <point x="400" y="722" type="line"/>
      <point x="400" y="715" type="line"/>
      <point x="422" y="715" type="line" smooth="yes"/>
      <point x="462" y="715"/>
      <point x="466" y="690"/>
      <point x="487" y="640" type="curve" smooth="yes"/>
      <point x="494" y="623" type="line"/>
      <point x="322" y="136" type="line"/>
      <point x="153" y="722" type="line"/>
      <point x="20" y="722" type="line"/>
      <point x="20" y="716" type="line"/>
      <point x="40" y="716" type="line" smooth="yes"/>
      <point x="76" y="716"/>
      <point x="82" y="691"/>
    </contour>
  </outline>
</glyph>
<glyph name="X" format="2">
  <advance width="676"/>
  <unicode hex="0058"/>
  <anchor x="309" y="0" name="bottom"/>
  <anchor x="309" y="722" name="top"/>
  <outline>
    <contour>
      <point x="688" y="13" type="curve"/>
      <point x="686" y="20" type="line"/>
      <point x="622" y="1"/>
      <point x="588" y="59"/>
      <point x="567" y="93" type="curve" smooth="yes"/>
      <point x="212" y="673" type="line" smooth="yes"/>
      <point x="202" y="689"/>
      <point x="191" y="706"/>
      <point x="188" y="722" type="curve"/>
      <point x="44" y="722" type="line"/>
      <point x="44" y="715" type="line"/>
      <point x="68" y="715" type="line" smooth="yes"/>
      <point x="111" y="715"/>
      <point x="115" y="690"/>
      <point x="141" y="648" type="curve" smooth="yes"/>
      <point x="510" y="54" type="line" smooth="yes"/>
      <point x="536" y="12"/>
      <point x="560" y="-11"/>
      <point x="600" y="-11" type="curve" smooth="yes"/>
      <point x="623" y="-11"/>
      <point x="651" y="-3"/>
    </contour>
    <contour>
      <point x="12" y="5" type="curve"/>
      <point x="12" y="0" type="line"/>
      <point x="170" y="0" type="line"/>
      <point x="154" y="25"/>
      <point x="155" y="54"/>
      <point x="179" y="91" type="curve" smooth="yes"/>
      <point x="371" y="389" type="line"/>
      <point x="360" y="421" type="line"/>
      <point x="129" y="80" type="line" smooth="yes"/>
      <point x="94" y="29"/>
      <point x="67" y="9"/>
    </contour>
    <contour>
      <point x="378" y="389" type="line"/>
      <point x="523" y="615" type="line" smooth="yes"/>
      <point x="569" y="687"/>
      <point x="595" y="713"/>
      <point x="649" y="717" type="curve"/>
      <point x="649" y="722" type="line"/>
      <point x="515" y="722" type="line"/>
      <point x="517" y="691"/>
      <point x="510" y="652"/>
      <point x="478" y="601" type="curve" smooth="yes"/>
      <point x="362" y="417" type="line"/>
    </contour>
  </outline>
</glyph>
<glyph name="Y" format="2">
  <advance width="606"/>
  <unicode hex="0059"/>
  <anchor x="341" y="0" name="bottom"/>
  <anchor x="311" y="722" name="top"/>
  <anchor x="36" y="722" name="topleft"/>
  <outline>
    <contour>
      <point x="228" y="-130" type="curve"/>
      <point x="237" y="-134" type="line"/>
      <point x="264" y="-86"/>
      <point x="303" y="0"/>
      <point x="346" y="0" type="curve"/>
      <point x="346" y="378" type="line"/>
      <point x="488" y="615" type="line" smooth="yes"/>
      <point x="532" y="688"/>
      <point x="562" y="711"/>
      <point x="596" y="715" type="curve"/>
      <point x="596" y="722" type="line"/>
      <point x="466" y="722" type="line"/>
      <point x="479" y="681"/>
      <point x="472" y="650"/>
      <point x="441" y="598" type="curve" smooth="yes"/>
      <point x="331" y="416" type="line"/>
      <point x="180" y="670" type="line" smooth="yes"/>
      <point x="170" y="686"/>
      <point x="160" y="706"/>
      <point x="157" y="722" type="curve"/>
      <point x="10" y="722" type="line"/>
      <point x="10" y="715" type="line"/>
      <point x="34" y="715" type="line" smooth="yes"/>
      <point x="77" y="715"/>
      <point x="82" y="690"/>
      <point x="107" y="648" type="curve" smooth="yes"/>
      <point x="276" y="366" type="line"/>
      <point x="276" y="10" type="line" smooth="yes"/>
      <point x="276" y="-31"/>
      <point x="268" y="-61"/>
    </contour>
  </outline>
</glyph>
<glyph name="Z" format="2">
  <advance width="669"/>
  <unicode hex="005A"/>
  <anchor x="335" y="0" name="bottom"/>
  <anchor x="335" y="361" name="center"/>
  <anchor x="335" y="722" name="top"/>
  <outline>
    <contour>
      <point x="31" y="-17" type="line"/>
      <point x="98" y="53"/>
      <point x="160" y="93"/>
      <point x="265" y="86" type="curve" smooth="yes"/>
      <point x="394" y="78"/>
      <point x="489" y="-57"/>
      <point x="606" y="6" type="curve"/>
      <point x="606" y="60"/>
      <point x="637" y="142"/>
      <point x="637" y="190" type="curve"/>
      <point x="629" y="191" type="line"/>
      <point x="625" y="142"/>
      <point x="603" y="64"/>
      <point x="531" y="64" type="curve" smooth="yes"/>
      <point x="447" y="64"/>
      <point x="372" y="127"/>
      <point x="269" y="127" type="curve" smooth="yes"/>
      <point x="221" y="127"/>
      <point x="166" y="116"/>
      <point x="104" y="74" type="curve"/>
      <point x="100" y="78" type="line"/>
      <point x="649" y="732" type="line"/>
      <point x="640" y="739" type="line"/>
      <point x="598" y="721"/>
      <point x="553" y="722"/>
      <point x="416" y="722" type="curve" smooth="yes"/>
      <point x="263" y="722"/>
      <point x="183" y="718"/>
      <point x="124" y="748" type="curve"/>
      <point x="52" y="530" type="line"/>
      <point x="60" y="527" type="line"/>
      <point x="110" y="646"/>
      <point x="131" y="658"/>
      <point x="253" y="658" type="curve" smooth="yes"/>
      <point x="527" y="658" type="line"/>
      <point x="10" y="-3" type="line"/>
    </contour>
  </outline>
</glyph>
<glyph name="bracketleft" format="2">
  <advance width="413"/>
  <unicode hex="005B"/>
  <note>
bracketleft
</note>
  <outline>
    <contour>
      <point x="60" y="-96" type="curve"/>
      <point x="345" y="-96" type="line"/>
      <point x="346" y="-64"/>
      <point x="352" y="-8"/>
      <point x="373" y="56" type="curve"/>
      <point x="364" y="59" type="line"/>
      <point x="311" y="-51"/>
      <point x="255" y="-78"/>
      <point x="183" y="-78" type="curve" smooth="yes"/>
      <point x="146" y="-78"/>
      <point x="142" y="-65"/>
      <point x="142" y="-15" type="curve" smooth="yes"/>
      <point x="142" y="802" type="line"/>
      <point x="165" y="802" type="line" smooth="yes"/>
      <point x="237" y="802"/>
      <point x="298" y="775"/>
      <point x="351" y="665" type="curve"/>
      <point x="360" y="668" type="line"/>
      <point x="339" y="732"/>
      <point x="333" y="788"/>
      <point x="332" y="820" type="curve"/>
      <point x="60" y="820" type="line"/>
      <point x="76" y="793"/>
      <point x="80" y="779"/>
      <point x="80" y="722" type="curve" smooth="yes"/>
      <point x="80" y="-7" type="line" smooth="yes"/>
      <point x="80" y="-52"/>
      <point x="75" y="-69"/>
    </contour>
  </outline>
</glyph>
<glyph name="bracketright" format="2">
  <advance width="413"/>
  <unicode hex="005D"/>
  <note>
bracketright
</note>
  <outline>
    <contour>
      <point x="68" y="-96" type="curve"/>
      <point x="353" y="-96" type="line"/>
      <point x="338" y="-69"/>
      <point x="333" y="-52"/>
      <point x="333" y="-7" type="curve" smooth="yes"/>
      <point x="333" y="722" type="line" smooth="yes"/>
      <point x="333" y="779"/>
      <point x="337" y="793"/>
      <point x="353" y="820" type="curve"/>
      <point x="81" y="820" type="line"/>
      <point x="80" y="788"/>
      <point x="74" y="732"/>
      <point x="53" y="668" type="curve"/>
      <point x="62" y="665" type="line"/>
      <point x="115" y="775"/>
      <point x="176" y="802"/>
      <point x="248" y="802" type="curve" smooth="yes"/>
      <point x="271" y="802" type="line"/>
      <point x="271" y="-15" type="line" smooth="yes"/>
      <point x="271" y="-65"/>
      <point x="267" y="-78"/>
      <point x="230" y="-78" type="curve" smooth="yes"/>
      <point x="158" y="-78"/>
      <point x="102" y="-51"/>
      <point x="49" y="59" type="curve"/>
      <point x="40" y="56" type="line"/>
      <point x="61" y="-8"/>
      <point x="67" y="-64"/>
    </contour>
  </outline>
</glyph>
<glyph name="grave" format="2">
  <advance width="281"/>
  <unicode hex="0060"/>
  <outline>
    <contour>
      <point x="220" y="506" type="line"/>
      <point x="226" y="512" type="line"/>
      <point x="104" y="674" type="line"/>
      <point x="19" y="674" type="line"/>
    </contour>
  </outline>
</glyph>
<glyph name="a" format="2">
  <advance width="502"/>
  <unicode hex="0061"/>
  <guideline x="270" y="458" angle="294.8481"/>
  <anchor x="494" y="0" name="ogonek"/>
  <anchor x="198" y="500" name="top"/>
  <outline>
    <contour>
      <point x="406" y="0" type="curve"/>
      <point x="492" y="0" type="line"/>
      <point x="278" y="461" type="line" smooth="yes"/>
      <point x="269" y="481"/>
      <point x="267" y="488"/>
      <point x="268" y="500" type="curve"/>
      <point x="101" y="500" type="line"/>
      <point x="101" y="493" type="line"/>
      <point x="133" y="493" type="line" smooth="yes"/>
      <point x="191" y="493"/>
      <point x="204" y="470"/>
      <point x="225" y="425" type="curve" smooth="yes"/>
      <point x="393" y="63" type="line" smooth="yes"/>
      <point x="408" y="31"/>
      <point x="410" y="19"/>
    </contour>
    <contour>
      <point x="190" y="-12" type="curve" smooth="yes"/>
      <point x="278" y="-12"/>
      <point x="354" y="48"/>
      <point x="374" y="132" type="curve"/>
      <point x="366" y="144" type="line"/>
      <point x="342" y="76"/>
      <point x="281" y="32"/>
      <point x="212" y="32" type="curve" smooth="yes"/>
      <point x="137" y="32"/>
      <point x="86" y="83"/>
      <point x="86" y="162" type="curve" smooth="yes"/>
      <point x="86" y="263"/>
      <point x="163" y="331"/>
      <point x="282" y="336" type="curve"/>
      <point x="278" y="352" type="line"/>
      <point x="133" y="352"/>
      <point x="30" y="268"/>
      <point x="30" y="150" type="curve" smooth="yes"/>
      <point x="30" y="55"/>
      <point x="96" y="-12"/>
    </contour>
  </outline>
</glyph>
<glyph name="b" format="2">
  <advance width="533"/>
  <unicode hex="0062"/>
  <anchor x="269" y="0" name="bottom"/>
  <anchor x="257" y="250" name="center"/>
  <anchor x="269" y="800" name="top"/>
  <outline>
    <contour>
      <point x="234" y="-12" type="curve" smooth="yes"/>
      <point x="402" y="-12"/>
      <point x="503" y="128"/>
      <point x="503" y="262" type="curve" smooth="yes"/>
      <point x="503" y="461"/>
      <point x="361" y="515"/>
      <point x="222" y="515" type="curve" smooth="yes"/>
      <point x="175" y="515"/>
      <point x="128" y="509"/>
      <point x="87" y="500" type="curve"/>
      <point x="87" y="421" type="line"/>
      <point x="155" y="471"/>
      <point x="221" y="489"/>
      <point x="275" y="486" type="curve" smooth="yes"/>
      <point x="375" y="480"/>
      <point x="435" y="405"/>
      <point x="435" y="255" type="curve" smooth="yes"/>
      <point x="435" y="119"/>
      <point x="360" y="13"/>
      <point x="236" y="13" type="curve" smooth="yes"/>
      <point x="179" y="13"/>
      <point x="128" y="34"/>
      <point x="128" y="103" type="curve" smooth="yes"/>
      <point x="128" y="676" type="line" smooth="yes"/>
      <point x="127" y="714"/>
      <point x="132" y="756"/>
      <point x="145" y="794" type="curve"/>
      <point x="140" y="797" type="line"/>
      <point x="42" y="649" type="line"/>
      <point x="43" y="645" type="line"/>
      <point x="58" y="622"/>
      <point x="64" y="602"/>
      <point x="64" y="566" type="curve" smooth="yes"/>
      <point x="64" y="97" type="line" smooth="yes"/>
      <point x="64" y="78"/>
      <point x="57" y="65"/>
      <point x="46" y="52" type="curve"/>
      <point x="97" y="6"/>
      <point x="165" y="-12"/>
    </contour>
  </outline>
</glyph>
<glyph name="c" format="2">
  <advance width="517"/>
  <unicode hex="0063"/>
  <anchor x="257" y="0" name="bottom"/>
  <anchor x="281" y="500" name="top"/>
  <outline>
    <contour>
      <point x="272" y="-7" type="curve" smooth="yes"/>
      <point x="359" y="-7"/>
      <point x="448" y="39"/>
      <point x="497" y="140" type="curve"/>
      <point x="490" y="144" type="line"/>
      <point x="452" y="71"/>
      <point x="382" y="35"/>
      <point x="311" y="35" type="curve" smooth="yes"/>
      <point x="171" y="35"/>
      <point x="95" y="161"/>
      <point x="95" y="279" type="curve" smooth="yes"/>
      <point x="95" y="382"/>
      <point x="154" y="477"/>
      <point x="281" y="480" type="curve" smooth="yes"/>
      <point x="371" y="482"/>
      <point x="428" y="438"/>
      <point x="413" y="347" type="curve"/>
      <point x="421" y="344" type="line"/>
      <point x="464" y="464" type="line"/>
      <point x="421" y="491"/>
      <point x="364" y="505"/>
      <point x="305" y="505" type="curve" smooth="yes"/>
      <point x="117" y="505"/>
      <point x="30" y="376"/>
      <point x="30" y="247" type="curve" smooth="yes"/>
      <point x="30" y="120"/>
      <point x="115" y="-7"/>
    </contour>
  </outline>
</glyph>
<glyph name="d" format="2">
  <advance width="547"/>
  <unicode hex="0064"/>
  <anchor x="313" y="0" name="bottom"/>
  <anchor x="313" y="250" name="center"/>
  <anchor x="313" y="800" name="top"/>
  <anchor x="556" y="539" name="topright"/>
  <outline>
    <contour>
      <point x="410" y="685" type="curve" smooth="yes"/>
      <point x="410" y="510" type="line"/>
      <point x="374" y="517"/>
      <point x="339" y="520"/>
      <point x="305" y="520" type="curve" smooth="yes"/>
      <point x="150" y="520"/>
      <point x="30" y="444"/>
      <point x="30" y="256" type="curve" smooth="yes"/>
      <point x="30" y="125"/>
      <point x="112" y="-5"/>
      <point x="268" y="-5" type="curve" smooth="yes"/>
      <point x="322" y="-5"/>
      <point x="372" y="9"/>
      <point x="413" y="33" type="curve"/>
      <point x="415" y="21"/>
      <point x="417" y="10"/>
      <point x="420" y="0" type="curve"/>
      <point x="480" y="0" type="line"/>
      <point x="474" y="20"/>
      <point x="472" y="36"/>
      <point x="472" y="76" type="curve" smooth="yes"/>
      <point x="472" y="599" type="line" smooth="yes"/>
      <point x="472" y="635"/>
      <point x="474" y="655"/>
      <point x="487" y="678" type="curve"/>
      <point x="487" y="682" type="line"/>
      <point x="394" y="827" type="line"/>
      <point x="389" y="824" type="line"/>
      <point x="405" y="788"/>
      <point x="410" y="748"/>
    </contour>
    <contour>
      <point x="99" y="268" type="curve" smooth="yes"/>
      <point x="99" y="422"/>
      <point x="172" y="484"/>
      <point x="262" y="487" type="curve" smooth="yes"/>
      <point x="314" y="489"/>
      <point x="367" y="475"/>
      <point x="410" y="443" type="curve"/>
      <point x="410" y="85" type="line"/>
      <point x="376" y="40"/>
      <point x="331" y="18"/>
      <point x="286" y="18" type="curve" smooth="yes"/>
      <point x="162" y="18"/>
      <point x="99" y="146"/>
    </contour>
  </outline>
</glyph>
<glyph name="e" format="2">
  <advance width="503"/>
  <unicode hex="0065"/>
  <anchor x="255" y="0" name="bottom"/>
  <anchor x="453" y="10" name="ogonek"/>
  <anchor x="251" y="500" name="top"/>
  <outline>
    <contour>
      <point x="262" y="-13" type="curve" smooth="yes"/>
      <point x="351" y="-13"/>
      <point x="438" y="36"/>
      <point x="473" y="133" type="curve"/>
      <point x="467" y="136" type="line"/>
      <point x="435" y="68"/>
      <point x="367" y="32"/>
      <point x="298" y="32" type="curve" smooth="yes"/>
      <point x="197" y="32"/>
      <point x="92" y="110"/>
      <point x="92" y="280" type="curve" smooth="yes"/>
      <point x="92" y="386"/>
      <point x="145" y="482"/>
      <point x="247" y="482" type="curve" smooth="yes"/>
      <point x="314" y="482"/>
      <point x="380" y="433"/>
      <point x="382" y="329" type="curve"/>
      <point x="83" y="329" type="line"/>
      <point x="83" y="302" type="line"/>
      <point x="444" y="302" type="line"/>
      <point x="452" y="316" type="line"/>
      <point x="444" y="456"/>
      <point x="358" y="505"/>
      <point x="272" y="505" type="curve" smooth="yes"/>
      <point x="123" y="505"/>
      <point x="30" y="392"/>
      <point x="30" y="243" type="curve" smooth="yes"/>
      <point x="30" y="71"/>
      <point x="147" y="-13"/>
    </contour>
  </outline>
</glyph>
<glyph name="f" format="2">
  <advance width="318"/>
  <unicode hex="0066"/>
  <guideline x="318" y="626" angle="249.0151"/>
  <outline>
    <contour>
      <point x="10" y="-176" type="curve"/>
      <point x="20" y="-181" type="line"/>
      <point x="69" y="-99"/>
      <point x="106" y="-40"/>
      <point x="142" y="0" type="curve"/>
      <point x="142" y="624" type="line" smooth="yes"/>
      <point x="142" y="725"/>
      <point x="179" y="784"/>
      <point x="242" y="784" type="curve" smooth="yes"/>
      <point x="304" y="784"/>
      <point x="334" y="733"/>
      <point x="312" y="628" type="curve"/>
      <point x="318" y="626" type="line"/>
      <point x="378" y="719" type="line"/>
      <point x="343" y="779"/>
      <point x="296" y="803"/>
      <point x="239" y="803" type="curve" smooth="yes"/>
      <point x="158" y="803"/>
      <point x="78" y="739"/>
      <point x="78" y="608" type="curve" smooth="yes"/>
      <point x="78" y="52" type="line" smooth="yes"/>
      <point x="78" y="-23"/>
      <point x="55" y="-92"/>
    </contour>
    <contour>
      <point x="211" y="500" type="curve" smooth="yes"/>
      <point x="78" y="500" type="line"/>
      <point x="55" y="478" type="line"/>
      <point x="57" y="470" type="line"/>
      <point x="258" y="470" type="line"/>
      <point x="274" y="511" type="line"/>
      <point x="266" y="514" type="line"/>
      <point x="258" y="501"/>
      <point x="243" y="500"/>
    </contour>
  </outline>
</glyph>
<glyph name="g" format="2">
  <advance width="546"/>
  <unicode hex="0067"/>
  <anchor x="260" y="-200" name="bottom"/>
  <anchor x="260" y="500" name="top"/>
  <outline>
    <contour>
      <point x="121" y="1" type="curve"/>
      <point x="20" y="-143" type="line"/>
      <point x="50" y="-233"/>
      <point x="155" y="-274"/>
      <point x="245" y="-276" type="curve" smooth="yes"/>
      <point x="410" y="-277"/>
      <point x="503" y="-161"/>
      <point x="507" y="-69" type="curve" smooth="yes"/>
      <point x="512" y="36"/>
      <point x="446" y="55"/>
      <point x="337" y="46" type="curve" smooth="yes"/>
      <point x="245" y="40"/>
      <point x="136" y="36"/>
      <point x="122" y="86" type="curve"/>
      <point x="155" y="98"/>
      <point x="210" y="118"/>
      <point x="284" y="154" type="curve" smooth="yes"/>
      <point x="393" y="207"/>
      <point x="458" y="279"/>
      <point x="458" y="352" type="curve" smooth="yes"/>
      <point x="458" y="395"/>
      <point x="437" y="437"/>
      <point x="389" y="470" type="curve"/>
      <point x="436" y="488"/>
      <point x="496" y="493"/>
      <point x="536" y="493" type="curve"/>
      <point x="536" y="500" type="line"/>
      <point x="500" y="502"/>
      <point x="478" y="513"/>
      <point x="465" y="535" type="curve"/>
      <point x="366" y="484" type="line"/>
      <point x="337" y="496"/>
      <point x="313" y="501"/>
      <point x="284" y="501" type="curve" smooth="yes"/>
      <point x="170" y="501"/>
      <point x="100" y="416"/>
      <point x="100" y="324" type="curve" smooth="yes"/>
      <point x="100" y="259"/>
      <point x="135" y="192"/>
      <point x="212" y="147" type="curve"/>
      <point x="177" y="124"/>
      <point x="115" y="101"/>
      <point x="52" y="80" type="curve"/>
      <point x="55" y="38"/>
      <point x="82" y="14"/>
    </contour>
    <contour>
      <point x="132" y="-3" type="curve"/>
      <point x="185" y="-15"/>
      <point x="250" y="-19"/>
      <point x="306" y="-16" type="curve" smooth="yes"/>
      <point x="412" y="-10"/>
      <point x="470" y="-22"/>
      <point x="465" y="-112" type="curve" smooth="yes"/>
      <point x="462" y="-187"/>
      <point x="368" y="-248"/>
      <point x="277" y="-245" type="curve" smooth="yes"/>
      <point x="146" y="-240"/>
      <point x="91" y="-178"/>
      <point x="92" y="-109" type="curve" smooth="yes"/>
      <point x="93" y="-74"/>
      <point x="107" y="-36"/>
    </contour>
    <contour>
      <point x="148" y="361" type="curve" smooth="yes"/>
      <point x="147" y="446"/>
      <point x="211" y="479"/>
      <point x="266" y="477" type="curve" smooth="yes"/>
      <point x="340" y="474"/>
      <point x="395" y="415"/>
      <point x="395" y="345" type="curve" smooth="yes"/>
      <point x="395" y="290"/>
      <point x="362" y="229"/>
      <point x="280" y="181" type="curve"/>
      <point x="196" y="213"/>
      <point x="150" y="294"/>
    </contour>
  </outline>
</glyph>
<glyph name="h" format="2">
  <advance width="506"/>
  <unicode hex="0068"/>
  <anchor x="253" y="0" name="bottom"/>
  <anchor x="253" y="400" name="center"/>
  <anchor x="274" y="770" name="top"/>
  <outline>
    <contour>
      <point x="257" y="-70" type="curve"/>
      <point x="266" y="-76" type="line"/>
      <point x="389" y="28"/>
      <point x="476" y="189"/>
      <point x="476" y="312" type="curve" smooth="yes"/>
      <point x="476" y="441"/>
      <point x="391" y="507"/>
      <point x="288" y="507" type="curve" smooth="yes"/>
      <point x="231" y="507"/>
      <point x="169" y="487"/>
      <point x="112" y="446" type="curve"/>
      <point x="122" y="366" type="line"/>
      <point x="145" y="440"/>
      <point x="212" y="486"/>
      <point x="280" y="486" type="curve" smooth="yes"/>
      <point x="363" y="486"/>
      <point x="408" y="412"/>
      <point x="408" y="300" type="curve" smooth="yes"/>
      <point x="408" y="172"/>
      <point x="349" y="22"/>
    </contour>
    <component base="l"/>
  </outline>
</glyph>
<glyph name="j" format="2">
  <advance width="212"/>
  <unicode hex="006A"/>
  <outline>
    <component base="jdotless"/>
    <contour>
      <point x="101" y="568" type="curve" smooth="yes"/>
      <point x="125" y="568"/>
      <point x="145" y="588"/>
      <point x="145" y="612" type="curve" smooth="yes"/>
      <point x="145" y="636"/>
      <point x="125" y="656"/>
      <point x="101" y="656" type="curve" smooth="yes"/>
      <point x="77" y="656"/>
      <point x="57" y="636"/>
      <point x="57" y="612" type="curve" smooth="yes"/>
      <point x="57" y="588"/>
      <point x="77" y="568"/>
    </contour>
  </outline>
</glyph>
<glyph name="k" format="2">
  <advance width="489"/>
  <unicode hex="006B"/>
  <anchor x="282" y="0" name="bottom"/>
  <anchor x="282" y="800" name="top"/>
  <outline>
    <contour>
      <point x="304" y="500" type="line"/>
      <point x="297" y="458"/>
      <point x="272" y="419"/>
      <point x="193" y="344" type="curve" smooth="yes"/>
      <point x="130" y="284" type="line"/>
      <point x="138" y="259" type="line"/>
      <point x="152" y="272" type="line"/>
      <point x="265" y="100" type="line" smooth="yes"/>
      <point x="311" y="29"/>
      <point x="320" y="21"/>
      <point x="326" y="0" type="curve"/>
      <point x="459" y="0" type="line"/>
      <point x="459" y="7" type="line"/>
      <point x="411" y="12"/>
      <point x="391" y="26"/>
      <point x="334" y="112" type="curve" smooth="yes"/>
      <point x="204" y="310" type="line"/>
      <point x="257" y="363" type="line" smooth="yes"/>
      <point x="325" y="431"/>
      <point x="390" y="487"/>
      <point x="432" y="493" type="curve"/>
      <point x="432" y="500" type="line"/>
    </contour>
    <component base="l"/>
  </outline>
</glyph>
<glyph name="l" format="2">
  <advance width="222"/>
  <unicode hex="006C"/>
  <anchor x="112" y="0" name="bottom"/>
  <anchor x="110" y="800" name="top"/>
  <outline>
    <contour>
      <point x="70" y="0" type="curve"/>
      <point x="152" y="0" type="line"/>
      <point x="146" y="20"/>
      <point x="144" y="36"/>
      <point x="144" y="76" type="curve" smooth="yes"/>
      <point x="144" y="678" type="line" smooth="yes"/>
      <point x="143" y="716"/>
      <point x="149" y="758"/>
      <point x="162" y="795" type="curve"/>
      <point x="157" y="798" type="line"/>
      <point x="60" y="653" type="line"/>
      <point x="60" y="649" type="line"/>
      <point x="74" y="625"/>
      <point x="80" y="605"/>
      <point x="80" y="569" type="curve" smooth="yes"/>
      <point x="80" y="84" type="line" smooth="yes"/>
      <point x="80" y="40"/>
      <point x="78" y="24"/>
    </contour>
  </outline>
</glyph>
<glyph name="m" format="2">
  <advance width="780"/>
  <unicode hex="006D"/>
  <anchor x="409" y="0" name="bottom"/>
  <anchor x="409" y="500" name="top"/>
  <outline>
    <contour>
      <point x="541" y="-70" type="curve"/>
      <point x="550" y="-76" type="line"/>
      <point x="673" y="28"/>
      <point x="750" y="189"/>
      <point x="750" y="312" type="curve" smooth="yes"/>
      <point x="750" y="427"/>
      <point x="686" y="508"/>
      <point x="576" y="508" type="curve" smooth="yes"/>
      <point x="509" y="508"/>
      <point x="443" y="480"/>
      <point x="406" y="436" type="curve"/>
      <point x="406" y="370" type="line"/>
      <point x="426" y="434"/>
      <point x="488" y="484"/>
      <point x="556" y="484" type="curve" smooth="yes"/>
      <point x="639" y="484"/>
      <point x="682" y="412"/>
      <point x="682" y="300" type="curve" smooth="yes"/>
      <point x="682" y="172"/>
      <point x="633" y="22"/>
    </contour>
    <contour>
      <point x="70" y="0" type="curve"/>
      <point x="156" y="0" type="line"/>
      <point x="148" y="25"/>
      <point x="146" y="45"/>
      <point x="146" y="95" type="curve" smooth="yes"/>
      <point x="146" y="430" type="line" smooth="yes"/>
      <point x="146" y="454"/>
      <point x="144" y="481"/>
      <point x="140" y="500" type="curve"/>
      <point x="10" y="500" type="line"/>
      <point x="10" y="493" type="line"/>
      <point x="30" y="493" type="line" smooth="yes"/>
      <point x="66" y="493"/>
      <point x="82" y="470"/>
      <point x="82" y="416" type="curve" smooth="yes"/>
      <point x="82" y="105" type="line" smooth="yes"/>
      <point x="82" y="50"/>
      <point x="80" y="30"/>
    </contour>
    <contour>
      <point x="251" y="-70" type="curve"/>
      <point x="260" y="-76" type="line"/>
      <point x="383" y="28"/>
      <point x="460" y="189"/>
      <point x="460" y="312" type="curve" smooth="yes"/>
      <point x="460" y="427"/>
      <point x="396" y="508"/>
      <point x="286" y="508" type="curve" smooth="yes"/>
      <point x="219" y="508"/>
      <point x="153" y="475"/>
      <point x="116" y="421" type="curve"/>
      <point x="116" y="351" type="line"/>
      <point x="136" y="425"/>
      <point x="198" y="484"/>
      <point x="266" y="484" type="curve" smooth="yes"/>
      <point x="349" y="484"/>
      <point x="392" y="412"/>
      <point x="392" y="300" type="curve" smooth="yes"/>
      <point x="392" y="172"/>
      <point x="343" y="22"/>
    </contour>
  </outline>
</glyph>
<glyph name="n" format="2">
  <advance width="510"/>
  <unicode hex="006E"/>
  <anchor x="256" y="0" name="bottom"/>
  <anchor x="276" y="500" name="top"/>
  <outline>
    <contour>
      <point x="261" y="-70" type="curve"/>
      <point x="266" y="-76" type="line"/>
      <point x="389" y="28"/>
      <point x="480" y="189"/>
      <point x="480" y="312" type="curve" smooth="yes"/>
      <point x="480" y="441"/>
      <point x="395" y="507"/>
      <point x="292" y="507" type="curve" smooth="yes"/>
      <point x="235" y="507"/>
      <point x="173" y="487"/>
      <point x="116" y="446" type="curve"/>
      <point x="126" y="366" type="line"/>
      <point x="149" y="440"/>
      <point x="216" y="486"/>
      <point x="284" y="486" type="curve" smooth="yes"/>
      <point x="367" y="486"/>
      <point x="412" y="412"/>
      <point x="412" y="300" type="curve" smooth="yes"/>
      <point x="412" y="172"/>
      <point x="353" y="22"/>
    </contour>
    <contour>
      <point x="70" y="0" type="curve"/>
      <point x="156" y="0" type="line"/>
      <point x="148" y="25"/>
      <point x="146" y="45"/>
      <point x="146" y="95" type="curve" smooth="yes"/>
      <point x="146" y="434" type="line" smooth="yes"/>
      <point x="146" y="453"/>
      <point x="146" y="481"/>
      <point x="140" y="500" type="curve"/>
      <point x="10" y="500" type="line"/>
      <point x="10" y="493" type="line"/>
      <point x="30" y="493" type="line" smooth="yes"/>
      <point x="66" y="493"/>
      <point x="82" y="470"/>
      <point x="82" y="416" type="curve" smooth="yes"/>
      <point x="82" y="105" type="line" smooth="yes"/>
      <point x="82" y="50"/>
      <point x="80" y="30"/>
    </contour>
  </outline>
</glyph>
<glyph name="o" format="2">
  <advance width="564"/>
  <unicode hex="006F"/>
  <anchor x="282" y="500" name="top"/>
  <outline>
    <contour>
      <point x="286" y="-12" type="curve" smooth="yes"/>
      <point x="435" y="-12"/>
      <point x="534" y="94"/>
      <point x="534" y="244" type="curve" smooth="yes"/>
      <point x="534" y="399"/>
      <point x="432" y="508"/>
      <point x="278" y="508" type="curve" smooth="yes"/>
      <point x="129" y="508"/>
      <point x="30" y="402"/>
      <point x="30" y="252" type="curve" smooth="yes"/>
      <point x="30" y="97"/>
      <point x="132" y="-12"/>
    </contour>
    <contour>
      <point x="300" y="12" type="curve" smooth="yes"/>
      <point x="176" y="12"/>
      <point x="98" y="124"/>
      <point x="98" y="281" type="curve" smooth="yes"/>
      <point x="98" y="406"/>
      <point x="158" y="486"/>
      <point x="264" y="486" type="curve" smooth="yes"/>
      <point x="385" y="486"/>
      <point x="466" y="375"/>
      <point x="466" y="217" type="curve" smooth="yes"/>
      <point x="466" y="93"/>
      <point x="404" y="12"/>
    </contour>
  </outline>
</glyph>
<glyph name="p" format="2">
  <advance width="551"/>
  <unicode hex="0070"/>
  <anchor x="293" y="0" name="bottom"/>
  <anchor x="293" y="500" name="top"/>
  <outline>
    <contour>
      <point x="144" y="-229" type="curve" smooth="yes"/>
      <point x="144" y="14" type="line"/>
      <point x="186" y="-8"/>
      <point x="229" y="-18"/>
      <point x="272" y="-18" type="curve" smooth="yes"/>
      <point x="440" y="-18"/>
      <point x="521" y="113"/>
      <point x="521" y="244" type="curve" smooth="yes"/>
      <point x="521" y="374"/>
      <point x="440" y="505"/>
      <point x="286" y="505" type="curve" smooth="yes"/>
      <point x="232" y="505"/>
      <point x="179" y="491"/>
      <point x="139" y="467" type="curve"/>
      <point x="133" y="500" type="line"/>
      <point x="10" y="500" type="line"/>
      <point x="10" y="493" type="line"/>
      <point x="30" y="493" type="line" smooth="yes"/>
      <point x="66" y="493"/>
      <point x="82" y="470"/>
      <point x="82" y="416" type="curve" smooth="yes"/>
      <point x="82" y="-119" type="line" smooth="yes"/>
      <point x="82" y="-155"/>
      <point x="76" y="-175"/>
      <point x="61" y="-198" type="curve"/>
      <point x="61" y="-202" type="line"/>
      <point x="155" y="-350" type="line"/>
      <point x="160" y="-347" type="line"/>
      <point x="147" y="-309"/>
      <point x="143" y="-267"/>
    </contour>
    <contour>
      <point x="453" y="228" type="curve" smooth="yes"/>
      <point x="453" y="116"/>
      <point x="400" y="10"/>
      <point x="293" y="10" type="curve" smooth="yes"/>
      <point x="247" y="10"/>
      <point x="196" y="33"/>
      <point x="144" y="86" type="curve"/>
      <point x="144" y="416" type="line"/>
      <point x="178" y="461"/>
      <point x="223" y="482"/>
      <point x="268" y="482" type="curve" smooth="yes"/>
      <point x="389" y="482"/>
      <point x="453" y="352"/>
    </contour>
  </outline>
</glyph>
<glyph name="q" format="2">
  <advance width="529"/>
  <unicode hex="0071"/>
  <anchor x="294" y="0" name="bottom"/>
  <anchor x="294" y="500" name="top"/>
  <outline>
    <contour>
      <point x="415" y="13" type="curve"/>
      <point x="415" y="-150" type="line" smooth="yes"/>
      <point x="415" y="-243"/>
      <point x="393" y="-283"/>
      <point x="346" y="-343" type="curve"/>
      <point x="354" y="-350" type="line"/>
      <point x="415" y="-280"/>
      <point x="433" y="-243"/>
      <point x="479" y="-198" type="curve"/>
      <point x="479" y="351" type="line" smooth="yes"/>
      <point x="479" y="376"/>
      <point x="484" y="401"/>
      <point x="502" y="422" type="curve"/>
      <point x="429" y="484"/>
      <point x="356" y="511"/>
      <point x="275" y="510" type="curve" smooth="yes"/>
      <point x="142" y="508"/>
      <point x="30" y="419"/>
      <point x="30" y="248" type="curve" smooth="yes"/>
      <point x="30" y="109"/>
      <point x="137" y="-12"/>
      <point x="290" y="-12" type="curve" smooth="yes"/>
      <point x="329" y="-12"/>
      <point x="371" y="-4"/>
    </contour>
    <contour>
      <point x="415" y="336" type="curve" smooth="yes"/>
      <point x="415" y="77" type="line"/>
      <point x="359" y="31"/>
      <point x="307" y="15"/>
      <point x="262" y="18" type="curve" smooth="yes"/>
      <point x="164" y="25"/>
      <point x="101" y="112"/>
      <point x="101" y="251" type="curve" smooth="yes"/>
      <point x="101" y="415"/>
      <point x="194" y="487"/>
      <point x="279" y="487" type="curve" smooth="yes"/>
      <point x="350" y="487"/>
      <point x="415" y="441"/>
    </contour>
  </outline>
</glyph>
<glyph name="r" format="2">
  <advance width="390"/>
  <unicode hex="0072"/>
  <anchor x="120" y="0" name="bottom"/>
  <anchor x="219" y="500" name="top"/>
  <outline>
    <contour>
      <point x="70" y="0" type="curve"/>
      <point x="156" y="0" type="line"/>
      <point x="148" y="25"/>
      <point x="146" y="45"/>
      <point x="146" y="95" type="curve" smooth="yes"/>
      <point x="146" y="411" type="line"/>
      <point x="168" y="427"/>
      <point x="195" y="436"/>
      <point x="220" y="436" type="curve" smooth="yes"/>
      <point x="255" y="436"/>
      <point x="287" y="421"/>
      <point x="309" y="400" type="curve"/>
      <point x="333" y="412"/>
      <point x="364" y="450"/>
      <point x="370" y="494" type="curve"/>
      <point x="364" y="496" type="line"/>
      <point x="355" y="476"/>
      <point x="336" y="467"/>
      <point x="317" y="467" type="curve" smooth="yes"/>
      <point x="293" y="467"/>
      <point x="268" y="482"/>
      <point x="264" y="507" type="curve"/>
      <point x="146" y="433" type="line"/>
      <point x="146" y="457"/>
      <point x="146" y="482"/>
      <point x="140" y="500" type="curve"/>
      <point x="10" y="500" type="line"/>
      <point x="10" y="493" type="line"/>
      <point x="30" y="493" type="line" smooth="yes"/>
      <point x="66" y="493"/>
      <point x="82" y="470"/>
      <point x="82" y="416" type="curve" smooth="yes"/>
      <point x="82" y="105" type="line" smooth="yes"/>
      <point x="82" y="50"/>
      <point x="80" y="30"/>
    </contour>
  </outline>
</glyph>
<glyph name="s" format="2">
  <advance width="412"/>
  <unicode hex="0073"/>
  <anchor x="186" y="0" name="bottom"/>
  <anchor x="186" y="500" name="top"/>
  <outline>
    <contour>
      <point x="210" y="-10" type="curve" smooth="yes"/>
      <point x="319" y="-10"/>
      <point x="382" y="72"/>
      <point x="382" y="147" type="curve" smooth="yes"/>
      <point x="383" y="312"/>
      <point x="104" y="289"/>
      <point x="104" y="416" type="curve" smooth="yes"/>
      <point x="104" y="467"/>
      <point x="148" y="484"/>
      <point x="185" y="484" type="curve" smooth="yes"/>
      <point x="261" y="484"/>
      <point x="306" y="430"/>
      <point x="306" y="374" type="curve" smooth="yes"/>
      <point x="306" y="357"/>
      <point x="303" y="340"/>
      <point x="295" y="324" type="curve"/>
      <point x="301" y="321" type="line"/>
      <point x="358" y="421" type="line"/>
      <point x="332" y="476"/>
      <point x="271" y="508"/>
      <point x="208" y="508" type="curve" smooth="yes"/>
      <point x="131" y="508"/>
      <point x="55" y="465"/>
      <point x="56" y="380" type="curve" smooth="yes"/>
      <point x="57" y="242"/>
      <point x="330" y="258"/>
      <point x="330" y="110" type="curve" smooth="yes"/>
      <point x="330" y="59"/>
      <point x="287" y="12"/>
      <point x="220" y="12" type="curve" smooth="yes"/>
      <point x="117" y="12"/>
      <point x="68" y="126"/>
      <point x="66" y="229" type="curve"/>
      <point x="60" y="229" type="line"/>
      <point x="60" y="179"/>
      <point x="43" y="135"/>
      <point x="20" y="105" type="curve"/>
      <point x="57" y="28"/>
      <point x="123" y="-10"/>
    </contour>
  </outline>
</glyph>
<glyph name="t" format="2">
  <advance width="224"/>
  <unicode hex="0074"/>
  <anchor x="84" y="0" name="bottom"/>
  <anchor x="86" y="250" name="center"/>
  <anchor x="86" y="500" name="top"/>
  <anchor x="145" y="514" name="topright"/>
  <outline>
    <contour>
      <point x="42" y="0" type="curve"/>
      <point x="124" y="0" type="line"/>
      <point x="118" y="20"/>
      <point x="116" y="36"/>
      <point x="116" y="76" type="curve" smooth="yes"/>
      <point x="116" y="572" type="line" smooth="yes"/>
      <point x="116" y="610"/>
      <point x="122" y="652"/>
      <point x="136" y="689" type="curve"/>
      <point x="131" y="692" type="line"/>
      <point x="32" y="548" type="line"/>
      <point x="32" y="544" type="line"/>
      <point x="46" y="520"/>
      <point x="52" y="500"/>
      <point x="52" y="464" type="curve" smooth="yes"/>
      <point x="52" y="84" type="line" smooth="yes"/>
      <point x="52" y="40"/>
      <point x="50" y="24"/>
    </contour>
    <contour>
      <point x="141" y="500" type="curve" smooth="yes"/>
      <point x="52" y="500" type="line"/>
      <point x="20" y="478" type="line"/>
      <point x="22" y="470" type="line"/>
      <point x="188" y="470" type="line"/>
      <point x="204" y="511" type="line"/>
      <point x="198" y="514" type="line"/>
      <point x="190" y="501"/>
      <point x="173" y="500"/>
    </contour>
  </outline>
</glyph>
<glyph name="u" format="2">
  <advance width="526"/>
  <unicode hex="0075"/>
  <anchor x="466" y="0" name="ogonek"/>
  <anchor x="264" y="500" name="top"/>
  <outline>
    <contour>
      <point x="240" y="-12" type="curve" smooth="yes"/>
      <point x="315" y="-14"/>
      <point x="389" y="25"/>
      <point x="430" y="109" type="curve"/>
      <point x="416" y="123" type="line"/>
      <point x="390" y="56"/>
      <point x="330" y="22"/>
      <point x="260" y="26" type="curve" smooth="yes"/>
      <point x="182" y="30"/>
      <point x="132" y="86"/>
      <point x="132" y="180" type="curve" smooth="yes"/>
      <point x="132" y="416" type="line" smooth="yes"/>
      <point x="132" y="460"/>
      <point x="134" y="476"/>
      <point x="142" y="500" type="curve"/>
      <point x="10" y="500" type="line"/>
      <point x="10" y="493" type="line"/>
      <point x="26" y="493" type="line" smooth="yes"/>
      <point x="55" y="493"/>
      <point x="68" y="473"/>
      <point x="68" y="423" type="curve" smooth="yes"/>
      <point x="68" y="172" type="line" smooth="yes"/>
      <point x="68" y="64"/>
      <point x="139" y="-9"/>
    </contour>
    <contour>
      <point x="408" y="0" type="curve"/>
      <point x="474" y="0" type="line"/>
      <point x="468" y="20"/>
      <point x="466" y="36"/>
      <point x="466" y="76" type="curve" smooth="yes"/>
      <point x="466" y="416" type="line" smooth="yes"/>
      <point x="466" y="460"/>
      <point x="468" y="476"/>
      <point x="476" y="500" type="curve"/>
      <point x="330" y="500" type="line"/>
      <point x="330" y="493" type="line"/>
      <point x="350" y="493" type="line" smooth="yes"/>
      <point x="386" y="493"/>
      <point x="402" y="470"/>
      <point x="402" y="416" type="curve" smooth="yes"/>
      <point x="402" y="76" type="line" smooth="yes"/>
      <point x="402" y="46"/>
      <point x="404" y="19"/>
    </contour>
  </outline>
</glyph>
<glyph name="v" format="2">
  <advance width="504"/>
  <unicode hex="0076"/>
  <outline>
    <contour>
      <point x="262" y="-14" type="line"/>
      <point x="268" y="11"/>
      <point x="281" y="29"/>
      <point x="299" y="35" type="curve"/>
      <point x="446" y="420" type="line" smooth="yes"/>
      <point x="462" y="461"/>
      <point x="470" y="476"/>
      <point x="484" y="500" type="curve"/>
      <point x="360" y="500" type="line"/>
      <point x="360" y="494" type="line"/>
      <point x="411" y="494"/>
      <point x="421" y="446"/>
      <point x="395" y="375" type="curve" smooth="yes"/>
      <point x="283" y="75" type="line"/>
      <point x="162" y="388" type="line" smooth="yes"/>
      <point x="140" y="445"/>
      <point x="135" y="466"/>
      <point x="140" y="500" type="curve"/>
      <point x="20" y="500" type="line"/>
      <point x="20" y="494" type="line"/>
      <point x="60" y="492"/>
      <point x="72" y="456"/>
      <point x="92" y="404" type="curve" smooth="yes"/>
      <point x="252" y="-14" type="line"/>
    </contour>
  </outline>
</glyph>
<glyph name="w" format="2">
  <advance width="740"/>
  <unicode hex="0077"/>
  <anchor x="357" y="0" name="bottom"/>
  <anchor x="417" y="542" name="top"/>
  <outline>
    <contour>
      <point x="206" y="-11" type="curve" smooth="yes"/>
      <point x="259" y="-11"/>
      <point x="314" y="14"/>
      <point x="359" y="59" type="curve"/>
      <point x="388" y="17"/>
      <point x="434" y="-11"/>
      <point x="499" y="-11" type="curve" smooth="yes"/>
      <point x="546" y="-11"/>
      <point x="595" y="8"/>
      <point x="638" y="43" type="curve"/>
      <point x="638" y="28"/>
      <point x="638" y="17"/>
      <point x="642" y="0" type="curve"/>
      <point x="710" y="0" type="line"/>
      <point x="704" y="20"/>
      <point x="702" y="36"/>
      <point x="702" y="76" type="curve" smooth="yes"/>
      <point x="702" y="424" type="line" smooth="yes"/>
      <point x="702" y="464"/>
      <point x="704" y="480"/>
      <point x="710" y="500" type="curve"/>
      <point x="566" y="500" type="line"/>
      <point x="566" y="493" type="line"/>
      <point x="622" y="493"/>
      <point x="638" y="475"/>
      <point x="638" y="421" type="curve" smooth="yes"/>
      <point x="638" y="88" type="line"/>
      <point x="601" y="37"/>
      <point x="553" y="12"/>
      <point x="511" y="12" type="curve" smooth="yes"/>
      <point x="421" y="12"/>
      <point x="389" y="119"/>
      <point x="389" y="219" type="curve" smooth="yes"/>
      <point x="389" y="319"/>
      <point x="419" y="455"/>
      <point x="508" y="560" type="curve"/>
      <point x="500" y="566" type="line"/>
      <point x="380" y="442"/>
      <point x="319" y="324"/>
      <point x="319" y="199" type="curve" smooth="yes"/>
      <point x="319" y="160"/>
      <point x="326" y="121"/>
      <point x="342" y="88" type="curve"/>
      <point x="305" y="37"/>
      <point x="259" y="12"/>
      <point x="218" y="12" type="curve" smooth="yes"/>
      <point x="147" y="12"/>
      <point x="100" y="87"/>
      <point x="100" y="188" type="curve" smooth="yes"/>
      <point x="100" y="299"/>
      <point x="158" y="442"/>
      <point x="304" y="549" type="curve"/>
      <point x="297" y="557" type="line"/>
      <point x="101" y="423"/>
      <point x="30" y="285"/>
      <point x="30" y="179" type="curve" smooth="yes"/>
      <point x="30" y="66"/>
      <point x="109" y="-11"/>
    </contour>
  </outline>
</glyph>
<glyph name="x" format="2">
  <advance width="506"/>
  <unicode hex="0078"/>
  <anchor x="254" y="0" name="bottom"/>
  <anchor x="254" y="500" name="top"/>
  <outline>
    <contour>
      <point x="365" y="0" type="curve"/>
      <point x="500" y="0" type="line"/>
      <point x="500" y="7" type="line"/>
      <point x="441" y="15"/>
      <point x="429" y="40"/>
      <point x="392" y="98" type="curve" smooth="yes"/>
      <point x="278" y="278" type="line"/>
      <point x="374" y="409" type="line" smooth="yes"/>
      <point x="408" y="456"/>
      <point x="429" y="484"/>
      <point x="449" y="492" type="curve"/>
      <point x="449" y="500" type="line"/>
      <point x="366" y="500" type="line"/>
      <point x="371" y="480"/>
      <point x="362" y="447"/>
      <point x="319" y="383" type="curve" smooth="yes"/>
      <point x="263" y="300" type="line"/>
      <point x="178" y="432" type="line" smooth="yes"/>
      <point x="156" y="466"/>
      <point x="152" y="480"/>
      <point x="158" y="500" type="curve"/>
      <point x="16" y="500" type="line"/>
      <point x="16" y="493" type="line"/>
      <point x="66" y="491"/>
      <point x="83" y="472"/>
      <point x="121" y="413" type="curve" smooth="yes"/>
      <point x="224" y="254" type="line"/>
      <point x="112" y="104" type="line" smooth="yes"/>
      <point x="78" y="59"/>
      <point x="55" y="27"/>
      <point x="32" y="0" type="curve"/>
      <point x="140" y="0" type="line"/>
      <point x="140" y="7" type="line"/>
      <point x="97" y="25"/>
      <point x="130" y="71"/>
      <point x="158" y="111" type="curve" smooth="yes"/>
      <point x="239" y="229" type="line"/>
      <point x="337" y="78" type="line" smooth="yes"/>
      <point x="365" y="34"/>
      <point x="369" y="20"/>
    </contour>
  </outline>
</glyph>
<glyph name="y" format="2">
  <advance width="480"/>
  <unicode hex="0079"/>
  <guideline x="235" y="55" angle="68.9797"/>
  <anchor x="235" y="0" name="bottom"/>
  <anchor x="216" y="500" name="top"/>
  <outline>
    <contour>
      <point x="117" y="-263" type="line"/>
      <point x="146" y="-230"/>
      <point x="182" y="-206"/>
      <point x="202" y="-199" type="curve"/>
      <point x="203" y="-132"/>
      <point x="212" y="-98"/>
      <point x="270" y="50" type="curve" smooth="yes"/>
      <point x="399" y="380" type="line" smooth="yes"/>
      <point x="431" y="461"/>
      <point x="445" y="483"/>
      <point x="470" y="493" type="curve"/>
      <point x="470" y="500" type="line"/>
      <point x="394" y="500" type="line"/>
      <point x="395" y="480"/>
      <point x="390" y="455"/>
      <point x="362" y="383" type="curve" smooth="yes"/>
      <point x="252" y="98" type="line"/>
      <point x="145" y="383" type="line" smooth="yes"/>
      <point x="121" y="448"/>
      <point x="113" y="479"/>
      <point x="113" y="500" type="curve"/>
      <point x="10" y="500" type="line"/>
      <point x="10" y="493" type="line"/>
      <point x="31" y="487"/>
      <point x="42" y="476"/>
      <point x="60" y="428" type="curve" smooth="yes"/>
      <point x="216" y="14" type="line"/>
      <point x="109" y="-258" type="line"/>
    </contour>
  </outline>
</glyph>
<glyph name="z" format="2">
  <advance width="515"/>
  <unicode hex="007A"/>
  <anchor x="268" y="0" name="bottom"/>
  <anchor x="268" y="250" name="center"/>
  <anchor x="268" y="500" name="top"/>
  <outline>
    <contour>
      <point x="32" y="-10" type="line"/>
      <point x="68" y="17"/>
      <point x="135" y="45"/>
      <point x="214" y="45" type="curve" smooth="yes"/>
      <point x="273" y="45"/>
      <point x="340" y="29"/>
      <point x="422" y="-8" type="curve"/>
      <point x="494" y="114" type="line"/>
      <point x="486" y="118" type="line"/>
      <point x="437" y="29"/>
      <point x="364" y="89"/>
      <point x="252" y="89" type="curve" smooth="yes"/>
      <point x="206" y="89"/>
      <point x="150" y="79"/>
      <point x="93" y="48" type="curve"/>
      <point x="90" y="51" type="line"/>
      <point x="213" y="197"/>
      <point x="454" y="473"/>
      <point x="494" y="497" type="curve"/>
      <point x="489" y="506" type="line"/>
      <point x="475" y="501"/>
      <point x="453" y="500"/>
      <point x="428" y="500" type="curve" smooth="yes"/>
      <point x="213" y="500" type="line" smooth="yes"/>
      <point x="150" y="500"/>
      <point x="135" y="505"/>
      <point x="119" y="516" type="curve"/>
      <point x="56" y="393" type="line"/>
      <point x="63" y="388" type="line"/>
      <point x="100" y="431"/>
      <point x="129" y="442"/>
      <point x="184" y="442" type="curve" smooth="yes"/>
      <point x="376" y="442" type="line"/>
      <point x="20" y="0" type="line"/>
    </contour>
  </outline>
</glyph>
<glyph name="braceleft" format="2">
  <advance width="477"/>
  <unicode hex="007B"/>
  <note>
braceleft
</note>
  <outline>
    <contour>
      <point x="118" y="0" type="curve"/>
      <point x="423" y="0" type="line"/>
      <point x="424" y="32"/>
      <point x="430" y="88"/>
      <point x="451" y="152" type="curve"/>
      <point x="442" y="155" type="line"/>
      <point x="389" y="45"/>
      <point x="333" y="18"/>
      <point x="261" y="18" type="curve" smooth="yes"/>
      <point x="232" y="18"/>
      <point x="216" y="27"/>
      <point x="216" y="53" type="curve" smooth="yes"/>
      <point x="216" y="84"/>
      <point x="252" y="152"/>
      <point x="252" y="247" type="curve" smooth="yes"/>
      <point x="252" y="356"/>
      <point x="183" y="409"/>
      <point x="87" y="424" type="curve"/>
      <point x="87" y="429" type="line"/>
      <point x="179" y="456"/>
      <point x="240" y="495"/>
      <point x="240" y="594" type="curve" smooth="yes"/>
      <point x="240" y="696"/>
      <point x="187" y="787"/>
      <point x="187" y="796" type="curve" smooth="yes"/>
      <point x="187" y="801"/>
      <point x="189" y="802"/>
      <point x="203" y="802" type="curve" smooth="yes"/>
      <point x="289" y="802"/>
      <point x="356" y="775"/>
      <point x="409" y="665" type="curve"/>
      <point x="418" y="668" type="line"/>
      <point x="397" y="732"/>
      <point x="391" y="788"/>
      <point x="390" y="820" type="curve"/>
      <point x="108" y="820" type="line"/>
      <point x="157" y="769"/>
      <point x="181" y="652"/>
      <point x="181" y="593" type="curve" smooth="yes"/>
      <point x="181" y="490"/>
      <point x="117" y="449"/>
      <point x="20" y="422" type="curve"/>
      <point x="20" y="416" type="line"/>
      <point x="112" y="409"/>
      <point x="190" y="373"/>
      <point x="190" y="246" type="curve" smooth="yes"/>
      <point x="190" y="183"/>
      <point x="165" y="51"/>
    </contour>
  </outline>
</glyph>
<glyph name="braceright" format="2">
  <advance width="508"/>
  <unicode hex="007D"/>
  <note>
braceright
</note>
  <outline>
    <contour>
      <point x="48" y="0" type="curve"/>
      <point x="353" y="0" type="line"/>
      <point x="306" y="51"/>
      <point x="281" y="183"/>
      <point x="281" y="246" type="curve" smooth="yes"/>
      <point x="281" y="373"/>
      <point x="359" y="409"/>
      <point x="451" y="416" type="curve"/>
      <point x="451" y="422" type="line"/>
      <point x="354" y="449"/>
      <point x="290" y="490"/>
      <point x="290" y="593" type="curve" smooth="yes"/>
      <point x="290" y="652"/>
      <point x="314" y="769"/>
      <point x="363" y="820" type="curve"/>
      <point x="81" y="820" type="line"/>
      <point x="80" y="788"/>
      <point x="74" y="732"/>
      <point x="53" y="668" type="curve"/>
      <point x="62" y="665" type="line"/>
      <point x="115" y="775"/>
      <point x="182" y="802"/>
      <point x="268" y="802" type="curve" smooth="yes"/>
      <point x="282" y="802"/>
      <point x="284" y="801"/>
      <point x="284" y="796" type="curve" smooth="yes"/>
      <point x="284" y="787"/>
      <point x="231" y="696"/>
      <point x="231" y="594" type="curve" smooth="yes"/>
      <point x="231" y="495"/>
      <point x="292" y="456"/>
      <point x="384" y="429" type="curve"/>
      <point x="384" y="424" type="line"/>
      <point x="288" y="409"/>
      <point x="219" y="356"/>
      <point x="219" y="247" type="curve" smooth="yes"/>
      <point x="219" y="152"/>
      <point x="255" y="84"/>
      <point x="255" y="53" type="curve" smooth="yes"/>
      <point x="255" y="27"/>
      <point x="239" y="18"/>
      <point x="210" y="18" type="curve" smooth="yes"/>
      <point x="138" y="18"/>
      <point x="82" y="45"/>
      <point x="29" y="155" type="curve"/>
      <point x="20" y="152" type="line"/>
      <point x="41" y="88"/>
      <point x="47" y="32"/>
    </contour>
  </outline>
</glyph>
<glyph name="asciitilde" format="2">
  <advance width="500"/>
  <unicode hex="007E"/>
  <outline>
    <contour>
      <point x="49" y="256" type="curve"/>
      <point x="60" y="252" type="line"/>
      <point x="77" y="308"/>
      <point x="109" y="307"/>
      <point x="137" y="305" type="curve" smooth="yes"/>
      <point x="195" y="299"/>
      <point x="274" y="264"/>
      <point x="329" y="260" type="curve" smooth="yes"/>
      <point x="368" y="257"/>
      <point x="420" y="281"/>
      <point x="440" y="355" type="curve"/>
      <point x="431" y="359" type="line"/>
      <point x="407" y="298"/>
      <point x="375" y="302"/>
      <point x="355" y="303" type="curve" smooth="yes"/>
      <point x="306" y="307"/>
      <point x="213" y="347"/>
      <point x="152" y="349" type="curve" smooth="yes"/>
      <point x="115" y="350"/>
      <point x="70" y="335"/>
    </contour>
  </outline>
</glyph>
<glyph name="exclamdown" format="2">
  <advance width="262"/>
  <unicode hex="00A1"/>
  <anchor x="123.572" y="768.43" name="_bottom"/>
  <outline>
    <contour>
      <point x="166" y="-15" type="curve"/>
      <point x="161" y="3"/>
      <point x="154" y="49"/>
      <point x="150" y="138" type="curve" smooth="yes"/>
      <point x="133" y="506" type="line"/>
      <point x="113" y="506" type="line"/>
      <point x="95" y="173" type="line" smooth="yes"/>
      <point x="87" y="29"/>
      <point x="86" y="5"/>
      <point x="69" y="-72" type="curve"/>
      <point x="95" y="-35"/>
      <point x="126" y="-20"/>
    </contour>
    <component base="period" xOffset="49" yOffset="592"/>
  </outline>
</glyph>
<glyph name="sterling" format="2">
  <advance width="676"/>
  <unicode hex="00A3"/>
  <note>
sterling
</note>
  <outline>
    <contour>
      <point x="239" y="71" type="line"/>
      <point x="248" y="71"/>
      <point x="256" y="71"/>
      <point x="263" y="69" type="curve"/>
      <point x="542" y="384" type="line"/>
      <point x="539" y="391" type="line"/>
      <point x="525" y="387"/>
      <point x="510" y="386"/>
      <point x="494" y="386" type="curve" smooth="yes"/>
      <point x="113" y="386" type="line"/>
      <point x="139" y="359" type="line"/>
      <point x="209" y="359" type="line"/>
      <point x="210" y="333" type="line" smooth="yes"/>
      <point x="214" y="228"/>
      <point x="183" y="113"/>
      <point x="65" y="-15" type="curve"/>
      <point x="73" y="-23" type="line"/>
      <point x="99" y="2"/>
      <point x="158" y="40"/>
      <point x="223" y="33" type="curve" smooth="yes"/>
      <point x="315" y="23"/>
      <point x="363" y="-40"/>
      <point x="446" y="-40" type="curve" smooth="yes"/>
      <point x="522" y="-40"/>
      <point x="590" y="29"/>
      <point x="616" y="83" type="curve"/>
      <point x="607" y="88" type="line"/>
      <point x="585" y="52"/>
      <point x="538" y="20"/>
      <point x="463" y="20" type="curve" smooth="yes"/>
      <point x="406" y="20"/>
      <point x="301" y="64"/>
      <point x="228" y="62" type="curve" smooth="yes"/>
      <point x="190" y="61"/>
      <point x="162" y="52"/>
      <point x="134" y="35" type="curve"/>
      <point x="130" y="39" type="line"/>
      <point x="241" y="177"/>
      <point x="274" y="272"/>
      <point x="270" y="359" type="curve"/>
      <point x="461" y="359" type="line"/>
    </contour>
    <contour>
      <point x="63" y="462" type="curve"/>
      <point x="55" y="455" type="line"/>
      <point x="92" y="419" type="line"/>
      <point x="527" y="419" type="line" smooth="yes"/>
      <point x="555" y="419"/>
      <point x="559" y="418"/>
      <point x="579" y="411" type="curve"/>
      <point x="611" y="453" type="line"/>
      <point x="605" y="460" type="line"/>
      <point x="587" y="454"/>
      <point x="572" y="451"/>
      <point x="549" y="451" type="curve" smooth="yes"/>
      <point x="259" y="451" type="line"/>
      <point x="256" y="487"/>
      <point x="251" y="522"/>
      <point x="251" y="559" type="curve" smooth="yes"/>
      <point x="251" y="655"/>
      <point x="309" y="705"/>
      <point x="371" y="705" type="curve" smooth="yes"/>
      <point x="440" y="705"/>
      <point x="514" y="644"/>
      <point x="522" y="512" type="curve"/>
      <point x="530" y="513" type="line"/>
      <point x="540" y="690" type="line"/>
      <point x="486" y="714"/>
      <point x="430" y="727"/>
      <point x="379" y="727" type="curve" smooth="yes"/>
      <point x="271" y="727"/>
      <point x="186" y="671"/>
      <point x="186" y="547" type="curve" smooth="yes"/>
      <point x="186" y="518"/>
      <point x="192" y="487"/>
      <point x="198" y="451" type="curve"/>
      <point x="100" y="451" type="line" smooth="yes"/>
      <point x="83" y="451"/>
      <point x="72" y="454"/>
    </contour>
    <contour>
      <point x="202" y="26" type="curve"/>
      <point x="152" y="-35" type="line"/>
      <point x="160" y="-43" type="line"/>
      <point x="221" y="24" type="line"/>
      <point x="215" y="27"/>
      <point x="208" y="27"/>
    </contour>
  </outline>
</glyph>
<glyph name="currency" format="2">
  <advance width="700"/>
  <unicode hex="00A4"/>
  <note>
currency
</note>
  <outline>
    <contour>
      <point x="346" y="60" type="curve" smooth="yes"/>
      <point x="398" y="60"/>
      <point x="447" y="74"/>
      <point x="487" y="102" type="curve"/>
      <point x="635" y="-11" type="line"/>
      <point x="640" y="-7" type="line"/>
      <point x="525" y="138" type="line"/>
      <point x="555" y="175"/>
      <point x="574" y="225"/>
      <point x="574" y="289" type="curve" smooth="yes"/>
      <point x="574" y="355"/>
      <point x="554" y="406"/>
      <point x="522" y="444" type="curve"/>
      <point x="640" y="591" type="line"/>
      <point x="635" y="595" type="line"/>
      <point x="483" y="479" type="line"/>
      <point x="444" y="506"/>
      <point x="396" y="519"/>
      <point x="346" y="519" type="curve" smooth="yes"/>
      <point x="300" y="519"/>
      <point x="254" y="506"/>
      <point x="215" y="480" type="curve"/>
      <point x="65" y="595" type="line"/>
      <point x="60" y="591" type="line"/>
      <point x="175" y="447" type="line"/>
      <point x="140" y="408"/>
      <point x="117" y="355"/>
      <point x="117" y="289" type="curve" smooth="yes"/>
      <point x="117" y="222"/>
      <point x="138" y="170"/>
      <point x="171" y="133" type="curve"/>
      <point x="60" y="-7" type="line"/>
      <point x="65" y="-11" type="line"/>
      <point x="209" y="100" type="line"/>
      <point x="248" y="73"/>
      <point x="296" y="60"/>
    </contour>
    <contour>
      <point x="180" y="294" type="curve" smooth="yes"/>
      <point x="180" y="393"/>
      <point x="230" y="492"/>
      <point x="344" y="492" type="curve" smooth="yes"/>
      <point x="459" y="492"/>
      <point x="515" y="384"/>
      <point x="515" y="280" type="curve" smooth="yes"/>
      <point x="515" y="181"/>
      <point x="465" y="84"/>
      <point x="353" y="84" type="curve" smooth="yes"/>
      <point x="237" y="84"/>
      <point x="180" y="190"/>
    </contour>
  </outline>
</glyph>
<glyph name="yen" format="2">
  <advance width="606"/>
  <unicode hex="00A5"/>
  <outline>
    <contour>
      <point x="97" y="337" type="line"/>
      <point x="531" y="337" type="line"/>
      <point x="536" y="379" type="line"/>
      <point x="90" y="379" type="line"/>
    </contour>
    <contour>
      <point x="128" y="180" type="line"/>
      <point x="497" y="180" type="line"/>
      <point x="501" y="222" type="line"/>
      <point x="123" y="222" type="line"/>
    </contour>
    <component base="Y"/>
  </outline>
</glyph>
<glyph name="section" format="2">
  <advance width="394"/>
  <unicode hex="00A7"/>
  <note>
section
</note>
  <outline>
    <contour>
      <point x="194" y="-10" type="curve" smooth="yes"/>
      <point x="300" y="-10"/>
      <point x="364" y="45"/>
      <point x="364" y="124" type="curve" smooth="yes"/>
      <point x="364" y="188"/>
      <point x="335" y="224"/>
      <point x="259" y="256" type="curve"/>
      <point x="317" y="281"/>
      <point x="358" y="333"/>
      <point x="358" y="386" type="curve" smooth="yes"/>
      <point x="358" y="436"/>
      <point x="323" y="467"/>
      <point x="279" y="491" type="curve" smooth="yes"/>
      <point x="200" y="534"/>
      <point x="90" y="555"/>
      <point x="86" y="632" type="curve" smooth="yes"/>
      <point x="83" y="686"/>
      <point x="119" y="721"/>
      <point x="169" y="721" type="curve" smooth="yes"/>
      <point x="247" y="721"/>
      <point x="287" y="676"/>
      <point x="287" y="619" type="curve" smooth="yes"/>
      <point x="287" y="592"/>
      <point x="276" y="561"/>
      <point x="258" y="531" type="curve"/>
      <point x="269" y="525" type="line"/>
      <point x="350" y="638" type="line"/>
      <point x="325" y="699"/>
      <point x="258" y="737"/>
      <point x="183" y="737" type="curve" smooth="yes"/>
      <point x="94" y="737"/>
      <point x="40" y="678"/>
      <point x="40" y="615" type="curve" smooth="yes"/>
      <point x="40" y="554"/>
      <point x="80" y="512"/>
      <point x="158" y="481" type="curve"/>
      <point x="84" y="471"/>
      <point x="40" y="418"/>
      <point x="40" y="361" type="curve" smooth="yes"/>
      <point x="40" y="293"/>
      <point x="90" y="250"/>
      <point x="187" y="217" type="curve" smooth="yes"/>
      <point x="254" y="195"/>
      <point x="307" y="163"/>
      <point x="307" y="104" type="curve" smooth="yes"/>
      <point x="307" y="54"/>
      <point x="260" y="7"/>
      <point x="202" y="7" type="curve" smooth="yes"/>
      <point x="105" y="7"/>
      <point x="47" y="106"/>
      <point x="60" y="218" type="curve"/>
      <point x="52" y="220" type="line"/>
      <point x="20" y="101" type="line"/>
      <point x="48" y="38"/>
      <point x="102" y="-10"/>
    </contour>
    <contour>
      <point x="86" y="378" type="curve" smooth="yes"/>
      <point x="86" y="432"/>
      <point x="119" y="468"/>
      <point x="169" y="468" type="curve" smooth="yes"/>
      <point x="233" y="468"/>
      <point x="291" y="421"/>
      <point x="291" y="362" type="curve" smooth="yes"/>
      <point x="291" y="322"/>
      <point x="271" y="281"/>
      <point x="232" y="266" type="curve"/>
      <point x="126" y="299"/>
      <point x="86" y="324"/>
    </contour>
  </outline>
</glyph>
<glyph name="dieresis" format="2">
  <advance width="405"/>
  <unicode hex="00A8"/>
  <outline>
    <contour>
      <point x="152" y="558" type="curve"/>
      <point x="164" y="590"/>
      <point x="178" y="606"/>
      <point x="198" y="610" type="curve"/>
      <point x="230" y="598"/>
      <point x="244" y="582"/>
      <point x="248" y="558" type="curve"/>
      <point x="261" y="593"/>
      <point x="277" y="609"/>
      <point x="300" y="612" type="curve"/>
      <point x="267" y="625"/>
      <point x="251" y="642"/>
      <point x="248" y="666" type="curve"/>
      <point x="236" y="634"/>
      <point x="222" y="618"/>
      <point x="202" y="614" type="curve"/>
      <point x="170" y="626"/>
      <point x="156" y="642"/>
      <point x="152" y="666" type="curve"/>
      <point x="142" y="632"/>
      <point x="126" y="616"/>
      <point x="100" y="612" type="curve"/>
      <point x="133" y="599"/>
      <point x="149" y="583"/>
    </contour>
  </outline>
</glyph>
<glyph name="guillemetleft" format="2">
  <advance width="560"/>
  <unicode hex="00AB"/>
  <note>
guillemotleft
</note>
  <outline>
    <contour>
      <point x="357" y="0" type="curve"/>
      <point x="360" y="8" type="line"/>
      <point x="323" y="16"/>
      <point x="299" y="46"/>
      <point x="275" y="72" type="curve"/>
      <point x="223" y="138"/>
      <point x="162" y="235"/>
      <point x="117" y="266" type="curve"/>
      <point x="244" y="425" type="line" smooth="yes"/>
      <point x="280" y="470"/>
      <point x="279" y="491"/>
      <point x="338" y="491" type="curve" smooth="yes"/>
      <point x="368" y="491"/>
      <point x="381" y="486"/>
      <point x="381" y="468" type="curve" smooth="yes"/>
      <point x="381" y="453"/>
      <point x="368" y="432"/>
      <point x="352" y="412" type="curve" smooth="yes"/>
      <point x="256" y="295" type="line" smooth="yes"/>
      <point x="242" y="278"/>
      <point x="227" y="261"/>
      <point x="214" y="252" type="curve"/>
      <point x="214" y="249" type="line"/>
      <point x="251" y="221"/>
      <point x="318" y="122"/>
      <point x="371" y="57" type="curve" smooth="yes"/>
      <point x="403" y="18"/>
      <point x="442" y="8"/>
      <point x="524" y="0" type="curve"/>
      <point x="527" y="8" type="line"/>
      <point x="488" y="16"/>
      <point x="465" y="46"/>
      <point x="442" y="72" type="curve" smooth="yes"/>
      <point x="390" y="138"/>
      <point x="329" y="235"/>
      <point x="285" y="266" type="curve"/>
      <point x="409" y="425" type="line"/>
      <point x="450" y="473"/>
      <point x="466" y="491"/>
      <point x="514" y="493" type="curve"/>
      <point x="514" y="497" type="line"/>
      <point x="187" y="497" type="line"/>
      <point x="187" y="493" type="line"/>
      <point x="225" y="479"/>
      <point x="217" y="447"/>
      <point x="187" y="412" type="curve" smooth="yes"/>
      <point x="88" y="295" type="line"/>
      <point x="76" y="278"/>
      <point x="60" y="261"/>
      <point x="46" y="252" type="curve"/>
      <point x="46" y="249" type="line"/>
      <point x="85" y="221"/>
      <point x="152" y="122"/>
      <point x="204" y="57" type="curve" smooth="yes"/>
      <point x="237" y="18"/>
      <point x="275" y="8"/>
    </contour>
  </outline>
</glyph>
<glyph name="registered" format="2">
  <advance width="855"/>
  <unicode hex="00AE"/>
  <note>
registered
</note>
  <anchor x="428" y="0" name="bottom"/>
  <anchor x="428" y="361" name="center"/>
  <anchor x="791" y="10" name="ogonek"/>
  <anchor x="428" y="722" name="top"/>
  <anchor x="-7" y="722" name="topleft"/>
  <anchor x="862" y="722" name="topright"/>
  <outline>
    <contour>
      <point x="429" y="-17" type="curve" smooth="yes"/>
      <point x="679" y="-17"/>
      <point x="805" y="171"/>
      <point x="805" y="360" type="curve" smooth="yes"/>
      <point x="805" y="549"/>
      <point x="679" y="738"/>
      <point x="428" y="738" type="curve" smooth="yes"/>
      <point x="241" y="738"/>
      <point x="50" y="605"/>
      <point x="50" y="360" type="curve" smooth="yes"/>
      <point x="50" y="109"/>
      <point x="231" y="-17"/>
    </contour>
    <contour>
      <point x="437" y="6" type="curve" smooth="yes"/>
      <point x="227" y="6"/>
      <point x="119" y="190"/>
      <point x="119" y="370" type="curve" smooth="yes"/>
      <point x="119" y="541"/>
      <point x="216" y="712"/>
      <point x="422" y="712" type="curve" smooth="yes"/>
      <point x="622" y="712"/>
      <point x="739" y="526"/>
      <point x="739" y="345" type="curve" smooth="yes"/>
      <point x="739" y="173"/>
      <point x="632" y="6"/>
    </contour>
    <contour>
      <point x="761" y="-31" type="curve"/>
      <point x="762" y="-25" type="line"/>
      <point x="675" y="7"/>
      <point x="643" y="112"/>
      <point x="592" y="199" type="curve" smooth="yes"/>
      <point x="557" y="259"/>
      <point x="513" y="310"/>
      <point x="435" y="320" type="curve"/>
      <point x="435" y="324" type="line"/>
      <point x="560" y="336"/>
      <point x="629" y="426"/>
      <point x="629" y="493" type="curve" smooth="yes"/>
      <point x="629" y="564"/>
      <point x="571" y="628"/>
      <point x="482" y="628" type="curve" smooth="yes"/>
      <point x="443" y="628"/>
      <point x="396" y="616"/>
      <point x="347" y="585" type="curve"/>
      <point x="347" y="624" type="line"/>
      <point x="240" y="624" type="line"/>
      <point x="240" y="619" type="line"/>
      <point x="255" y="619" type="line" smooth="yes"/>
      <point x="282" y="619"/>
      <point x="294" y="605"/>
      <point x="294" y="571" type="curve" smooth="yes"/>
      <point x="294" y="143" type="line" smooth="yes"/>
      <point x="294" y="110"/>
      <point x="292" y="98"/>
      <point x="286" y="80" type="curve"/>
      <point x="355" y="80" type="line"/>
      <point x="349" y="98"/>
      <point x="347" y="110"/>
      <point x="347" y="143" type="curve" smooth="yes"/>
      <point x="347" y="329" type="line"/>
      <point x="411" y="317"/>
      <point x="469" y="307"/>
      <point x="547" y="176" type="curve" smooth="yes"/>
      <point x="611" y="69"/>
      <point x="618" y="12"/>
    </contour>
    <contour>
      <point x="411" y="337" type="curve" smooth="yes"/>
      <point x="389" y="337"/>
      <point x="367" y="341"/>
      <point x="347" y="347" type="curve"/>
      <point x="347" y="572" type="line"/>
      <point x="386" y="594"/>
      <point x="420" y="603"/>
      <point x="450" y="603" type="curve" smooth="yes"/>
      <point x="526" y="603"/>
      <point x="568" y="541"/>
      <point x="568" y="478" type="curve" smooth="yes"/>
      <point x="568" y="383"/>
      <point x="491" y="337"/>
    </contour>
  </outline>
</glyph>
<glyph name="degree" format="2">
  <advance width="364"/>
  <unicode hex="00B0"/>
  <outline>
    <contour>
      <point x="182" y="513" type="curve" smooth="yes"/>
      <point x="221" y="513"/>
      <point x="257" y="537"/>
      <point x="257" y="585" type="curve" smooth="yes"/>
      <point x="257" y="623"/>
      <point x="231" y="667"/>
      <point x="182" y="667" type="curve" smooth="yes"/>
      <point x="132" y="667"/>
      <point x="107" y="625"/>
      <point x="107" y="587" type="curve" smooth="yes"/>
      <point x="107" y="549"/>
      <point x="132" y="513"/>
    </contour>
    <contour>
      <point x="183" y="541" type="curve" smooth="yes"/>
      <point x="155" y="541"/>
      <point x="128" y="558"/>
      <point x="128" y="593" type="curve" smooth="yes"/>
      <point x="128" y="623"/>
      <point x="154" y="637"/>
      <point x="182" y="637" type="curve" smooth="yes"/>
      <point x="211" y="637"/>
      <point x="237" y="624"/>
      <point x="237" y="592" type="curve" smooth="yes"/>
      <point x="237" y="559"/>
      <point x="212" y="541"/>
    </contour>
  </outline>
</glyph>
<glyph name="plusminus" format="2">
  <advance width="600"/>
  <unicode hex="00B1"/>
  <outline>
    <contour>
      <point x="48" y="0" type="line"/>
      <point x="532" y="0" type="line"/>
      <point x="532" y="70" type="line"/>
      <point x="296" y="46" type="line"/>
      <point x="48" y="59" type="line"/>
    </contour>
    <contour>
      <point x="269" y="191" type="line"/>
      <point x="345" y="191" type="line"/>
      <point x="314" y="435" type="line"/>
      <point x="549" y="407" type="line"/>
      <point x="549" y="477" type="line"/>
      <point x="314" y="442" type="line"/>
      <point x="345" y="682" type="line"/>
      <point x="269" y="682" type="line"/>
      <point x="305" y="442" type="line"/>
      <point x="65" y="466" type="line"/>
      <point x="65" y="407" type="line"/>
      <point x="305" y="435" type="line"/>
    </contour>
  </outline>
</glyph>
<glyph name="acute" format="2">
  <advance width="259"/>
  <unicode hex="00B4"/>
  <outline>
    <contour>
      <point x="25" y="506" type="line"/>
      <point x="226" y="674" type="line"/>
      <point x="141" y="674" type="line"/>
      <point x="19" y="512" type="line"/>
    </contour>
  </outline>
</glyph>
<glyph name="micro" format="2">
  <advance width="600"/>
  <unicode hex="00B5"/>
  <outline>
    <contour>
      <point x="74" y="-146" type="curve"/>
      <point x="132" y="-146" type="line"/>
      <point x="132" y="17" type="line"/>
      <point x="136" y="21" type="line"/>
      <point x="179" y="-1"/>
      <point x="219" y="-13"/>
      <point x="257" y="-13" type="curve" smooth="yes"/>
      <point x="311" y="-13"/>
      <point x="360" y="11"/>
      <point x="403" y="65" type="curve"/>
      <point x="406" y="36"/>
      <point x="425" y="0"/>
      <point x="477" y="0" type="curve" smooth="yes"/>
      <point x="492" y="0" type="line"/>
      <point x="493" y="8" type="line"/>
      <point x="467" y="21"/>
      <point x="466" y="35"/>
      <point x="466" y="62" type="curve" smooth="yes"/>
      <point x="466" y="416" type="line" smooth="yes"/>
      <point x="466" y="460"/>
      <point x="468" y="476"/>
      <point x="476" y="500" type="curve"/>
      <point x="330" y="500" type="line"/>
      <point x="330" y="493" type="line"/>
      <point x="350" y="493" type="line" smooth="yes"/>
      <point x="386" y="493"/>
      <point x="402" y="470"/>
      <point x="402" y="416" type="curve" smooth="yes"/>
      <point x="402" y="95" type="line"/>
      <point x="374" y="50"/>
      <point x="322" y="25"/>
      <point x="271" y="25" type="curve" smooth="yes"/>
      <point x="200" y="25"/>
      <point x="132" y="73"/>
      <point x="132" y="180" type="curve" smooth="yes"/>
      <point x="132" y="416" type="line" smooth="yes"/>
      <point x="132" y="460"/>
      <point x="134" y="476"/>
      <point x="142" y="500" type="curve"/>
      <point x="10" y="500" type="line"/>
      <point x="10" y="493" type="line"/>
      <point x="26" y="493" type="line" smooth="yes"/>
      <point x="55" y="493"/>
      <point x="68" y="473"/>
      <point x="68" y="423" type="curve" smooth="yes"/>
      <point x="68" y="80" type="line" smooth="yes"/>
      <point x="68" y="-36"/>
      <point x="70" y="-82"/>
    </contour>
  </outline>
</glyph>
<glyph name="paragraph" format="2">
  <advance width="929"/>
  <unicode hex="00B6"/>
  <outline>
    <contour>
      <point x="194" y="-479" type="curve"/>
      <point x="197" y="-485" type="line"/>
      <point x="533" y="-381"/>
      <point x="674" y="-168"/>
      <point x="674" y="112" type="curve" smooth="yes"/>
      <point x="674" y="652" type="line" smooth="yes"/>
      <point x="674" y="697"/>
      <point x="690" y="716"/>
      <point x="726" y="716" type="curve" smooth="yes"/>
      <point x="746" y="716" type="line"/>
      <point x="746" y="722" type="line"/>
      <point x="603" y="722" type="line"/>
      <point x="604" y="646" type="line"/>
      <point x="530" y="707"/>
      <point x="447" y="735"/>
      <point x="368" y="735" type="curve" smooth="yes"/>
      <point x="195" y="735"/>
      <point x="50" y="594"/>
      <point x="50" y="392" type="curve" smooth="yes"/>
      <point x="50" y="168"/>
      <point x="226" y="-3"/>
      <point x="418" y="-3" type="curve" smooth="yes"/>
      <point x="482" y="-3"/>
      <point x="547" y="17"/>
      <point x="605" y="62" type="curve"/>
      <point x="605" y="29" type="line" smooth="yes"/>
      <point x="605" y="-180"/>
      <point x="495" y="-382"/>
    </contour>
    <contour>
      <point x="413" y="18" type="curve" smooth="yes"/>
      <point x="261" y="18"/>
      <point x="128" y="196"/>
      <point x="128" y="399" type="curve" smooth="yes"/>
      <point x="128" y="577"/>
      <point x="243" y="705"/>
      <point x="382" y="705" type="curve" smooth="yes"/>
      <point x="454" y="705"/>
      <point x="532" y="676"/>
      <point x="604" y="612" type="curve"/>
      <point x="604" y="186" type="line" smooth="yes"/>
      <point x="604" y="78"/>
      <point x="507" y="18"/>
    </contour>
    <contour>
      <point x="456" y="-456" type="curve"/>
      <point x="461" y="-461" type="line"/>
      <point x="768" y="-285"/>
      <point x="807" y="-90"/>
      <point x="807" y="179" type="curve" smooth="yes"/>
      <point x="807" y="569" type="line" smooth="yes"/>
      <point x="807" y="614"/>
      <point x="823" y="633"/>
      <point x="859" y="633" type="curve" smooth="yes"/>
      <point x="879" y="633" type="line"/>
      <point x="879" y="639" type="line"/>
      <point x="743" y="639" type="line"/>
      <point x="747" y="90" type="line" smooth="yes"/>
      <point x="749" y="-143"/>
      <point x="691" y="-329"/>
    </contour>
  </outline>
</glyph>
<glyph name="periodcentered" format="2">
  <advance width="325"/>
  <unicode hex="00B7"/>
  <outline>
    <contour>
      <point x="163" y="145" type="curve"/>
      <point x="171" y="174"/>
      <point x="185" y="204"/>
      <point x="205" y="228" type="curve"/>
      <point x="217" y="225"/>
      <point x="228" y="220"/>
      <point x="238" y="212" type="curve"/>
      <point x="233" y="225"/>
      <point x="229" y="238"/>
      <point x="226" y="251" type="curve"/>
      <point x="246" y="268"/>
      <point x="268" y="279"/>
      <point x="293" y="282" type="curve"/>
      <point x="268" y="293"/>
      <point x="247" y="307"/>
      <point x="228" y="324" type="curve"/>
      <point x="231" y="335"/>
      <point x="235" y="347"/>
      <point x="240" y="359" type="curve"/>
      <point x="229" y="353"/>
      <point x="218" y="348"/>
      <point x="207" y="344" type="curve"/>
      <point x="189" y="364"/>
      <point x="175" y="388"/>
      <point x="163" y="416" type="curve"/>
      <point x="156" y="389"/>
      <point x="144" y="364"/>
      <point x="127" y="343" type="curve"/>
      <point x="115" y="346"/>
      <point x="103" y="351"/>
      <point x="91" y="357" type="curve"/>
      <point x="97" y="346"/>
      <point x="102" y="334"/>
      <point x="106" y="322" type="curve"/>
      <point x="86" y="305"/>
      <point x="62" y="292"/>
      <point x="34" y="282" type="curve"/>
      <point x="60" y="276"/>
      <point x="85" y="263"/>
      <point x="105" y="246" type="curve"/>
      <point x="101" y="232"/>
      <point x="95" y="220"/>
      <point x="86" y="208" type="curve"/>
      <point x="98" y="215"/>
      <point x="112" y="221"/>
      <point x="126" y="225" type="curve"/>
      <point x="146" y="202"/>
      <point x="159" y="174"/>
    </contour>
    <contour>
      <point x="136" y="283" type="curve"/>
      <point x="153" y="291"/>
      <point x="162" y="299"/>
      <point x="166" y="313" type="curve"/>
      <point x="170" y="299"/>
      <point x="180" y="291"/>
      <point x="195" y="283" type="curve"/>
      <point x="180" y="282"/>
      <point x="170" y="269"/>
      <point x="166" y="255" type="curve"/>
      <point x="162" y="269"/>
      <point x="153" y="281"/>
    </contour>
  </outline>
</glyph>
<glyph name="guillemetright" format="2">
  <advance width="556"/>
  <unicode hex="00BB"/>
  <note>
guillemotleft
</note>
  <outline>
    <contour>
      <point x="43" y="8" type="curve"/>
      <point x="46" y="0" type="line"/>
      <point x="129" y="8"/>
      <point x="170" y="18"/>
      <point x="202" y="58" type="curve" smooth="yes"/>
      <point x="256" y="124"/>
      <point x="324" y="225"/>
      <point x="362" y="253" type="curve"/>
      <point x="362" y="257" type="line"/>
      <point x="349" y="266"/>
      <point x="332" y="283"/>
      <point x="319" y="301" type="curve"/>
      <point x="221" y="420" type="line" smooth="yes"/>
      <point x="204" y="439"/>
      <point x="191" y="461"/>
      <point x="191" y="476" type="curve" smooth="yes"/>
      <point x="191" y="494"/>
      <point x="212" y="500"/>
      <point x="235" y="500" type="curve" smooth="yes"/>
      <point x="296" y="500"/>
      <point x="295" y="479"/>
      <point x="331" y="432" type="curve" smooth="yes"/>
      <point x="460" y="271" type="line"/>
      <point x="415" y="239"/>
      <point x="353" y="141"/>
      <point x="300" y="74" type="curve"/>
      <point x="275" y="46"/>
      <point x="251" y="17"/>
      <point x="213" y="8" type="curve"/>
      <point x="216" y="0" type="line"/>
      <point x="300" y="8"/>
      <point x="339" y="18"/>
      <point x="372" y="58" type="curve" smooth="yes"/>
      <point x="425" y="124"/>
      <point x="493" y="225"/>
      <point x="532" y="253" type="curve"/>
      <point x="532" y="257" type="line"/>
      <point x="518" y="266"/>
      <point x="503" y="283"/>
      <point x="490" y="301" type="curve"/>
      <point x="389" y="420" type="line" smooth="yes"/>
      <point x="359" y="456"/>
      <point x="350" y="488"/>
      <point x="389" y="502" type="curve"/>
      <point x="389" y="506" type="line"/>
      <point x="56" y="506" type="line"/>
      <point x="56" y="502" type="line"/>
      <point x="105" y="500"/>
      <point x="122" y="481"/>
      <point x="163" y="432" type="curve" smooth="yes"/>
      <point x="290" y="271" type="line"/>
      <point x="244" y="239"/>
      <point x="182" y="141"/>
      <point x="129" y="74" type="curve" smooth="yes"/>
      <point x="106" y="46"/>
      <point x="83" y="17"/>
    </contour>
  </outline>
</glyph>
<glyph name="AE" format="2">
  <advance width="845"/>
  <unicode hex="00C6"/>
  <anchor x="408" y="0" name="bottom"/>
  <anchor x="408" y="722" name="top"/>
  <outline>
    <contour>
      <point x="42" y="-11" type="curve"/>
      <point x="48" y="-11" type="line"/>
      <point x="132" y="73"/>
      <point x="274" y="213"/>
      <point x="382" y="331" type="curve"/>
      <point x="382" y="84" type="line" smooth="yes"/>
      <point x="382" y="40"/>
      <point x="380" y="24"/>
      <point x="372" y="0" type="curve"/>
      <point x="766" y="0" type="line"/>
      <point x="782" y="53"/>
      <point x="799" y="106"/>
      <point x="815" y="159" type="curve"/>
      <point x="807" y="163" type="line"/>
      <point x="748" y="46"/>
      <point x="653" y="26"/>
      <point x="455" y="26" type="curve"/>
      <point x="454" y="417" type="line"/>
      <point x="598" y="417" type="line" smooth="yes"/>
      <point x="677" y="417"/>
      <point x="717" y="408"/>
      <point x="750" y="365" type="curve"/>
      <point x="754" y="367" type="line"/>
      <point x="754" y="483" type="line"/>
      <point x="750" y="485" type="line"/>
      <point x="717" y="453"/>
      <point x="677" y="433"/>
      <point x="598" y="433" type="curve" smooth="yes"/>
      <point x="454" y="433" type="line"/>
      <point x="454" y="704" type="line"/>
      <point x="557" y="704" type="line" smooth="yes"/>
      <point x="665" y="704"/>
      <point x="697" y="690"/>
      <point x="756" y="587" type="curve"/>
      <point x="763" y="590" type="line"/>
      <point x="724" y="722" type="line"/>
      <point x="309" y="722" type="line"/>
      <point x="309" y="716" type="line"/>
      <point x="329" y="716" type="line" smooth="yes"/>
      <point x="365" y="716"/>
      <point x="381" y="697"/>
      <point x="381" y="652" type="curve" smooth="yes"/>
      <point x="381" y="593" type="line"/>
      <point x="267" y="546"/>
      <point x="177" y="464"/>
      <point x="115" y="368" type="curve" smooth="yes"/>
      <point x="39" y="248"/>
      <point x="11" y="109"/>
    </contour>
    <contour>
      <point x="124" y="107" type="curve"/>
      <point x="78" y="269"/>
      <point x="190" y="484"/>
      <point x="381" y="572" type="curve"/>
      <point x="382" y="386" type="line"/>
      <point x="299" y="269"/>
      <point x="218" y="188"/>
    </contour>
  </outline>
</glyph>
<glyph name="multiply" format="2">
  <advance width="702"/>
  <unicode hex="00D7"/>
  <note>
multiply
</note>
  <outline>
    <contour>
      <point x="268" y="0" type="curve"/>
      <point x="229" y="87"/>
      <point x="297" y="170"/>
      <point x="355" y="233" type="curve"/>
      <point x="407" y="165"/>
      <point x="469" y="98"/>
      <point x="441" y="1" type="curve"/>
      <point x="519" y="8"/>
      <point x="578" y="-2"/>
      <point x="598" y="0" type="curve"/>
      <point x="602" y="64"/>
      <point x="593" y="105"/>
      <point x="598" y="164" type="curve"/>
      <point x="511" y="125"/>
      <point x="445" y="186"/>
      <point x="368" y="246" type="curve"/>
      <point x="431" y="301"/>
      <point x="498" y="365"/>
      <point x="598" y="336" type="curve"/>
      <point x="591" y="410"/>
      <point x="606" y="452"/>
      <point x="598" y="500" type="curve"/>
      <point x="543" y="489"/>
      <point x="492" y="508"/>
      <point x="439" y="493" type="curve"/>
      <point x="465" y="397"/>
      <point x="411" y="323"/>
      <point x="355" y="261" type="curve"/>
      <point x="299" y="341"/>
      <point x="242" y="402"/>
      <point x="265" y="499" type="curve"/>
      <point x="207" y="488"/>
      <point x="160" y="515"/>
      <point x="102" y="496" type="curve"/>
      <point x="108" y="449"/>
      <point x="98" y="381"/>
      <point x="108" y="333" type="curve"/>
      <point x="207" y="369"/>
      <point x="279" y="303"/>
      <point x="339" y="246" type="curve"/>
      <point x="272" y="194"/>
      <point x="204" y="130"/>
      <point x="105" y="157" type="curve"/>
      <point x="93" y="95"/>
      <point x="113" y="50"/>
      <point x="108" y="1" type="curve"/>
      <point x="168" y="8"/>
      <point x="204" y="-4"/>
    </contour>
  </outline>
</glyph>
<glyph name="Thorn" format="2">
  <advance width="688"/>
  <unicode hex="00DE"/>
  <anchor x="416" y="0" name="bottom"/>
  <anchor x="583" y="0" name="bottom_1"/>
  <anchor x="1260" y="0" name="bottom_2"/>
  <anchor x="922" y="0" name="caret_1"/>
  <anchor x="416" y="722" name="top"/>
  <anchor x="583" y="722" name="top_1"/>
  <anchor x="1260" y="722" name="top_2"/>
  <outline>
    <contour>
      <point x="152" y="169" type="line"/>
      <point x="205" y="104" type="line"/>
      <point x="205" y="129" type="line"/>
      <point x="251" y="95"/>
      <point x="302" y="79"/>
      <point x="351" y="79" type="curve" smooth="yes"/>
      <point x="539" y="79"/>
      <point x="638" y="239"/>
      <point x="638" y="389" type="curve" smooth="yes"/>
      <point x="638" y="525"/>
      <point x="558" y="653"/>
      <point x="390" y="653" type="curve" smooth="yes"/>
      <point x="329" y="653"/>
      <point x="264" y="632"/>
      <point x="206" y="584" type="curve"/>
      <point x="207" y="643" type="line"/>
      <point x="152" y="643" type="line"/>
    </contour>
    <contour>
      <point x="206" y="232" type="curve" smooth="yes"/>
      <point x="206" y="554" type="line"/>
      <point x="262" y="603"/>
      <point x="323" y="626"/>
      <point x="379" y="626" type="curve" smooth="yes"/>
      <point x="503" y="626"/>
      <point x="559" y="511"/>
      <point x="559" y="389" type="curve" smooth="yes"/>
      <point x="559" y="250"/>
      <point x="486" y="102"/>
      <point x="355" y="102" type="curve" smooth="yes"/>
      <point x="282" y="102"/>
      <point x="206" y="148"/>
    </contour>
    <component base="I" xOffset="40"/>
  </outline>
</glyph>
<glyph name="germandbls" format="2">
  <advance width="552"/>
  <unicode hex="00DF"/>
  <anchor x="259" y="0" name="bottom"/>
  <anchor x="259" y="500" name="top"/>
  <outline>
    <contour>
      <point x="40" y="-196" type="curve"/>
      <point x="48" y="-200" type="line"/>
      <point x="97" y="-110"/>
      <point x="122" y="-54"/>
      <point x="168" y="0" type="curve"/>
      <point x="167" y="563" type="line" smooth="yes"/>
      <point x="167" y="661"/>
      <point x="198" y="716"/>
      <point x="260" y="717" type="curve" smooth="yes"/>
      <point x="350" y="718"/>
      <point x="406" y="602"/>
      <point x="385" y="530" type="curve" smooth="yes"/>
      <point x="378" y="506"/>
      <point x="286" y="437"/>
      <point x="251" y="389" type="curve"/>
      <point x="258" y="201"/>
      <point x="448" y="235"/>
      <point x="469" y="120" type="curve" smooth="yes"/>
      <point x="481" y="55"/>
      <point x="440" y="8"/>
      <point x="378" y="8" type="curve" smooth="yes"/>
      <point x="331" y="8"/>
      <point x="279" y="57"/>
      <point x="277" y="154" type="curve"/>
      <point x="271" y="154" type="line"/>
      <point x="271" y="116"/>
      <point x="249" y="73"/>
      <point x="231" y="51" type="curve"/>
      <point x="257" y="6"/>
      <point x="314" y="-12"/>
      <point x="362" y="-12" type="curve" smooth="yes"/>
      <point x="455" y="-12"/>
      <point x="522" y="56"/>
      <point x="522" y="133" type="curve" smooth="yes"/>
      <point x="522" y="264"/>
      <point x="295" y="272"/>
      <point x="295" y="383" type="curve" smooth="yes"/>
      <point x="295" y="450"/>
      <point x="441" y="512"/>
      <point x="446" y="538" type="curve" smooth="yes"/>
      <point x="466" y="643"/>
      <point x="387" y="739"/>
      <point x="281" y="739" type="curve" smooth="yes"/>
      <point x="191" y="739"/>
      <point x="108" y="682"/>
      <point x="108" y="556" type="curve" smooth="yes"/>
      <point x="108" y="500" type="line"/>
      <point x="84" y="478" type="line"/>
      <point x="84" y="468" type="line"/>
      <point x="108" y="463" type="line"/>
      <point x="108" y="12" type="line" smooth="yes"/>
      <point x="108" y="-51"/>
      <point x="69" y="-133"/>
    </contour>
  </outline>
</glyph>
<glyph name="ae" format="2">
  <advance width="805"/>
  <unicode hex="00E6"/>
  <anchor x="402" y="0" name="bottom"/>
  <anchor x="402" y="500" name="top"/>
  <outline>
    <contour>
      <point x="190" y="-12" type="curve" smooth="yes"/>
      <point x="272" y="-12"/>
      <point x="343" y="41"/>
      <point x="371" y="115" type="curve"/>
      <point x="408" y="33"/>
      <point x="487" y="-9"/>
      <point x="577" y="-9" type="curve" smooth="yes"/>
      <point x="653" y="-9"/>
      <point x="741" y="38"/>
      <point x="775" y="132" type="curve"/>
      <point x="769" y="136" type="line"/>
      <point x="737" y="68"/>
      <point x="669" y="32"/>
      <point x="600" y="32" type="curve" smooth="yes"/>
      <point x="451" y="32"/>
      <point x="379" y="189"/>
      <point x="395" y="302" type="curve"/>
      <point x="746" y="302" type="line"/>
      <point x="754" y="316" type="line"/>
      <point x="747" y="447"/>
      <point x="661" y="507"/>
      <point x="569" y="507" type="curve" smooth="yes"/>
      <point x="474" y="507"/>
      <point x="372" y="442"/>
      <point x="342" y="323" type="curve"/>
      <point x="278" y="461" type="line" smooth="yes"/>
      <point x="269" y="481"/>
      <point x="267" y="488"/>
      <point x="268" y="500" type="curve"/>
      <point x="104" y="500" type="line"/>
      <point x="104" y="493" type="line"/>
      <point x="136" y="493" type="line" smooth="yes"/>
      <point x="193" y="493"/>
      <point x="205" y="467"/>
      <point x="228" y="418" type="curve" smooth="yes"/>
      <point x="259" y="352" type="line"/>
      <point x="124" y="344"/>
      <point x="30" y="263"/>
      <point x="30" y="150" type="curve" smooth="yes"/>
      <point x="30" y="55"/>
      <point x="96" y="-12"/>
    </contour>
    <contour>
      <point x="86" y="162" type="curve" smooth="yes"/>
      <point x="86" y="259"/>
      <point x="156" y="325"/>
      <point x="266" y="335" type="curve"/>
      <point x="361" y="131" type="line"/>
      <point x="334" y="71"/>
      <point x="277" y="32"/>
      <point x="212" y="32" type="curve" smooth="yes"/>
      <point x="137" y="32"/>
      <point x="86" y="83"/>
    </contour>
    <contour>
      <point x="684" y="329" type="curve"/>
      <point x="398" y="329" type="line"/>
      <point x="412" y="414"/>
      <point x="463" y="482"/>
      <point x="549" y="482" type="curve" smooth="yes"/>
      <point x="616" y="482"/>
      <point x="682" y="433"/>
    </contour>
  </outline>
</glyph>
<glyph name="eth" format="2">
  <advance width="554"/>
  <unicode hex="00F0"/>
  <outline>
    <contour>
      <point x="322" y="-7" type="curve" smooth="yes"/>
      <point x="463" y="17"/>
      <point x="543" y="153"/>
      <point x="514" y="320" type="curve" smooth="yes"/>
      <point x="481" y="507"/>
      <point x="334" y="670"/>
      <point x="111" y="731" type="curve"/>
      <point x="109" y="724" type="line"/>
      <point x="297" y="644"/>
      <point x="403" y="505"/>
      <point x="432" y="341" type="curve" smooth="yes"/>
      <point x="462" y="170"/>
      <point x="405" y="31"/>
      <point x="300" y="12" type="curve" smooth="yes"/>
      <point x="202" y="-5"/>
      <point x="137" y="70"/>
      <point x="122" y="156" type="curve" smooth="yes"/>
      <point x="106" y="249"/>
      <point x="147" y="356"/>
      <point x="267" y="377" type="curve" smooth="yes"/>
      <point x="306" y="384"/>
      <point x="348" y="378"/>
      <point x="385" y="358" type="curve"/>
      <point x="388" y="364" type="line"/>
      <point x="314" y="411"/>
      <point x="257" y="423"/>
      <point x="246" y="434" type="curve"/>
      <point x="85" y="416"/>
      <point x="33" y="304"/>
      <point x="52" y="197" type="curve" smooth="yes"/>
      <point x="73" y="80"/>
      <point x="180" y="-33"/>
    </contour>
    <component base="hyphen" xScale="0.809" xyScale="0.5878" yScale="-0.6509" yxScale="0.4729" xOffset="-18" yOffset="675"/>
  </outline>
</glyph>
<glyph name="divide" format="2">
  <advance width="614"/>
  <unicode hex="00F7"/>
  <outline>
    <contour>
      <point x="304" y="384" type="line"/>
      <point x="315" y="384" type="line"/>
      <point x="345" y="513" type="line"/>
      <point x="269" y="513" type="line"/>
    </contour>
    <contour>
      <point x="305" y="260" type="line"/>
      <point x="314" y="260" type="line"/>
      <point x="549" y="238" type="line"/>
      <point x="549" y="308" type="line"/>
      <point x="314" y="279" type="line"/>
      <point x="305" y="279" type="line"/>
      <point x="65" y="297" type="line"/>
      <point x="65" y="238" type="line"/>
    </contour>
    <contour>
      <point x="315" y="157" type="line"/>
      <point x="304" y="157" type="line"/>
      <point x="269" y="22" type="line"/>
      <point x="345" y="22" type="line"/>
    </contour>
  </outline>
</glyph>
<glyph name="idotless" format="2">
  <advance width="216"/>
  <unicode hex="0131"/>
  <anchor x="158" y="0" name="ogonek"/>
  <anchor x="120" y="500" name="top"/>
  <outline>
    <contour>
      <point x="80" y="0" type="curve"/>
      <point x="166" y="0" type="line"/>
      <point x="158" y="25"/>
      <point x="156" y="45"/>
      <point x="156" y="95" type="curve" smooth="yes"/>
      <point x="156" y="416" type="line" smooth="yes"/>
      <point x="156" y="460"/>
      <point x="158" y="476"/>
      <point x="164" y="500" type="curve"/>
      <point x="10" y="500" type="line"/>
      <point x="10" y="493" type="line"/>
      <point x="33" y="493" type="line" smooth="yes"/>
      <point x="74" y="493"/>
      <point x="92" y="469"/>
      <point x="92" y="413" type="curve" smooth="yes"/>
      <point x="92" y="105" type="line" smooth="yes"/>
      <point x="92" y="50"/>
      <point x="90" y="30"/>
    </contour>
  </outline>
</glyph>
<glyph name="Eng" format="2">
  <advance width="765"/>
  <unicode hex="014A"/>
  <outline>
    <contour>
      <point x="530" y="-172" type="curve"/>
      <point x="537" y="-183" type="line"/>
      <point x="629" y="-139"/>
      <point x="688" y="-59"/>
      <point x="709" y="-26" type="curve"/>
      <point x="709" y="15" type="line"/>
      <point x="636" y="62" type="line"/>
      <point x="657" y="39"/>
      <point x="664" y="18"/>
      <point x="664" y="-3" type="curve" smooth="yes"/>
      <point x="664" y="-70"/>
      <point x="592" y="-143"/>
    </contour>
    <component base="N" identifier="BE6FDAB0"/>
  </outline>
</glyph>
<glyph name="eng" format="2">
  <advance width="510"/>
  <unicode hex="014B"/>
  <outline>
    <contour>
      <point x="238" y="-143" type="curve"/>
      <point x="238" y="-149" type="line"/>
      <point x="477" y="-154"/>
      <point x="480" y="0"/>
      <point x="480" y="104" type="curve" smooth="yes"/>
      <point x="480" y="305" type="line" smooth="yes"/>
      <point x="480" y="455"/>
      <point x="407" y="510"/>
      <point x="319" y="510" type="curve" smooth="yes"/>
      <point x="262" y="510"/>
      <point x="198" y="487"/>
      <point x="144" y="451" type="curve"/>
      <point x="144" y="500" type="line"/>
      <point x="10" y="500" type="line"/>
      <point x="10" y="494" type="line"/>
      <point x="30" y="494" type="line" smooth="yes"/>
      <point x="66" y="494"/>
      <point x="82" y="475"/>
      <point x="82" y="430" type="curve" smooth="yes"/>
      <point x="82" y="84" type="line" smooth="yes"/>
      <point x="82" y="40"/>
      <point x="80" y="24"/>
      <point x="72" y="0" type="curve"/>
      <point x="154" y="0" type="line"/>
      <point x="146" y="24"/>
      <point x="144" y="40"/>
      <point x="144" y="84" type="curve" smooth="yes"/>
      <point x="144" y="394" type="line"/>
      <point x="187" y="446"/>
      <point x="250" y="489"/>
      <point x="304" y="489" type="curve" smooth="yes"/>
      <point x="361" y="489"/>
      <point x="408" y="441"/>
      <point x="408" y="307" type="curve" smooth="yes"/>
      <point x="408" y="56" type="line" smooth="yes"/>
      <point x="408" y="-139"/>
      <point x="331" y="-139"/>
    </contour>
  </outline>
</glyph>
<glyph name="OE" format="2">
  <advance width="1046"/>
  <unicode hex="0152"/>
  <anchor x="673" y="0" name="bottom"/>
  <anchor x="673" y="722" name="top"/>
  <outline>
    <contour>
      <point x="427" y="-17" type="curve" smooth="yes"/>
      <point x="489" y="-17"/>
      <point x="541" y="0"/>
      <point x="599" y="0" type="curve" smooth="yes"/>
      <point x="967" y="0" type="line"/>
      <point x="1016" y="159" type="line"/>
      <point x="1008" y="163" type="line"/>
      <point x="949" y="46"/>
      <point x="811" y="26"/>
      <point x="655" y="26" type="curve"/>
      <point x="655" y="417" type="line"/>
      <point x="799" y="417" type="line" smooth="yes"/>
      <point x="878" y="417"/>
      <point x="918" y="408"/>
      <point x="951" y="365" type="curve"/>
      <point x="957" y="369" type="line"/>
      <point x="957" y="480" type="line"/>
      <point x="951" y="485" type="line"/>
      <point x="918" y="453"/>
      <point x="878" y="433"/>
      <point x="799" y="433" type="curve" smooth="yes"/>
      <point x="655" y="433" type="line"/>
      <point x="655" y="704" type="line"/>
      <point x="758" y="704" type="line" smooth="yes"/>
      <point x="866" y="704"/>
      <point x="898" y="690"/>
      <point x="957" y="587" type="curve"/>
      <point x="964" y="590" type="line"/>
      <point x="925" y="722" type="line"/>
      <point x="587" y="722" type="line" smooth="yes"/>
      <point x="533" y="722"/>
      <point x="494" y="733"/>
      <point x="426" y="733" type="curve" smooth="yes"/>
      <point x="228" y="733"/>
      <point x="50" y="611"/>
      <point x="50" y="360" type="curve" smooth="yes"/>
      <point x="50" y="109"/>
      <point x="229" y="-17"/>
    </contour>
    <contour>
      <point x="435" y="6" type="curve" smooth="yes"/>
      <point x="225" y="6"/>
      <point x="122" y="191"/>
      <point x="122" y="371" type="curve" smooth="yes"/>
      <point x="122" y="542"/>
      <point x="215" y="710"/>
      <point x="421" y="710" type="curve" smooth="yes"/>
      <point x="546" y="710"/>
      <point x="585" y="695"/>
      <point x="585" y="577" type="curve" smooth="yes"/>
      <point x="585" y="85" type="line" smooth="yes"/>
      <point x="585" y="20"/>
      <point x="511" y="6"/>
    </contour>
  </outline>
</glyph>
<glyph name="tbar" format="2">
  <advance width="272"/>
  <unicode hex="0167"/>
  <outline>
    <contour>
      <point x="92" y="0" type="curve"/>
      <point x="174" y="0" type="line"/>
      <point x="168" y="20"/>
      <point x="166" y="36"/>
      <point x="166" y="76" type="curve" smooth="yes"/>
      <point x="166" y="516" type="line" smooth="yes"/>
      <point x="166" y="554"/>
      <point x="172" y="692"/>
      <point x="186" y="729" type="curve"/>
      <point x="181" y="732" type="line"/>
      <point x="82" y="588" type="line"/>
      <point x="82" y="584" type="line"/>
      <point x="96" y="560"/>
      <point x="102" y="540"/>
      <point x="102" y="504" type="curve" smooth="yes"/>
      <point x="102" y="84" type="line" smooth="yes"/>
      <point x="102" y="40"/>
      <point x="100" y="24"/>
    </contour>
    <contour>
      <point x="20" y="449" type="line"/>
      <point x="36" y="459"/>
      <point x="59" y="463"/>
      <point x="93" y="463" type="curve" smooth="yes"/>
      <point x="240" y="463" type="line"/>
      <point x="252" y="502" type="line"/>
      <point x="240" y="494"/>
      <point x="222" y="490"/>
      <point x="190" y="490" type="curve" smooth="yes"/>
      <point x="32" y="490" type="line"/>
    </contour>
    <contour>
      <point x="20" y="311" type="line"/>
      <point x="36" y="321"/>
      <point x="59" y="325"/>
      <point x="93" y="325" type="curve" smooth="yes"/>
      <point x="240" y="325" type="line"/>
      <point x="252" y="364" type="line"/>
      <point x="240" y="356"/>
      <point x="222" y="352"/>
      <point x="190" y="352" type="curve" smooth="yes"/>
      <point x="32" y="352" type="line"/>
    </contour>
  </outline>
</glyph>
<glyph name="Uring" format="2">
  <advance width="646"/>
  <unicode hex="016E"/>
  <anchor x="338" y="0" name="bottom"/>
  <anchor x="609" y="10" name="ogonek"/>
  <anchor x="338" y="873" name="top"/>
  <anchor x="657" y="722" name="topright"/>
  <outline>
    <contour>
      <point x="65" y="638" type="curve" smooth="yes"/>
      <point x="65" y="251" type="line" smooth="yes"/>
      <point x="65" y="39"/>
      <point x="193" y="-18"/>
      <point x="314" y="-18" type="curve" smooth="yes"/>
      <point x="439" y="-18"/>
      <point x="566" y="47"/>
      <point x="566" y="273" type="curve" smooth="yes"/>
      <point x="566" y="633" type="line" smooth="yes"/>
      <point x="567" y="678"/>
      <point x="571" y="706"/>
      <point x="585" y="734" type="curve"/>
      <point x="545" y="735"/>
      <point x="500" y="728"/>
      <point x="456" y="728" type="curve" smooth="yes"/>
      <point x="391" y="728"/>
      <point x="331" y="748"/>
      <point x="331" y="812" type="curve" smooth="yes"/>
      <point x="331" y="846"/>
      <point x="353" y="879"/>
      <point x="391" y="879" type="curve" smooth="yes"/>
      <point x="446" y="879"/>
      <point x="461" y="818"/>
      <point x="436" y="778" type="curve"/>
      <point x="441" y="775" type="line"/>
      <point x="472" y="823"/>
      <point x="449" y="908"/>
      <point x="373" y="908" type="curve" smooth="yes"/>
      <point x="327" y="908"/>
      <point x="293" y="871"/>
      <point x="293" y="829" type="curve" smooth="yes"/>
      <point x="293" y="784"/>
      <point x="331" y="734"/>
      <point x="435" y="714" type="curve" smooth="yes"/>
      <point x="497" y="702"/>
      <point x="540" y="695"/>
      <point x="540" y="633" type="curve" smooth="yes"/>
      <point x="540" y="267" type="line" smooth="yes"/>
      <point x="540" y="74"/>
      <point x="433" y="25"/>
      <point x="330" y="25" type="curve" smooth="yes"/>
      <point x="233" y="25"/>
      <point x="135" y="60"/>
      <point x="135" y="240" type="curve" smooth="yes"/>
      <point x="135" y="652" type="line" smooth="yes"/>
      <point x="135" y="697"/>
      <point x="156" y="716"/>
      <point x="203" y="716" type="curve" smooth="yes"/>
      <point x="229" y="716" type="line"/>
      <point x="229" y="722" type="line"/>
      <point x="55" y="722" type="line"/>
      <point x="63" y="698"/>
      <point x="65" y="682"/>
    </contour>
  </outline>
</glyph>
<glyph name="florin" format="2">
  <advance width="604"/>
  <unicode hex="0192"/>
  <outline>
    <contour>
      <point x="298" y="535" type="curve" smooth="yes"/>
      <point x="279" y="384" type="line"/>
      <point x="170" y="384" type="line"/>
      <point x="154" y="343" type="line"/>
      <point x="162" y="340" type="line"/>
      <point x="170" y="353"/>
      <point x="185" y="354"/>
      <point x="217" y="354" type="curve" smooth="yes"/>
      <point x="275" y="354" type="line"/>
      <point x="248" y="141" type="line" smooth="yes"/>
      <point x="235" y="41"/>
      <point x="211" y="-19"/>
      <point x="148" y="-19" type="curve" smooth="yes"/>
      <point x="86" y="-19"/>
      <point x="56" y="32"/>
      <point x="78" y="137" type="curve"/>
      <point x="72" y="139" type="line"/>
      <point x="12" y="46" type="line"/>
      <point x="47" y="-14"/>
      <point x="94" y="-38"/>
      <point x="151" y="-38" type="curve" smooth="yes"/>
      <point x="232" y="-38"/>
      <point x="296" y="27"/>
      <point x="312" y="157" type="curve" smooth="yes"/>
      <point x="337" y="354" type="line"/>
      <point x="451" y="354" type="line"/>
      <point x="467" y="395" type="line"/>
      <point x="459" y="398" type="line"/>
      <point x="451" y="385"/>
      <point x="436" y="384"/>
      <point x="404" y="384" type="curve" smooth="yes"/>
      <point x="341" y="384" type="line"/>
      <point x="362" y="551" type="line" smooth="yes"/>
      <point x="375" y="651"/>
      <point x="399" y="711"/>
      <point x="462" y="711" type="curve" smooth="yes"/>
      <point x="524" y="711"/>
      <point x="554" y="660"/>
      <point x="532" y="555" type="curve"/>
      <point x="538" y="553" type="line"/>
      <point x="598" y="646" type="line"/>
      <point x="563" y="706"/>
      <point x="516" y="730"/>
      <point x="459" y="730" type="curve" smooth="yes"/>
      <point x="378" y="730"/>
      <point x="314" y="665"/>
    </contour>
  </outline>
</glyph>
<glyph name="circumflex" format="2">
  <advance width="354"/>
  <unicode hex="02C6"/>
  <outline>
    <contour>
      <point x="32" y="501" type="line"/>
      <point x="178" y="611" type="line"/>
      <point x="325" y="501" type="line"/>
      <point x="328" y="506" type="line"/>
      <point x="178" y="691" type="line"/>
      <point x="28" y="506" type="line"/>
    </contour>
  </outline>
</glyph>
<glyph name="dotaccentcomb" format="2">
  <advance width="400"/>
  <unicode hex="0307"/>
  <anchor x="200" y="500" name="_top"/>
  <outline>
    <contour>
      <point x="200" y="554" type="curve"/>
      <point x="213" y="586"/>
      <point x="230" y="603"/>
      <point x="256" y="612" type="curve"/>
      <point x="227" y="625"/>
      <point x="209" y="643"/>
      <point x="200" y="670" type="curve"/>
      <point x="190" y="639"/>
      <point x="173" y="621"/>
      <point x="144" y="612" type="curve"/>
      <point x="171" y="599"/>
      <point x="191" y="582"/>
    </contour>
  </outline>
</glyph>
<glyph name="dieresiscomb" format="2">
  <advance width="400"/>
  <unicode hex="0308"/>
  <anchor x="194" y="490" name="_top"/>
  <outline>
    <contour>
      <point x="120" y="568" type="curve" smooth="yes"/>
      <point x="144" y="568"/>
      <point x="164" y="588"/>
      <point x="164" y="612" type="curve" smooth="yes"/>
      <point x="164" y="636"/>
      <point x="144" y="656"/>
      <point x="120" y="656" type="curve" smooth="yes"/>
      <point x="96" y="656"/>
      <point x="76" y="636"/>
      <point x="76" y="612" type="curve" smooth="yes"/>
      <point x="76" y="588"/>
      <point x="96" y="568"/>
    </contour>
    <contour>
      <point x="264" y="568" type="curve" smooth="yes"/>
      <point x="288" y="568"/>
      <point x="308" y="588"/>
      <point x="308" y="612" type="curve" smooth="yes"/>
      <point x="308" y="636"/>
      <point x="288" y="656"/>
      <point x="264" y="656" type="curve" smooth="yes"/>
      <point x="240" y="656"/>
      <point x="220" y="636"/>
      <point x="220" y="612" type="curve" smooth="yes"/>
      <point x="220" y="588"/>
      <point x="240" y="568"/>
    </contour>
  </outline>
</glyph>
<glyph name="ringcomb" format="2">
  <advance width="284"/>
  <unicode hex="030A"/>
  <anchor x="142" y="500" name="_top"/>
  <anchor x="142" y="651" name="top"/>
  <outline>
    <contour>
      <point x="116" y="553" type="curve" smooth="yes"/>
      <point x="182" y="553"/>
      <point x="214" y="594"/>
      <point x="214" y="635" type="curve" smooth="yes"/>
      <point x="214" y="676"/>
      <point x="182" y="717"/>
      <point x="116" y="717" type="curve" smooth="yes"/>
      <point x="50" y="717"/>
      <point x="18" y="676"/>
      <point x="18" y="635" type="curve" smooth="yes"/>
      <point x="18" y="594"/>
      <point x="50" y="553"/>
    </contour>
    <contour>
      <point x="117" y="565" type="curve" smooth="yes"/>
      <point x="85" y="565"/>
      <point x="55" y="587"/>
      <point x="55" y="634" type="curve" smooth="yes"/>
      <point x="55" y="682"/>
      <point x="85" y="706"/>
      <point x="117" y="706" type="curve" smooth="yes"/>
      <point x="147" y="706"/>
      <point x="178" y="683"/>
      <point x="178" y="636" type="curve" smooth="yes"/>
      <point x="181" y="589"/>
      <point x="147" y="565"/>
    </contour>
  </outline>
</glyph>
<glyph name="hungarumlautcomb" format="2">
  <advance width="434"/>
  <unicode hex="030B"/>
  <anchor x="223" y="500" name="_top"/>
  <anchor x="223" y="695" name="top"/>
  <outline>
    <contour>
      <point x="75" y="526" type="line"/>
      <point x="268" y="606" type="line"/>
      <point x="239" y="655" type="line"/>
      <point x="71" y="532" type="line"/>
    </contour>
    <contour>
      <point x="206" y="544" type="line"/>
      <point x="414" y="568" type="line"/>
      <point x="400" y="623" type="line"/>
      <point x="204" y="551" type="line"/>
    </contour>
  </outline>
</glyph>
<glyph name="commaturnedabovecomb" format="2">
  <advance width="210"/>
  <unicode hex="0312"/>
  <anchor x="109" y="500" name="_top"/>
  <anchor x="109" y="818" name="top"/>
  <outline>
    <contour>
      <point x="109" y="564" type="curve" smooth="yes"/>
      <point x="127" y="566"/>
      <point x="133" y="584"/>
      <point x="131" y="598" type="curve" smooth="yes"/>
      <point x="128" y="620"/>
      <point x="98" y="649"/>
      <point x="107" y="705" type="curve" smooth="yes"/>
      <point x="111" y="730"/>
      <point x="128" y="753"/>
      <point x="160" y="772" type="curve"/>
      <point x="156" y="782" type="line"/>
      <point x="93" y="748"/>
      <point x="69" y="683"/>
      <point x="69" y="632" type="curve" smooth="yes"/>
      <point x="69" y="590"/>
      <point x="86" y="561"/>
    </contour>
  </outline>
</glyph>
<glyph name="commaaccentcomb" format="2">
  <advance width="257"/>
  <unicode hex="0326"/>
  <anchor x="126" y="0" name="_bottom"/>
  <anchor x="126" y="-147" name="bottom"/>
  <outline>
    <contour>
      <point x="77" y="-147" type="curve"/>
      <point x="81" y="-154" type="line"/>
      <point x="149" y="-133"/>
      <point x="202" y="-69"/>
      <point x="202" y="-19" type="curve" smooth="yes"/>
      <point x="202" y="14"/>
      <point x="177" y="39"/>
      <point x="112" y="38" type="curve"/>
      <point x="101" y="12"/>
      <point x="83" y="-3"/>
      <point x="49" y="-6" type="curve"/>
      <point x="49" y="-14" type="line"/>
      <point x="128" y="-4"/>
      <point x="153" y="-36"/>
      <point x="153" y="-62" type="curve" smooth="yes"/>
      <point x="153" y="-92"/>
      <point x="119" y="-131"/>
    </contour>
  </outline>
</glyph>
<glyph name="cedillacomb" format="2">
  <advance width="285"/>
  <unicode hex="0327"/>
  <anchor x="142" y="0" name="_bottom"/>
  <anchor x="142" y="-164" name="bottom"/>
  <outline>
    <contour>
      <point x="113" y="-192" type="curve" smooth="yes"/>
      <point x="192" y="-192"/>
      <point x="234" y="-138"/>
      <point x="234" y="-93" type="curve" smooth="yes"/>
      <point x="234" y="-64"/>
      <point x="216" y="-40"/>
      <point x="179" y="-40" type="curve" smooth="yes"/>
      <point x="162" y="-40"/>
      <point x="142" y="-46"/>
      <point x="123" y="-57" type="curve"/>
      <point x="154" y="14" type="line"/>
      <point x="133" y="18" type="line"/>
      <point x="80" y="-123" type="line"/>
      <point x="90" y="-127" type="line"/>
      <point x="103" y="-99"/>
      <point x="127" y="-84"/>
      <point x="147" y="-84" type="curve" smooth="yes"/>
      <point x="169" y="-84"/>
      <point x="180" y="-99"/>
      <point x="181" y="-117" type="curve" smooth="yes"/>
      <point x="183" y="-155"/>
      <point x="143" y="-180"/>
      <point x="100" y="-180" type="curve" smooth="yes"/>
      <point x="87" y="-180"/>
      <point x="74" y="-178"/>
      <point x="62" y="-173" type="curve"/>
      <point x="59" y="-182" type="line"/>
      <point x="75" y="-189"/>
      <point x="94" y="-192"/>
    </contour>
  </outline>
</glyph>
<glyph name="ogonekcomb" format="2">
  <advance width="220"/>
  <unicode hex="0328"/>
  <anchor x="178" y="10" name="_ogonek"/>
  <outline>
    <contour>
      <point x="121" y="-201" type="curve"/>
      <point x="148" y="-191"/>
      <point x="177" y="-179"/>
      <point x="215" y="-157" type="curve"/>
      <point x="213" y="-150" type="line"/>
      <point x="139" y="-171"/>
      <point x="93" y="-123"/>
      <point x="93" y="-62" type="curve" smooth="yes"/>
      <point x="93" y="-36"/>
      <point x="102" y="-8"/>
      <point x="120" y="18" type="curve"/>
      <point x="113" y="23" type="line"/>
      <point x="68" y="-24"/>
      <point x="47" y="-71"/>
      <point x="47" y="-111" type="curve" smooth="yes"/>
      <point x="47" y="-157"/>
      <point x="76" y="-190"/>
    </contour>
  </outline>
</glyph>
<glyph name="Dje-cy" format="2">
  <advance width="739"/>
  <unicode hex="0402"/>
  <outline>
    <component base="T"/>
    <contour>
      <point x="490" y="-70" type="curve"/>
      <point x="499" y="-76" type="line"/>
      <point x="622" y="28"/>
      <point x="709" y="189"/>
      <point x="709" y="312" type="curve" smooth="yes"/>
      <point x="709" y="441"/>
      <point x="624" y="507"/>
      <point x="521" y="507" type="curve" smooth="yes"/>
      <point x="464" y="507"/>
      <point x="402" y="487"/>
      <point x="345" y="446" type="curve"/>
      <point x="355" y="366" type="line"/>
      <point x="378" y="440"/>
      <point x="445" y="486"/>
      <point x="513" y="486" type="curve" smooth="yes"/>
      <point x="596" y="486"/>
      <point x="641" y="412"/>
      <point x="641" y="300" type="curve" smooth="yes"/>
      <point x="641" y="172"/>
      <point x="582" y="22"/>
    </contour>
  </outline>
</glyph>
<glyph name="E-cy" format="2">
  <advance width="731"/>
  <unicode hex="0404"/>
  <outline>
    <contour>
      <point x="437" y="-19" type="curve" smooth="yes"/>
      <point x="517" y="-15"/>
      <point x="592" y="1"/>
      <point x="663" y="48" type="curve"/>
      <point x="701" y="184" type="line"/>
      <point x="694" y="187" type="line"/>
      <point x="631" y="57"/>
      <point x="537" y="8"/>
      <point x="436" y="2" type="curve" smooth="yes"/>
      <point x="218" y="-11"/>
      <point x="113" y="210"/>
      <point x="126" y="413" type="curve"/>
      <point x="545" y="413" type="line" smooth="yes"/>
      <point x="630" y="413"/>
      <point x="660" y="403"/>
      <point x="672" y="364" type="curve"/>
      <point x="678" y="365" type="line"/>
      <point x="678" y="484" type="line"/>
      <point x="672" y="485" type="line"/>
      <point x="660" y="450"/>
      <point x="630" y="435"/>
      <point x="545" y="435" type="curve" smooth="yes"/>
      <point x="129" y="435" type="line"/>
      <point x="150" y="612"/>
      <point x="278" y="718"/>
      <point x="437" y="718" type="curve" smooth="yes"/>
      <point x="560" y="718"/>
      <point x="639" y="651"/>
      <point x="670" y="550" type="curve"/>
      <point x="677" y="551" type="line"/>
      <point x="665" y="690" type="line"/>
      <point x="596" y="720"/>
      <point x="537" y="735"/>
      <point x="464" y="735" type="curve" smooth="yes"/>
      <point x="231" y="735"/>
      <point x="39" y="590"/>
      <point x="50" y="333" type="curve" smooth="yes"/>
      <point x="60" y="100"/>
      <point x="227" y="-29"/>
    </contour>
  </outline>
</glyph>
<glyph name="Yi-cy" format="2">
  <advance width="220"/>
  <unicode hex="0407"/>
  <anchor x="121.921" y="874.221" name="top"/>
  <outline>
    <component base="I"/>
    <contour>
      <point x="51" y="782" type="curve" smooth="yes"/>
      <point x="71" y="782"/>
      <point x="89" y="799"/>
      <point x="89" y="820" type="curve" smooth="yes"/>
      <point x="89" y="841"/>
      <point x="71" y="858"/>
      <point x="51" y="858" type="curve" smooth="yes"/>
      <point x="30" y="858"/>
      <point x="12" y="841"/>
      <point x="12" y="820" type="curve" smooth="yes"/>
      <point x="12" y="799"/>
      <point x="30" y="782"/>
    </contour>
    <contour>
      <point x="160" y="782" type="curve" smooth="yes"/>
      <point x="181" y="782"/>
      <point x="198" y="799"/>
      <point x="198" y="820" type="curve" smooth="yes"/>
      <point x="198" y="841"/>
      <point x="181" y="858"/>
      <point x="160" y="858" type="curve" smooth="yes"/>
      <point x="139" y="858"/>
      <point x="122" y="841"/>
      <point x="122" y="820" type="curve" smooth="yes"/>
      <point x="122" y="799"/>
      <point x="139" y="782"/>
    </contour>
  </outline>
</glyph>
<glyph name="Lje-cy" format="2">
  <advance width="1013"/>
  <unicode hex="0409"/>
  <outline>
    <contour>
      <point x="495" y="0" type="curve"/>
      <point x="618" y="0" type="line" smooth="yes"/>
      <point x="798" y="0"/>
      <point x="983" y="58"/>
      <point x="983" y="259" type="curve" smooth="yes"/>
      <point x="983" y="443"/>
      <point x="827" y="524"/>
      <point x="594" y="500" type="curve"/>
      <point x="594" y="493" type="line"/>
      <point x="804" y="507"/>
      <point x="913" y="415"/>
      <point x="913" y="254" type="curve" smooth="yes"/>
      <point x="913" y="77"/>
      <point x="794" y="22"/>
      <point x="575" y="24" type="curve"/>
      <point x="575" y="612" type="line" smooth="yes"/>
      <point x="574" y="672"/>
      <point x="575" y="697"/>
      <point x="583" y="722" type="curve"/>
      <point x="197" y="722" type="line"/>
      <point x="197" y="716" type="line"/>
      <point x="217" y="716" type="line" smooth="yes"/>
      <point x="252" y="716"/>
      <point x="267" y="703"/>
      <point x="266" y="663" type="curve" smooth="yes"/>
      <point x="265" y="571"/>
      <point x="261" y="440"/>
      <point x="247" y="330" type="curve" smooth="yes"/>
      <point x="234" y="225"/>
      <point x="207" y="60"/>
      <point x="84" y="60" type="curve" smooth="yes"/>
      <point x="61" y="60"/>
      <point x="43" y="63"/>
      <point x="24" y="71" type="curve"/>
      <point x="20" y="67" type="line"/>
      <point x="47" y="-13" type="line"/>
      <point x="219" y="-13"/>
      <point x="257" y="179"/>
      <point x="274" y="333" type="curve" smooth="yes"/>
      <point x="288" y="453"/>
      <point x="294" y="588"/>
      <point x="295" y="698" type="curve"/>
      <point x="505" y="698" type="line"/>
      <point x="505" y="84" type="line" smooth="yes"/>
      <point x="505" y="40"/>
      <point x="503" y="24"/>
    </contour>
  </outline>
</glyph>
<glyph name="Be-cy" format="2">
  <advance width="599"/>
  <unicode hex="0411"/>
  <outline>
    <contour>
      <point x="87" y="0" type="curve"/>
      <point x="204" y="0" type="line" smooth="yes"/>
      <point x="384" y="0"/>
      <point x="569" y="58"/>
      <point x="569" y="256" type="curve" smooth="yes"/>
      <point x="569" y="439"/>
      <point x="400" y="508"/>
      <point x="197" y="497" type="curve"/>
      <point x="197" y="490" type="line"/>
      <point x="377" y="491"/>
      <point x="499" y="411"/>
      <point x="499" y="251" type="curve" smooth="yes"/>
      <point x="499" y="77"/>
      <point x="384" y="22"/>
      <point x="167" y="24" type="curve"/>
      <point x="167" y="698" type="line"/>
      <point x="294" y="698" type="line" smooth="yes"/>
      <point x="402" y="698"/>
      <point x="447" y="680"/>
      <point x="487" y="574" type="curve"/>
      <point x="494" y="576" type="line"/>
      <point x="461" y="722" type="line"/>
      <point x="25" y="722" type="line"/>
      <point x="25" y="716" type="line"/>
      <point x="45" y="716" type="line" smooth="yes"/>
      <point x="81" y="716"/>
      <point x="97" y="697"/>
      <point x="97" y="652" type="curve" smooth="yes"/>
      <point x="97" y="84" type="line" smooth="yes"/>
      <point x="97" y="40"/>
      <point x="95" y="24"/>
    </contour>
  </outline>
</glyph>
<glyph name="Ge-cy" format="2">
  <advance width="467"/>
  <unicode hex="0413"/>
  <anchor x="503" y="0" name="bottomright"/>
  <anchor x="262" y="722" name="top"/>
  <outline>
    <contour>
      <point x="87" y="0" type="curve"/>
      <point x="177" y="0" type="line"/>
      <point x="169" y="24"/>
      <point x="167" y="40"/>
      <point x="167" y="84" type="curve" smooth="yes"/>
      <point x="167" y="698" type="line"/>
      <point x="192" y="698" type="line" smooth="yes"/>
      <point x="345" y="698"/>
      <point x="383" y="679"/>
      <point x="424" y="581" type="curve"/>
      <point x="432" y="583" type="line"/>
      <point x="406" y="722" type="line"/>
      <point x="25" y="722" type="line"/>
      <point x="25" y="716" type="line"/>
      <point x="45" y="716" type="line" smooth="yes"/>
      <point x="81" y="716"/>
      <point x="97" y="697"/>
      <point x="97" y="652" type="curve" smooth="yes"/>
      <point x="97" y="84" type="line" smooth="yes"/>
      <point x="97" y="40"/>
      <point x="95" y="24"/>
    </contour>
  </outline>
</glyph>
<glyph name="De-cy" format="2">
  <advance width="813"/>
  <unicode hex="0414"/>
  <outline>
    <contour>
      <point x="763" y="24" type="line"/>
      <point x="654" y="24" type="line"/>
      <point x="654" y="612" type="line" smooth="yes"/>
      <point x="654" y="672"/>
      <point x="654" y="697"/>
      <point x="662" y="722" type="curve"/>
      <point x="150" y="722" type="line"/>
      <point x="150" y="716" type="line"/>
      <point x="172" y="716" type="line" smooth="yes"/>
      <point x="281" y="716"/>
      <point x="281" y="633"/>
      <point x="280" y="532" type="curve" smooth="yes"/>
      <point x="278" y="364"/>
      <point x="257" y="109"/>
      <point x="88" y="24" type="curve"/>
      <point x="30" y="24" type="line"/>
      <point x="30" y="-149" type="line"/>
      <point x="36" y="-149" type="line"/>
      <point x="50" y="-42"/>
      <point x="111" y="0"/>
      <point x="266" y="0" type="curve" smooth="yes"/>
      <point x="628" y="0" type="line" smooth="yes"/>
      <point x="697" y="0"/>
      <point x="746" y="-30"/>
      <point x="756" y="-152" type="curve"/>
      <point x="763" y="-152" type="line"/>
    </contour>
    <contour>
      <point x="125" y="24" type="line"/>
      <point x="250" y="106"/>
      <point x="296" y="267"/>
      <point x="315" y="410" type="curve" smooth="yes"/>
      <point x="328" y="511"/>
      <point x="327" y="613"/>
      <point x="325" y="698" type="curve"/>
      <point x="582" y="698" type="line"/>
      <point x="582" y="24" type="line"/>
    </contour>
  </outline>
</glyph>
<glyph name="Zhe-cy" format="2">
  <advance width="892"/>
  <unicode hex="0416"/>
  <anchor x="891" y="0" name="bottomright"/>
  <anchor x="444" y="722" name="top"/>
  <outline>
    <contour>
      <point x="411" y="652" type="curve" smooth="yes"/>
      <point x="411" y="84" type="line" smooth="yes"/>
      <point x="411" y="40"/>
      <point x="409" y="24"/>
      <point x="401" y="0" type="curve"/>
      <point x="491" y="0" type="line"/>
      <point x="483" y="24"/>
      <point x="481" y="40"/>
      <point x="481" y="84" type="curve" smooth="yes"/>
      <point x="481" y="722" type="line"/>
      <point x="339" y="722" type="line"/>
      <point x="339" y="716" type="line"/>
      <point x="359" y="716" type="line" smooth="yes"/>
      <point x="395" y="716"/>
      <point x="411" y="697"/>
    </contour>
    <contour>
      <point x="501" y="376" type="curve"/>
      <point x="650" y="392"/>
      <point x="701" y="345"/>
      <point x="720" y="220" type="curve" smooth="yes"/>
      <point x="738" y="99"/>
      <point x="767" y="-55"/>
      <point x="959" y="-129" type="curve"/>
      <point x="962" y="-123" type="line"/>
      <point x="796" y="-55"/>
      <point x="794" y="92"/>
      <point x="782" y="212" type="curve" smooth="yes"/>
      <point x="766" y="367"/>
      <point x="722" y="440"/>
      <point x="557" y="428" type="curve"/>
      <point x="693" y="639" type="line" smooth="yes"/>
      <point x="730" y="696"/>
      <point x="766" y="714"/>
      <point x="838" y="717" type="curve"/>
      <point x="837" y="722" type="line"/>
      <point x="691" y="722" type="line"/>
      <point x="681" y="687"/>
      <point x="611" y="568"/>
    </contour>
    <contour>
      <point x="395" y="376" type="curve"/>
      <point x="285" y="568"/>
      <point x="210" y="687"/>
      <point x="197" y="722" type="curve"/>
      <point x="51" y="722" type="line"/>
      <point x="50" y="717" type="line"/>
      <point x="122" y="714"/>
      <point x="160" y="697"/>
      <point x="198" y="640" type="curve" smooth="yes"/>
      <point x="338" y="428" type="line"/>
      <point x="177" y="440"/>
      <point x="131" y="363"/>
      <point x="111" y="210" type="curve" smooth="yes"/>
      <point x="96" y="92"/>
      <point x="100" y="-56"/>
      <point x="-70" y="-123" type="curve"/>
      <point x="-67" y="-129" type="line"/>
      <point x="128" y="-55"/>
      <point x="147" y="99"/>
      <point x="171" y="220" type="curve" smooth="yes"/>
      <point x="195" y="339"/>
      <point x="240" y="392"/>
    </contour>
  </outline>
</glyph>
<glyph name="Ze-cy" format="2">
  <advance width="542"/>
  <unicode hex="0417"/>
  <anchor x="260" y="0" name="bottom"/>
  <anchor x="260" y="722" name="top"/>
  <outline>
    <contour>
      <point x="302" y="401" type="curve"/>
      <point x="314" y="399" type="line"/>
      <point x="390" y="445"/>
      <point x="452" y="530"/>
      <point x="452" y="601" type="curve" smooth="yes"/>
      <point x="452" y="695"/>
      <point x="348" y="729"/>
      <point x="243" y="729" type="curve" smooth="yes"/>
      <point x="179" y="729"/>
      <point x="114" y="719"/>
      <point x="68" y="707" type="curve"/>
      <point x="68" y="702" type="line"/>
      <point x="95" y="701"/>
      <point x="93" y="656"/>
      <point x="93" y="582" type="curve"/>
      <point x="99" y="582" type="line"/>
      <point x="106" y="669"/>
      <point x="166" y="707"/>
      <point x="243" y="707" type="curve" smooth="yes"/>
      <point x="311" y="707"/>
      <point x="383" y="668"/>
      <point x="383" y="562" type="curve" smooth="yes"/>
      <point x="383" y="505"/>
      <point x="359" y="443"/>
    </contour>
    <contour>
      <point x="21" y="70" type="curve"/>
      <point x="20" y="66" type="line"/>
      <point x="93" y="19"/>
      <point x="175" y="-5"/>
      <point x="250" y="-5" type="curve" smooth="yes"/>
      <point x="382" y="-5"/>
      <point x="502" y="69"/>
      <point x="502" y="221" type="curve" smooth="yes"/>
      <point x="502" y="406"/>
      <point x="347" y="438"/>
      <point x="165" y="409" type="curve"/>
      <point x="165" y="403" type="line"/>
      <point x="180" y="404"/>
      <point x="195" y="405"/>
      <point x="209" y="405" type="curve" smooth="yes"/>
      <point x="346" y="405"/>
      <point x="424" y="335"/>
      <point x="424" y="210" type="curve" smooth="yes"/>
      <point x="424" y="76"/>
      <point x="338" y="19"/>
      <point x="257" y="19" type="curve" smooth="yes"/>
      <point x="162" y="19"/>
      <point x="59" y="97"/>
      <point x="64" y="232" type="curve"/>
      <point x="57" y="232" type="line"/>
      <point x="52" y="120"/>
      <point x="63" y="81"/>
    </contour>
  </outline>
</glyph>
<glyph name="Ka-cy" format="2">
  <advance width="612"/>
  <unicode hex="041A"/>
  <anchor x="593" y="0" name="bottomright"/>
  <anchor x="307" y="722" name="top"/>
  <outline>
    <contour>
      <point x="167" y="84" type="curve" smooth="yes"/>
      <point x="167" y="394" type="line"/>
      <point x="336" y="388"/>
      <point x="401" y="323"/>
      <point x="442" y="169" type="curve" smooth="yes"/>
      <point x="483" y="16"/>
      <point x="521" y="-71"/>
      <point x="678" y="-129" type="curve"/>
      <point x="682" y="-123" type="line"/>
      <point x="558" y="-78"/>
      <point x="541" y="105"/>
      <point x="494" y="237" type="curve" smooth="yes"/>
      <point x="462" y="328"/>
      <point x="413" y="393"/>
      <point x="244" y="407" type="curve"/>
      <point x="389" y="625" type="line" smooth="yes"/>
      <point x="438" y="698"/>
      <point x="467" y="713"/>
      <point x="547" y="716" type="curve"/>
      <point x="547" y="722" type="line"/>
      <point x="397" y="722" type="line"/>
      <point x="383" y="688"/>
      <point x="308" y="569"/>
      <point x="205" y="409" type="curve"/>
      <point x="193" y="410"/>
      <point x="180" y="410"/>
      <point x="167" y="410" type="curve"/>
      <point x="167" y="722" type="line"/>
      <point x="25" y="722" type="line"/>
      <point x="25" y="716" type="line"/>
      <point x="45" y="716" type="line" smooth="yes"/>
      <point x="81" y="716"/>
      <point x="97" y="697"/>
      <point x="97" y="652" type="curve" smooth="yes"/>
      <point x="97" y="84" type="line" smooth="yes"/>
      <point x="97" y="40"/>
      <point x="95" y="24"/>
      <point x="87" y="0" type="curve"/>
      <point x="177" y="0" type="line"/>
      <point x="169" y="24"/>
      <point x="167" y="40"/>
    </contour>
  </outline>
</glyph>
<glyph name="U-cy" format="2">
  <advance width="578"/>
  <unicode hex="0423"/>
  <anchor x="295" y="722" name="top"/>
  <outline>
    <contour>
      <point x="78" y="655" type="curve" smooth="yes"/>
      <point x="290" y="153" type="line"/>
      <point x="266" y="94"/>
      <point x="227" y="47"/>
      <point x="163" y="47" type="curve" smooth="yes"/>
      <point x="138" y="47"/>
      <point x="118" y="52"/>
      <point x="100" y="63" type="curve"/>
      <point x="96" y="59" type="line"/>
      <point x="119" y="-21" type="line"/>
      <point x="249" y="-25"/>
      <point x="300" y="96"/>
      <point x="350" y="229" type="curve" smooth="yes"/>
      <point x="515" y="665" type="line" smooth="yes"/>
      <point x="528" y="700"/>
      <point x="531" y="715"/>
      <point x="554" y="715" type="curve" smooth="yes"/>
      <point x="568" y="715" type="line"/>
      <point x="568" y="722" type="line"/>
      <point x="476" y="722" type="line"/>
      <point x="487" y="697"/>
      <point x="486" y="670"/>
      <point x="468" y="623" type="curve" smooth="yes"/>
      <point x="373" y="370" type="line" smooth="yes"/>
      <point x="339" y="279"/>
      <point x="327" y="250"/>
      <point x="324" y="241" type="curve"/>
      <point x="322" y="253"/>
      <point x="318" y="263"/>
      <point x="310" y="283" type="curve" smooth="yes"/>
      <point x="156" y="650" type="line" smooth="yes"/>
      <point x="142" y="684"/>
      <point x="135" y="707"/>
      <point x="135" y="722" type="curve"/>
      <point x="10" y="722" type="line"/>
      <point x="10" y="715" type="line"/>
      <point x="27" y="715" type="line" smooth="yes"/>
      <point x="57" y="715"/>
      <point x="61" y="695"/>
    </contour>
  </outline>
</glyph>
<glyph name="Ef-cy" format="2">
  <advance width="831"/>
  <unicode hex="0424"/>
  <outline>
    <contour>
      <point x="369" y="0" type="curve"/>
      <point x="459" y="0" type="line"/>
      <point x="453" y="20"/>
      <point x="451" y="28"/>
      <point x="451" y="68" type="curve" smooth="yes"/>
      <point x="451" y="80" type="line"/>
      <point x="625" y="86"/>
      <point x="781" y="173"/>
      <point x="781" y="403" type="curve" smooth="yes"/>
      <point x="781" y="631"/>
      <point x="623" y="720"/>
      <point x="451" y="722" type="curve"/>
      <point x="451" y="800" type="line"/>
      <point x="307" y="800" type="line"/>
      <point x="307" y="794" type="line"/>
      <point x="327" y="794" type="line" smooth="yes"/>
      <point x="363" y="794"/>
      <point x="379" y="787"/>
      <point x="379" y="732" type="curve" smooth="yes"/>
      <point x="379" y="722" type="line"/>
      <point x="205" y="716"/>
      <point x="50" y="631"/>
      <point x="50" y="405" type="curve" smooth="yes"/>
      <point x="50" y="175"/>
      <point x="206" y="87"/>
      <point x="379" y="80" type="curve"/>
      <point x="379" y="68" type="line" smooth="yes"/>
      <point x="379" y="24"/>
      <point x="377" y="24"/>
    </contour>
    <contour>
      <point x="120" y="404" type="curve" smooth="yes"/>
      <point x="117" y="598"/>
      <point x="224" y="692"/>
      <point x="379" y="700" type="curve"/>
      <point x="379" y="102" type="line"/>
      <point x="230" y="111"/>
      <point x="123" y="205"/>
    </contour>
    <contour>
      <point x="451" y="102" type="curve"/>
      <point x="451" y="700" type="line"/>
      <point x="604" y="697"/>
      <point x="711" y="598"/>
      <point x="711" y="404" type="curve" smooth="yes"/>
      <point x="711" y="205"/>
      <point x="601" y="110"/>
    </contour>
  </outline>
</glyph>
<glyph name="Tse-cy" format="2">
  <advance width="730"/>
  <unicode hex="0426"/>
  <outline>
    <contour>
      <point x="72" y="0" type="curve"/>
      <point x="584" y="0" type="line" smooth="yes"/>
      <point x="608" y="0"/>
      <point x="627" y="0"/>
      <point x="641" y="-3" type="curve" smooth="yes"/>
      <point x="653" y="-6"/>
      <point x="658" y="-12"/>
      <point x="658" y="-22" type="curve" smooth="yes"/>
      <point x="658" y="-45"/>
      <point x="652" y="-86"/>
      <point x="628" y="-148" type="curve"/>
      <point x="633" y="-151" type="line"/>
      <point x="668" y="-82"/>
      <point x="703" y="-12"/>
      <point x="720" y="24" type="curve"/>
      <point x="622" y="24" type="line"/>
      <point x="622" y="608" type="line" smooth="yes"/>
      <point x="622" y="668"/>
      <point x="623" y="692"/>
      <point x="625" y="722" type="curve"/>
      <point x="480" y="722" type="line"/>
      <point x="480" y="716" type="line"/>
      <point x="500" y="716" type="line" smooth="yes"/>
      <point x="536" y="716"/>
      <point x="552" y="697"/>
      <point x="552" y="652" type="curve" smooth="yes"/>
      <point x="552" y="24" type="line"/>
      <point x="162" y="24" type="line"/>
      <point x="162" y="608" type="line" smooth="yes"/>
      <point x="162" y="668"/>
      <point x="163" y="692"/>
      <point x="165" y="722" type="curve"/>
      <point x="20" y="722" type="line"/>
      <point x="20" y="716" type="line"/>
      <point x="40" y="716" type="line" smooth="yes"/>
      <point x="76" y="716"/>
      <point x="92" y="697"/>
      <point x="92" y="652" type="curve" smooth="yes"/>
      <point x="92" y="84" type="line" smooth="yes"/>
      <point x="92" y="40"/>
      <point x="88" y="24"/>
    </contour>
  </outline>
</glyph>
<glyph name="Che-cy" format="2">
  <advance width="541"/>
  <unicode hex="0427"/>
  <anchor x="521" y="0" name="bottomright"/>
  <anchor x="265" y="722" name="top"/>
  <outline>
    <contour>
      <point x="403" y="0" type="curve"/>
      <point x="491" y="0" type="line"/>
      <point x="485" y="20"/>
      <point x="483" y="36"/>
      <point x="483" y="76" type="curve" smooth="yes"/>
      <point x="483" y="722" type="line"/>
      <point x="341" y="722" type="line"/>
      <point x="341" y="716" type="line"/>
      <point x="361" y="716" type="line" smooth="yes"/>
      <point x="397" y="716"/>
      <point x="413" y="697"/>
      <point x="413" y="652" type="curve" smooth="yes"/>
      <point x="413" y="84" type="line" smooth="yes"/>
      <point x="413" y="40"/>
      <point x="411" y="24"/>
    </contour>
    <contour>
      <point x="231" y="774" type="curve"/>
      <point x="227" y="779" type="line"/>
      <point x="83" y="658"/>
      <point x="20" y="521"/>
      <point x="20" y="411" type="curve" smooth="yes"/>
      <point x="20" y="272"/>
      <point x="114" y="201"/>
      <point x="225" y="201" type="curve" smooth="yes"/>
      <point x="304" y="201"/>
      <point x="391" y="237"/>
      <point x="461" y="308" type="curve"/>
      <point x="455" y="329" type="line"/>
      <point x="407" y="274"/>
      <point x="338" y="244"/>
      <point x="273" y="244" type="curve" smooth="yes"/>
      <point x="151" y="244"/>
      <point x="83" y="339"/>
      <point x="83" y="459" type="curve" smooth="yes"/>
      <point x="83" y="559"/>
      <point x="130" y="678"/>
    </contour>
  </outline>
</glyph>
